<svg width="58" height="73" viewBox="0 0 58 73" fill="none" xmlns="http://www.w3.org/2000/svg">
<path d="M49.7713 59.3641C50.4793 58.7816 57.3259 52.9028 56.5552 44.2998C55.7845 35.6967 47.8356 28.178 38.8114 28.6978C32.3681 29.0652 26.5699 33.4653 23.9711 39.8549C23.8098 40.2492 23.9263 40.7062 24.2489 40.993C24.93 41.6024 25.7993 42.2745 26.8746 42.8928C27.8873 43.4843 28.8551 43.8875 29.6886 44.1833C30.1814 44.3535 30.7281 44.1116 30.9342 43.6277C31.3464 42.6688 32.0902 41.3604 33.3717 40.1775C34.017 39.5771 35.7555 38.0267 38.4977 37.6414C39.143 37.5517 42.2616 37.1216 44.95 39.2544C45.2727 39.5143 47.2621 41.1364 47.8177 43.9144C48.7497 48.6103 44.7081 52.5444 44.1256 53.109C37.7898 59.2834 26.8657 56.1917 26.2653 56.0125C17.3665 53.3599 10.9859 44.9809 9.7402 36.1089C9.45343 34.0926 8.53039 26.6456 13.3607 19.8975C18.9706 12.0741 29.5452 9.8696 36.3559 11.4468C43.6506 13.1406 47.9163 18.2038 49.4666 20.3187C49.6817 20.6145 50.1029 20.6772 50.3986 20.4532C52.7555 18.7057 55.1124 16.9582 57.4693 15.2196C57.7561 15.0046 57.8278 14.5923 57.6127 14.2966C55.7935 11.7067 52.406 7.68299 46.9305 4.63607C43.0771 2.49427 34.2948 -1.24269 23.6306 1.51746C12.4914 4.41203 3.79871 13.4721 0.868288 24.45C0.680096 25.14 -3.15544 40.527 6.95316 53.1806C10.9679 58.2081 15.6638 60.8876 18.4956 62.2318C18.4687 65.2877 18.4418 68.3525 18.415 71.4084C18.415 71.7758 18.7107 72.0715 19.0871 72.0715H28.6401C29.0075 72.0715 29.3122 71.7758 29.3122 71.4084C29.3122 69.2666 29.3122 67.1248 29.3301 64.9919C31.0955 65.1532 33.3269 65.1981 35.881 64.8575C38.0228 64.5707 39.8599 64.0868 41.3385 63.585C42.6021 66.2824 43.8657 68.9888 45.1293 71.6862C45.2368 71.9192 45.4788 72.0715 45.7297 72.0715H56.0265C56.5462 72.0715 56.8689 71.507 56.609 71.0678C54.3327 67.1696 52.0565 63.2713 49.7803 59.3731L49.7713 59.3641Z" fill="#AFDC27"/>
</svg>
