<svg width="199" height="76" viewBox="0 0 199 76" fill="none" xmlns="http://www.w3.org/2000/svg">
<rect x="1.00391" y="0.375" width="196.686" height="74.2882" rx="9.625" fill="#FEFEFE"/>
<rect x="1.00391" y="0.375" width="196.686" height="74.2882" rx="9.625" stroke="#C4C4C3" stroke-width="0.75"/>
<g clip-path="url(#clip0_1712_32109)">
<path d="M46.0526 47.5437C45.5291 48.763 44.8826 49.9257 44.1232 51.0138C43.1076 52.4609 42.2767 53.4623 41.6365 54.0187C40.6441 54.9311 39.5799 55.3992 38.4409 55.4254C37.6235 55.4254 36.6378 55.1928 35.4898 54.7209C34.3381 54.2513 33.2799 54.0179 32.3121 54.0179C31.2973 54.0179 30.2092 54.2513 29.0447 54.7209C27.8788 55.1928 26.9395 55.4389 26.2215 55.4628C25.1297 55.5099 24.0408 55.029 22.9534 54.0187C22.2601 53.4129 21.3933 52.3764 20.3538 50.9076C19.2387 49.3386 18.3219 47.5197 17.6039 45.4452C16.8351 43.2053 16.4492 41.0358 16.4492 38.9358C16.4492 36.5299 16.969 34.4553 18.01 32.7165C18.8289 31.3195 19.9171 30.2187 21.2797 29.4095C22.6165 28.6095 24.1418 28.179 25.6995 28.1621C26.5671 28.1621 27.7046 28.4305 29.1188 28.9578C30.5285 29.4865 31.4334 29.755 31.8305 29.755C32.1267 29.755 33.1326 29.4409 34.8369 28.8157C36.4493 28.2353 37.8097 27.9953 38.924 28.0903C41.9446 28.3341 44.2136 29.5247 45.7221 31.6695C43.0216 33.3059 41.6851 35.5981 41.712 38.5387C41.736 40.8294 42.5668 42.7357 44.2002 44.2486C44.9406 44.9516 45.767 45.4945 46.6861 45.8797C46.4934 46.4412 46.2821 46.9962 46.0526 47.5437V47.5437ZM39.1259 20.2871C39.1259 22.0819 38.4701 23.7586 37.1628 25.3097C35.5848 27.1547 33.677 28.2204 31.6077 28.0521C31.5798 27.8263 31.5659 27.5991 31.5658 27.3716C31.5658 25.6485 32.3159 23.8043 33.6486 22.2958C34.3142 21.5322 35.1593 20.8973 36.1853 20.391C37.2099 19.8922 38.1776 19.6162 39.0885 19.5684C39.1147 19.8084 39.1259 20.0485 39.1259 20.2863V20.2871Z" fill="#242C07"/>
</g>
<path d="M61.1852 16.9908C62.257 16.9908 63.1831 17.193 63.9634 17.5972C64.7532 17.9921 65.3549 18.5609 65.7686 19.3036C66.1916 20.0464 66.4032 20.9207 66.4032 21.9267C66.4032 22.9327 66.1916 23.8071 65.7686 24.5498C65.3549 25.2831 64.7532 25.8472 63.9634 26.2421C63.1831 26.6276 62.257 26.8203 61.1852 26.8203H58.125V16.9908H61.1852ZM61.1852 25.7626C62.4544 25.7626 63.4228 25.4289 64.0903 24.7613C64.7579 24.0844 65.0916 23.1395 65.0916 21.9267C65.0916 20.7045 64.7532 19.7502 64.0762 19.0639C63.4087 18.3776 62.445 18.0344 61.1852 18.0344H59.4083V25.7626H61.1852ZM71.4664 26.9472C70.7425 26.9472 70.0844 26.7827 69.4921 26.4536C68.9092 26.1246 68.4485 25.6592 68.11 25.0575C67.781 24.4464 67.6164 23.7413 67.6164 22.9421C67.6164 22.1524 67.7857 21.4566 68.1241 20.8549C68.472 20.2438 68.9421 19.7784 69.5344 19.4588C70.1267 19.1297 70.7895 18.9652 71.5228 18.9652C72.2562 18.9652 72.919 19.1297 73.5113 19.4588C74.1036 19.7784 74.569 20.2391 74.9075 20.8408C75.2553 21.4425 75.4292 22.143 75.4292 22.9421C75.4292 23.7413 75.2506 24.4464 74.8934 25.0575C74.5455 25.6592 74.0707 26.1246 73.469 26.4536C72.8673 26.7827 72.1998 26.9472 71.4664 26.9472ZM71.4664 25.819C71.9271 25.819 72.3596 25.7109 72.7639 25.4947C73.1681 25.2784 73.4925 24.9541 73.7369 24.5216C73.9908 24.0891 74.1177 23.5626 74.1177 22.9421C74.1177 22.3216 73.9955 21.7951 73.751 21.3626C73.5066 20.9301 73.1869 20.6105 72.7921 20.4036C72.3972 20.1874 71.9694 20.0793 71.5087 20.0793C71.0386 20.0793 70.6062 20.1874 70.2113 20.4036C69.8258 20.6105 69.5156 20.9301 69.2805 21.3626C69.0455 21.7951 68.928 22.3216 68.928 22.9421C68.928 23.572 69.0408 24.1032 69.2664 24.5357C69.5015 24.9682 69.8117 25.2925 70.1972 25.5088C70.5827 25.7156 71.0057 25.819 71.4664 25.819ZM87.4115 19.0921L84.9999 26.8203H83.6743L81.8128 20.6857L79.9512 26.8203H78.6256L76.1999 19.0921H77.5115L79.2884 25.5793L81.2063 19.0921H82.5179L84.3935 25.5934L86.1422 19.0921H87.4115ZM92.4505 18.9511C93.3907 18.9511 94.1522 19.2378 94.7351 19.8113C95.318 20.3754 95.6095 21.1934 95.6095 22.2652V26.8203H94.3402V22.4485C94.3402 21.6776 94.1475 21.09 93.762 20.6857C93.3766 20.272 92.8501 20.0652 92.1825 20.0652C91.5056 20.0652 90.965 20.2767 90.5607 20.6998C90.1659 21.1229 89.9684 21.7387 89.9684 22.5472V26.8203H88.6851V19.0921H89.9684V20.1921C90.2223 19.7972 90.5654 19.4917 90.9979 19.2754C91.4398 19.0592 91.924 18.9511 92.4505 18.9511ZM98.9891 16.3844V26.8203H97.7058V16.3844H98.9891ZM104.547 26.9472C103.823 26.9472 103.165 26.7827 102.572 26.4536C101.99 26.1246 101.529 25.6592 101.19 25.0575C100.861 24.4464 100.697 23.7413 100.697 22.9421C100.697 22.1524 100.866 21.4566 101.205 20.8549C101.552 20.2438 102.022 19.7784 102.615 19.4588C103.207 19.1297 103.87 18.9652 104.603 18.9652C105.337 18.9652 105.999 19.1297 106.592 19.4588C107.184 19.7784 107.649 20.2391 107.988 20.8408C108.336 21.4425 108.51 22.143 108.51 22.9421C108.51 23.7413 108.331 24.4464 107.974 25.0575C107.626 25.6592 107.151 26.1246 106.549 26.4536C105.948 26.7827 105.28 26.9472 104.547 26.9472ZM104.547 25.819C105.008 25.819 105.44 25.7109 105.844 25.4947C106.249 25.2784 106.573 24.9541 106.817 24.5216C107.071 24.0891 107.198 23.5626 107.198 22.9421C107.198 22.3216 107.076 21.7951 106.831 21.3626C106.587 20.9301 106.267 20.6105 105.872 20.4036C105.478 20.1874 105.05 20.0793 104.589 20.0793C104.119 20.0793 103.687 20.1874 103.292 20.4036C102.906 20.6105 102.596 20.9301 102.361 21.3626C102.126 21.7951 102.008 22.3216 102.008 22.9421C102.008 23.572 102.121 24.1032 102.347 24.5357C102.582 24.9682 102.892 25.2925 103.278 25.5088C103.663 25.7156 104.086 25.819 104.547 25.819ZM109.718 22.928C109.718 22.1383 109.877 21.4472 110.197 20.8549C110.517 20.2532 110.954 19.7878 111.509 19.4588C112.073 19.1297 112.698 18.9652 113.384 18.9652C114.061 18.9652 114.649 19.1109 115.147 19.4024C115.645 19.6938 116.017 20.0605 116.261 20.5024V19.0921H117.559V26.8203H116.261V25.3819C116.007 25.8331 115.627 26.2092 115.119 26.5101C114.621 26.8015 114.038 26.9472 113.37 26.9472C112.684 26.9472 112.063 26.778 111.509 26.4395C110.954 26.1011 110.517 25.6263 110.197 25.0152C109.877 24.4041 109.718 23.7083 109.718 22.928ZM116.261 22.9421C116.261 22.3592 116.144 21.8515 115.909 21.419C115.674 20.9866 115.354 20.6575 114.95 20.4319C114.555 20.1968 114.118 20.0793 113.638 20.0793C113.159 20.0793 112.721 20.1921 112.327 20.4177C111.932 20.6434 111.617 20.9724 111.382 21.4049C111.147 21.8374 111.029 22.3451 111.029 22.928C111.029 23.5203 111.147 24.0374 111.382 24.4793C111.617 24.9118 111.932 25.2455 112.327 25.4806C112.721 25.7062 113.159 25.819 113.638 25.819C114.118 25.819 114.555 25.7062 114.95 25.4806C115.354 25.2455 115.674 24.9118 115.909 24.4793C116.144 24.0374 116.261 23.525 116.261 22.9421ZM119.248 22.928C119.248 22.1383 119.408 21.4472 119.727 20.8549C120.047 20.2532 120.484 19.7878 121.039 19.4588C121.603 19.1297 122.233 18.9652 122.929 18.9652C123.53 18.9652 124.09 19.1062 124.607 19.3883C125.124 19.6609 125.519 20.0229 125.791 20.4742V16.3844H127.089V26.8203H125.791V25.3677C125.538 25.8284 125.161 26.2092 124.663 26.5101C124.165 26.8015 123.582 26.9472 122.914 26.9472C122.228 26.9472 121.603 26.778 121.039 26.4395C120.484 26.1011 120.047 25.6263 119.727 25.0152C119.408 24.4041 119.248 23.7083 119.248 22.928ZM125.791 22.9421C125.791 22.3592 125.674 21.8515 125.439 21.419C125.204 20.9866 124.884 20.6575 124.48 20.4319C124.085 20.1968 123.648 20.0793 123.168 20.0793C122.689 20.0793 122.252 20.1921 121.857 20.4177C121.462 20.6434 121.147 20.9724 120.912 21.4049C120.677 21.8374 120.559 22.3451 120.559 22.928C120.559 23.5203 120.677 24.0374 120.912 24.4793C121.147 24.9118 121.462 25.2455 121.857 25.4806C122.252 25.7062 122.689 25.819 123.168 25.819C123.648 25.819 124.085 25.7062 124.48 25.4806C124.884 25.2455 125.204 24.9118 125.439 24.4793C125.674 24.0374 125.791 23.525 125.791 22.9421ZM136.388 26.9472C135.664 26.9472 135.006 26.7827 134.413 26.4536C133.831 26.1246 133.37 25.6592 133.031 25.0575C132.702 24.4464 132.538 23.7413 132.538 22.9421C132.538 22.1524 132.707 21.4566 133.045 20.8549C133.393 20.2438 133.863 19.7784 134.456 19.4588C135.048 19.1297 135.711 18.9652 136.444 18.9652C137.178 18.9652 137.84 19.1297 138.433 19.4588C139.025 19.7784 139.49 20.2391 139.829 20.8408C140.177 21.4425 140.351 22.143 140.351 22.9421C140.351 23.7413 140.172 24.4464 139.815 25.0575C139.467 25.6592 138.992 26.1246 138.39 26.4536C137.789 26.7827 137.121 26.9472 136.388 26.9472ZM136.388 25.819C136.848 25.819 137.281 25.7109 137.685 25.4947C138.09 25.2784 138.414 24.9541 138.658 24.5216C138.912 24.0891 139.039 23.5626 139.039 22.9421C139.039 22.3216 138.917 21.7951 138.672 21.3626C138.428 20.9301 138.108 20.6105 137.713 20.4036C137.319 20.1874 136.891 20.0793 136.43 20.0793C135.96 20.0793 135.528 20.1874 135.133 20.4036C134.747 20.6105 134.437 20.9301 134.202 21.3626C133.967 21.7951 133.849 22.3216 133.849 22.9421C133.849 23.572 133.962 24.1032 134.188 24.5357C134.423 24.9682 134.733 25.2925 135.119 25.5088C135.504 25.7156 135.927 25.819 136.388 25.819ZM145.803 18.9511C146.744 18.9511 147.505 19.2378 148.088 19.8113C148.671 20.3754 148.962 21.1934 148.962 22.2652V26.8203H147.693V22.4485C147.693 21.6776 147.5 21.09 147.115 20.6857C146.729 20.272 146.203 20.0652 145.535 20.0652C144.858 20.0652 144.318 20.2767 143.914 20.6998C143.519 21.1229 143.321 21.7387 143.321 22.5472V26.8203H142.038V19.0921H143.321V20.1921C143.575 19.7972 143.918 19.4917 144.351 19.2754C144.793 19.0592 145.277 18.9511 145.803 18.9511ZM156.384 20.1498V24.7049C156.384 25.081 156.464 25.3489 156.624 25.5088C156.783 25.6592 157.061 25.7344 157.456 25.7344H158.4V26.8203H157.244C156.53 26.8203 155.994 26.6558 155.636 26.3267C155.279 25.9977 155.1 25.4571 155.1 24.7049V20.1498H154.099V19.0921H155.1V17.146H156.384V19.0921H158.4V20.1498H156.384ZM163.791 18.9511C164.374 18.9511 164.901 19.078 165.371 19.3319C165.841 19.5763 166.208 19.9477 166.471 20.446C166.743 20.9442 166.88 21.5507 166.88 22.2652V26.8203H165.611V22.4485C165.611 21.6776 165.418 21.09 165.032 20.6857C164.647 20.272 164.12 20.0652 163.453 20.0652C162.776 20.0652 162.235 20.2767 161.831 20.6998C161.436 21.1229 161.239 21.7387 161.239 22.5472V26.8203H159.955V16.3844H161.239V20.1921C161.493 19.7972 161.84 19.4917 162.282 19.2754C162.734 19.0592 163.237 18.9511 163.791 18.9511ZM176.027 22.6601C176.027 22.9045 176.013 23.163 175.985 23.4357H169.808C169.855 24.1972 170.114 24.7942 170.584 25.2267C171.063 25.6498 171.641 25.8613 172.318 25.8613C172.873 25.8613 173.334 25.7344 173.7 25.4806C174.077 25.2173 174.34 24.8695 174.49 24.437H175.872C175.665 25.1797 175.252 25.7861 174.631 26.2562C174.011 26.7169 173.24 26.9472 172.318 26.9472C171.585 26.9472 170.927 26.7827 170.344 26.4536C169.771 26.1246 169.319 25.6592 168.99 25.0575C168.661 24.4464 168.497 23.7413 168.497 22.9421C168.497 22.143 168.656 21.4425 168.976 20.8408C169.296 20.2391 169.742 19.7784 170.316 19.4588C170.899 19.1297 171.566 18.9652 172.318 18.9652C173.052 18.9652 173.7 19.125 174.265 19.4447C174.829 19.7643 175.261 20.2062 175.562 20.7703C175.872 21.325 176.027 21.9549 176.027 22.6601ZM174.702 22.3921C174.702 21.9032 174.594 21.4848 174.377 21.137C174.161 20.7797 173.865 20.5118 173.489 20.3331C173.122 20.1451 172.713 20.0511 172.262 20.0511C171.613 20.0511 171.059 20.2579 170.598 20.6716C170.147 21.0853 169.888 21.6588 169.822 22.3921H174.702Z" fill="#B3B3B3"/>
<path d="M67.1724 50.9075H61.2032L60.1775 53.8203H57.7365L62.8442 39.5434H65.5519L70.6596 53.8203H68.198L67.1724 50.9075ZM66.516 48.9998L64.198 42.3742L61.8596 48.9998H66.516ZM75.2189 44.1793C75.6155 43.6596 76.1556 43.222 76.8394 42.8665C77.5231 42.5109 78.2958 42.3331 79.1573 42.3331C80.1419 42.3331 81.0377 42.5793 81.8445 43.0716C82.665 43.5502 83.3078 44.2271 83.7727 45.1024C84.2377 45.9776 84.4702 46.9827 84.4702 48.1177C84.4702 49.2528 84.2377 50.2716 83.7727 51.1742C83.3078 52.063 82.665 52.7605 81.8445 53.2665C81.0377 53.7588 80.1419 54.0049 79.1573 54.0049C78.2958 54.0049 77.53 53.834 76.8599 53.4921C76.1898 53.1366 75.6428 52.6989 75.2189 52.1793V59.1947H72.8804V42.5177H75.2189V44.1793ZM82.0907 48.1177C82.0907 47.3383 81.9266 46.6682 81.5984 46.1075C81.2838 45.5331 80.8599 45.1024 80.3266 44.8152C79.8069 44.5143 79.2462 44.3639 78.6445 44.3639C78.0565 44.3639 77.4958 44.5143 76.9625 44.8152C76.4428 45.116 76.0189 45.5536 75.6907 46.128C75.3761 46.7024 75.2189 47.3793 75.2189 48.1588C75.2189 48.9383 75.3761 49.622 75.6907 50.2101C76.0189 50.7844 76.4428 51.222 76.9625 51.5229C77.4958 51.8237 78.0565 51.9742 78.6445 51.9742C79.2462 51.9742 79.8069 51.8237 80.3266 51.5229C80.8599 51.2083 81.2838 50.7571 81.5984 50.169C81.9266 49.581 82.0907 48.8972 82.0907 48.1177ZM89.1211 44.1793C89.5177 43.6596 90.0579 43.222 90.7416 42.8665C91.4254 42.5109 92.198 42.3331 93.0596 42.3331C94.0442 42.3331 94.9399 42.5793 95.7468 43.0716C96.5673 43.5502 97.21 44.2271 97.675 45.1024C98.1399 45.9776 98.3724 46.9827 98.3724 48.1177C98.3724 49.2528 98.1399 50.2716 97.675 51.1742C97.21 52.063 96.5673 52.7605 95.7468 53.2665C94.9399 53.7588 94.0442 54.0049 93.0596 54.0049C92.198 54.0049 91.4322 53.834 90.7621 53.4921C90.0921 53.1366 89.545 52.6989 89.1211 52.1793V59.1947H86.7827V42.5177H89.1211V44.1793ZM95.9929 48.1177C95.9929 47.3383 95.8288 46.6682 95.5006 46.1075C95.1861 45.5331 94.7621 45.1024 94.2288 44.8152C93.7091 44.5143 93.1485 44.3639 92.5468 44.3639C91.9587 44.3639 91.398 44.5143 90.8647 44.8152C90.345 45.116 89.9211 45.5536 89.5929 46.128C89.2784 46.7024 89.1211 47.3793 89.1211 48.1588C89.1211 48.9383 89.2784 49.622 89.5929 50.2101C89.9211 50.7844 90.345 51.222 90.8647 51.5229C91.398 51.8237 91.9587 51.9742 92.5468 51.9742C93.1485 51.9742 93.7091 51.8237 94.2288 51.5229C94.7621 51.2083 95.1861 50.7571 95.5006 50.169C95.8288 49.581 95.9929 48.8972 95.9929 48.1177ZM110.711 53.9639C109.754 53.9639 108.892 53.7998 108.126 53.4716C107.36 53.1297 106.759 52.6511 106.321 52.0357C105.884 51.4203 105.665 50.7024 105.665 49.8819H108.167C108.222 50.4972 108.461 51.0032 108.885 51.3998C109.323 51.7964 109.931 51.9947 110.711 51.9947C111.518 51.9947 112.147 51.8032 112.598 51.4203C113.049 51.0237 113.275 50.5177 113.275 49.9024C113.275 49.4237 113.131 49.034 112.844 48.7331C112.571 48.4323 112.222 48.1998 111.798 48.0357C111.388 47.8716 110.813 47.6938 110.075 47.5024C109.145 47.2562 108.386 47.0101 107.798 46.7639C107.224 46.5041 106.731 46.1075 106.321 45.5742C105.911 45.0408 105.706 44.3297 105.706 43.4408C105.706 42.6203 105.911 41.9024 106.321 41.287C106.731 40.6716 107.306 40.1998 108.044 39.8716C108.783 39.5434 109.637 39.3793 110.608 39.3793C111.989 39.3793 113.118 39.728 113.993 40.4254C114.882 41.1092 115.374 42.0528 115.47 43.2562H112.885C112.844 42.7366 112.598 42.2921 112.147 41.9229C111.695 41.5536 111.101 41.369 110.362 41.369C109.692 41.369 109.145 41.54 108.721 41.8819C108.297 42.2237 108.085 42.716 108.085 43.3588C108.085 43.7964 108.215 44.1588 108.475 44.446C108.748 44.7195 109.09 44.9383 109.501 45.1024C109.911 45.2665 110.472 45.4442 111.183 45.6357C112.126 45.8955 112.892 46.1554 113.48 46.4152C114.082 46.675 114.588 47.0784 114.998 47.6254C115.422 48.1588 115.634 48.8767 115.634 49.7793C115.634 50.5041 115.436 51.1878 115.039 51.8306C114.656 52.4733 114.089 52.993 113.336 53.3895C112.598 53.7724 111.723 53.9639 110.711 53.9639ZM121.121 44.4254V50.6819C121.121 51.1058 121.217 51.4135 121.409 51.6049C121.614 51.7827 121.956 51.8716 122.434 51.8716H123.87V53.8203H122.024C120.971 53.8203 120.164 53.5742 119.603 53.0819C119.043 52.5895 118.762 51.7895 118.762 50.6819V44.4254H117.429V42.5177H118.762V39.7075H121.121V42.5177H123.87V44.4254H121.121ZM130.928 54.0049C129.861 54.0049 128.897 53.7656 128.036 53.287C127.174 52.7947 126.497 52.1109 126.005 51.2357C125.513 50.3468 125.266 49.3212 125.266 48.1588C125.266 47.0101 125.519 45.9913 126.025 45.1024C126.531 44.2135 127.222 43.5297 128.097 43.0511C128.972 42.5724 129.95 42.3331 131.031 42.3331C132.111 42.3331 133.089 42.5724 133.964 43.0511C134.839 43.5297 135.53 44.2135 136.036 45.1024C136.542 45.9913 136.795 47.0101 136.795 48.1588C136.795 49.3075 136.535 50.3263 136.015 51.2152C135.496 52.1041 134.784 52.7947 133.882 53.287C132.993 53.7656 132.008 54.0049 130.928 54.0049ZM130.928 51.9742C131.53 51.9742 132.09 51.8306 132.61 51.5434C133.143 51.2562 133.574 50.8254 133.902 50.2511C134.231 49.6767 134.395 48.9793 134.395 48.1588C134.395 47.3383 134.237 46.6477 133.923 46.087C133.608 45.5126 133.191 45.0819 132.672 44.7947C132.152 44.5075 131.591 44.3639 130.99 44.3639C130.388 44.3639 129.827 44.5075 129.307 44.7947C128.802 45.0819 128.398 45.5126 128.097 46.087C127.796 46.6477 127.646 47.3383 127.646 48.1588C127.646 49.3759 127.954 50.3195 128.569 50.9895C129.198 51.646 129.984 51.9742 130.928 51.9742ZM141.445 44.1588C141.787 43.5844 142.238 43.14 142.799 42.8254C143.373 42.4972 144.05 42.3331 144.829 42.3331V44.7536H144.235C143.318 44.7536 142.621 44.9861 142.142 45.4511C141.677 45.916 141.445 46.7229 141.445 47.8716V53.8203H139.106V42.5177H141.445V44.1588ZM157.338 47.8921C157.338 48.316 157.311 48.6989 157.256 49.0408H148.62C148.688 49.9434 149.023 50.6682 149.625 51.2152C150.227 51.7622 150.965 52.0357 151.841 52.0357C153.099 52.0357 153.988 51.5092 154.507 50.4562H157.03C156.688 51.4955 156.066 52.3502 155.164 53.0203C154.275 53.6767 153.167 54.0049 151.841 54.0049C150.76 54.0049 149.789 53.7656 148.928 53.287C148.08 52.7947 147.41 52.1109 146.917 51.2357C146.439 50.3468 146.199 49.3212 146.199 48.1588C146.199 46.9964 146.432 45.9776 146.897 45.1024C147.376 44.2135 148.039 43.5297 148.887 43.0511C149.748 42.5724 150.733 42.3331 151.841 42.3331C152.907 42.3331 153.858 42.5656 154.692 43.0306C155.526 43.4955 156.176 44.1519 156.641 44.9998C157.105 45.834 157.338 46.7981 157.338 47.8921ZM154.897 47.1536C154.883 46.2921 154.576 45.6015 153.974 45.0819C153.372 44.5622 152.627 44.3024 151.738 44.3024C150.931 44.3024 150.241 44.5622 149.666 45.0819C149.092 45.5878 148.75 46.2784 148.641 47.1536H154.897Z" fill="#242C07"/>
<defs>
<clipPath id="clip0_1712_32109">
<rect width="35.8974" height="35.8974" fill="white" transform="translate(13.4492 19.5703)"/>
</clipPath>
</defs>
</svg>
