<svg width="48" height="49" viewBox="0 0 48 49" fill="none" xmlns="http://www.w3.org/2000/svg">
<rect y="0.776367" width="48" height="48" rx="24" fill="#F8FFDE"/>
<path d="M24.0002 17.1367C19.7813 17.1367 16.3613 20.5566 16.3613 24.7756C16.3613 28.5882 19.1549 31.7484 22.807 32.3221V26.9832H20.8667V24.7756H22.807V23.0928C22.807 21.1785 23.9467 20.1212 25.6922 20.1212C26.5279 20.1212 27.4018 20.2702 27.4018 20.2702V22.1494H26.4393C25.4898 22.1494 25.1942 22.7383 25.1942 23.3426V24.7756H27.3124L26.974 26.9832H25.1942V32.3221C28.8456 31.7492 31.6391 28.5874 31.6391 24.7756C31.6391 20.5566 28.2192 17.1367 24.0002 17.1367Z" fill="#242C07"/>
</svg>
