<svg width="235" height="189" viewBox="0 0 235 189" fill="none" xmlns="http://www.w3.org/2000/svg">
<rect x="0.554688" y="0.109375" width="234.025" height="188.789" rx="18.9011" fill="#D5FF3C"/>
<path d="M134.794 59.7217H100.339C90.8293 59.7217 83.1113 67.4784 83.1113 77.0438V97.8442V101.323C83.1113 110.888 90.8293 118.645 100.339 118.645H105.507C106.437 118.645 107.678 119.271 108.264 120.036L113.432 126.958C115.706 130.019 119.427 130.019 121.701 126.958L126.869 120.036C127.524 119.166 128.558 118.645 129.626 118.645H134.794C144.304 118.645 152.022 110.888 152.022 101.323V77.0438C152.022 67.4784 144.304 59.7217 134.794 59.7217ZM130.177 103.305C129.66 103.827 129.006 104.07 128.351 104.07C127.696 104.07 127.042 103.827 126.525 103.305L123.975 100.731C121.977 102.053 119.565 102.853 116.981 102.853C109.952 102.853 104.232 97.0789 104.232 89.9832C104.232 82.8874 109.917 77.1133 116.981 77.1133C124.044 77.1133 129.729 82.8874 129.729 89.9832C129.729 92.5919 128.937 95.0267 127.627 97.0442L130.177 99.6181C131.176 100.627 131.176 102.296 130.177 103.305Z" fill="#242C07"/>
</svg>
