<svg width="48" height="49" viewBox="0 0 48 49" fill="none" xmlns="http://www.w3.org/2000/svg">
<rect y="0.776367" width="48" height="48" rx="24" fill="#F8FFDE"/>
<path d="M24.0002 17.1367C26.0757 17.1367 26.3347 17.1444 27.149 17.1826C27.9625 17.2207 28.5163 17.3483 29.0037 17.5378C29.5079 17.7318 29.9326 17.9946 30.3573 18.4185C30.7457 18.8004 31.0463 19.2623 31.2381 19.7721C31.4267 20.2587 31.5551 20.8133 31.5933 21.6269C31.6292 22.4412 31.6391 22.7001 31.6391 24.7756C31.6391 26.8511 31.6315 27.1101 31.5933 27.9244C31.5551 28.7379 31.4267 29.2917 31.2381 29.7791C31.0468 30.2892 30.7462 30.7512 30.3573 31.1327C29.9753 31.521 29.5134 31.8215 29.0037 32.0135C28.5171 32.2021 27.9625 32.3305 27.149 32.3687C26.3347 32.4046 26.0757 32.4145 24.0002 32.4145C21.9247 32.4145 21.6658 32.4069 20.8515 32.3687C20.0379 32.3305 19.4841 32.2021 18.9967 32.0135C18.4867 31.8221 18.0247 31.5215 17.6431 31.1327C17.2546 30.7509 16.9541 30.289 16.7624 29.7791C16.5729 29.2925 16.4454 28.7379 16.4072 27.9244C16.3713 27.1101 16.3613 26.8511 16.3613 24.7756C16.3613 22.7001 16.369 22.4412 16.4072 21.6269C16.4454 20.8126 16.5729 20.2595 16.7624 19.7721C16.9535 19.262 17.2542 18.7999 17.6431 18.4185C18.0248 18.0299 18.4868 17.7293 18.9967 17.5378C19.4841 17.3483 20.0372 17.2207 20.8515 17.1826C21.6658 17.1466 21.9247 17.1367 24.0002 17.1367ZM24.0002 20.9562C22.9872 20.9562 22.0157 21.3586 21.2995 22.0749C20.5832 22.7911 20.1808 23.7626 20.1808 24.7756C20.1808 25.7886 20.5832 26.7601 21.2995 27.4764C22.0157 28.1926 22.9872 28.5951 24.0002 28.5951C25.0132 28.5951 25.9847 28.1926 26.701 27.4764C27.4173 26.7601 27.8197 25.7886 27.8197 24.7756C27.8197 23.7626 27.4173 22.7911 26.701 22.0749C25.9847 21.3586 25.0132 20.9562 24.0002 20.9562V20.9562ZM28.9655 20.7652C28.9655 20.5119 28.8649 20.2691 28.6858 20.09C28.5068 19.9109 28.2639 19.8103 28.0106 19.8103C27.7574 19.8103 27.5145 19.9109 27.3354 20.09C27.1564 20.2691 27.0558 20.5119 27.0558 20.7652C27.0558 21.0184 27.1564 21.2613 27.3354 21.4404C27.5145 21.6195 27.7574 21.7201 28.0106 21.7201C28.2639 21.7201 28.5068 21.6195 28.6858 21.4404C28.8649 21.2613 28.9655 21.0184 28.9655 20.7652ZM24.0002 22.4839C24.608 22.4839 25.1909 22.7254 25.6207 23.1552C26.0504 23.5849 26.2919 24.1678 26.2919 24.7756C26.2919 25.3834 26.0504 25.9663 25.6207 26.3961C25.1909 26.8258 24.608 27.0673 24.0002 27.0673C23.3924 27.0673 22.8095 26.8258 22.3798 26.3961C21.95 25.9663 21.7086 25.3834 21.7086 24.7756C21.7086 24.1678 21.95 23.5849 22.3798 23.1552C22.8095 22.7254 23.3924 22.4839 24.0002 22.4839V22.4839Z" fill="#242C07"/>
</svg>
