<svg width="275" height="415" viewBox="0 0 275 415" fill="none" xmlns="http://www.w3.org/2000/svg">
<g opacity="0.25">
<path d="M-140.809 276.665H-71.6419V345.831H-140.809V276.665Z" fill="#CAE068"/>
<path d="M-140.809 138.331H-71.6419V207.498H-140.809V138.331Z" fill="#CAE068"/>
<path d="M-140.809 -0.00194647H-71.6419V69.1647H-140.809V-0.00194647Z" fill="#CAE068"/>
<path d="M-2.47526 345.831V414.998H-71.6419V345.831H-2.47526Z" fill="#CAE068"/>
<path d="M135.858 345.831V414.998H66.6914V345.831H135.858Z" fill="#CAE068"/>
<path d="M274.191 345.831V414.998H205.025V345.831H274.191Z" fill="#CAE068"/>
<path d="M66.6914 -0.0019501V69.1647H-2.47526V-0.00195312L66.6914 -0.0019501Z" fill="#CAE068"/>
<path d="M66.6914 138.331V207.498L-2.47526 207.498V138.331H66.6914Z" fill="#CAE068"/>
<path d="M66.6914 276.665V345.831H-2.47526V276.665H66.6914Z" fill="#CAE068"/>
<path d="M205.025 -0.0019501V69.1647H135.858V-0.00195312L205.025 -0.0019501Z" fill="#CAE068"/>
<path d="M205.025 138.331V207.498L135.858 207.498V138.331H205.025Z" fill="#CAE068"/>
<path d="M205.025 276.665V345.831H135.858V276.665H205.025Z" fill="#CAE068"/>
<path d="M-2.47526 69.1647V138.331H-71.6419V69.1647H-2.47526Z" fill="#CAE068"/>
<path d="M-2.47526 207.498V276.665H-71.6419V207.498H-2.47526Z" fill="#CAE068"/>
<path d="M135.858 69.1647V138.331H66.6914V69.1647H135.858Z" fill="#CAE068"/>
<path d="M135.858 207.498V276.665H66.6914V207.498L135.858 207.498Z" fill="#CAE068"/>
<path d="M205.025 207.498L274.191 207.498V276.665H205.025V207.498Z" fill="#CAE068"/>
<path d="M205.025 69.1647H274.191V138.331H205.025V69.1647Z" fill="#CAE068"/>
</g>
</svg>
