<svg width="1238" height="389" viewBox="0 0 1238 389" fill="none" xmlns="http://www.w3.org/2000/svg">
<path d="M824.871 216.006C812.367 220.632 800.47 221.907 789.18 219.828C777.845 217.625 767.7 212.493 758.747 204.432C749.872 196.2 742.959 185.394 738.009 172.014C733.012 158.509 731.243 145.657 732.701 133.46C734.238 121.092 738.858 110.141 746.563 100.609C754.392 91.0301 765.184 83.6961 778.94 78.6067C794.446 72.8696 808.651 71.8787 821.556 75.634C834.54 79.2179 844.961 87.0198 852.82 99.0395L823.559 109.866C819.601 104.933 814.543 101.828 808.385 100.553C802.351 99.2311 795.458 100.004 787.705 102.873C779.201 106.019 772.682 110.493 768.146 116.294C763.611 122.095 761.092 128.927 760.589 136.79C760.04 144.528 761.477 153.023 764.901 162.277C768.325 171.531 772.74 178.854 778.147 184.246C783.679 189.591 789.884 192.912 796.76 194.206C803.762 195.454 811.139 194.644 818.892 191.775C830.146 187.611 837.539 181.464 841.07 173.333C844.681 165.031 845.313 155.983 842.969 146.188L811.269 157.916L804.051 138.409L862.199 116.895L889.126 189.673L864.93 198.625L856.898 183.258C855.581 188.152 853.618 192.646 851.01 196.738C848.401 200.831 844.913 204.468 840.545 207.648C836.348 210.906 831.124 213.692 824.871 216.006Z" fill="#242C07"/>
<path d="M823.54 350.056L838.174 210.823L890.883 216.363C902.155 217.547 911.235 220.446 918.124 225.058C925.145 229.684 930.105 235.433 933.002 242.307C936.046 249.063 937.15 256.418 936.314 264.374C935.533 271.8 933.011 278.574 928.748 284.695C924.618 290.83 918.63 295.496 910.786 298.694C902.957 301.759 893.273 302.685 881.737 301.473L857.073 298.88L851.386 352.982L823.54 350.056ZM895.543 357.624L873.518 293.57L903.751 296.748L927.368 360.968L895.543 357.624ZM859.205 278.592L882.477 281.038C890.301 281.86 896.271 280.544 900.388 277.089C904.638 273.647 907.097 268.744 907.766 262.379C908.421 256.147 907.087 250.979 903.764 246.876C900.442 242.773 894.736 240.296 886.647 239.446L863.574 237.021L859.205 278.592Z" fill="#242C07"/>
<path d="M214.128 232.495C201.122 236.471 188.75 237.047 177.011 234.222C165.273 231.398 154.955 225.698 146.06 217.125C137.253 208.384 130.764 197.192 126.593 183.549C122.422 169.906 121.562 157.062 124.015 145.019C126.556 132.809 131.903 122.251 140.056 113.345C148.208 104.439 158.787 97.9983 171.793 94.022C184.926 90.0068 197.362 89.4115 209.101 92.2362C220.967 95.0219 231.24 100.804 239.919 109.584C248.687 118.197 255.157 129.325 259.328 142.968C263.499 156.611 264.378 169.518 261.964 181.689C259.639 193.693 254.336 204.168 246.056 213.113C237.904 222.019 227.261 228.48 214.128 232.495ZM206.76 208.396C214.793 205.94 221.177 201.967 225.912 196.476C230.647 190.985 233.595 184.437 234.755 176.832C235.877 169.1 235.015 160.579 232.169 151.271C229.323 141.963 225.293 134.481 220.078 128.825C214.824 123.042 208.699 119.198 201.704 117.294C194.708 115.389 187.193 115.665 179.16 118.121C171.255 120.538 164.935 124.492 160.2 129.983C155.593 135.435 152.664 142.046 151.415 149.818C150.255 157.423 151.097 165.879 153.943 175.187C156.789 184.495 160.839 192.041 166.092 197.824C171.435 203.441 177.54 207.221 184.408 209.165C191.404 211.069 198.855 210.813 206.76 208.396Z" fill="#242C07"/>
<path d="M1017.38 375.379C1004.02 377.933 991.658 377.174 980.291 373.103C968.924 369.031 959.28 362.255 951.359 352.774C943.544 343.137 938.296 331.312 935.617 317.299C932.939 303.286 933.466 290.425 937.201 278.715C941.041 266.85 947.493 256.928 956.556 248.951C965.619 240.974 976.83 235.709 990.188 233.155C1003.68 230.576 1016.1 231.322 1027.47 235.394C1038.97 239.44 1048.56 246.294 1056.24 255.957C1064.03 265.463 1069.27 277.222 1071.95 291.235C1074.63 305.248 1074.11 318.175 1070.4 330.015C1066.8 341.7 1060.4 351.543 1051.21 359.545C1042.14 367.522 1030.87 372.8 1017.38 375.379ZM1012.65 350.627C1020.9 349.05 1027.67 345.787 1032.97 340.837C1038.27 335.887 1041.9 329.695 1043.87 322.259C1045.82 314.692 1045.88 306.128 1044.05 296.568C1042.23 287.008 1039.02 279.136 1034.45 272.952C1029.85 266.637 1024.17 262.156 1017.42 259.51C1010.67 256.864 1003.17 256.329 994.92 257.907C986.8 259.459 980.091 262.71 974.793 267.659C969.626 272.584 966.003 278.842 963.925 286.434C961.953 293.87 961.881 302.368 963.709 311.928C965.536 321.489 968.751 329.426 973.352 335.741C978.059 341.9 983.722 346.315 990.341 348.987C997.091 351.633 1004.53 352.18 1012.65 350.627Z" fill="#242C07"/>
<path d="M341.954 383.95L322.469 245.312L355.742 240.636L409.528 320.124L438.727 228.973L471.802 224.325L491.286 362.963L463.559 366.859L450.671 275.161L424.983 352.488L402.999 355.578L356.794 288.354L369.681 380.053L341.954 383.95Z" fill="#242C07"/>
<path d="M198.517 362.996L249.517 222.996H281.317L332.317 362.996H302.717L265.317 254.796L227.717 362.996H198.517ZM220.917 331.596L228.317 309.796H300.317L307.517 331.596H220.917Z" fill="#D5FF3C"/>
<path d="M107.887 381.296L40.0138 258.849L86.3686 233.154C96.281 227.66 105.381 224.826 113.67 224.653C122.075 224.415 129.436 226.28 135.752 230.249C142.12 234.036 147.243 239.429 151.121 246.426C154.741 252.956 156.561 259.951 156.579 267.411C156.715 274.806 154.487 282.062 149.896 289.181C145.24 296.182 137.839 302.495 127.693 308.119L106.003 320.142L132.376 367.721L107.887 381.296ZM171.21 346.196L116.428 306.36L143.017 291.622L199.197 330.682L171.21 346.196ZM96.1127 302.3L116.579 290.955C123.459 287.142 127.595 282.639 128.985 277.447C130.493 272.19 129.695 266.763 126.592 261.166C123.554 255.685 119.497 252.217 114.422 250.761C109.347 249.306 103.252 250.55 96.1389 254.493L75.8477 265.741L96.1127 302.3Z" fill="#D5FF3C"/>
<path d="M710.806 354.184C697.919 348.714 687.984 341.238 681.001 331.755C674.069 322.15 670.198 311.309 669.385 299.231C668.625 287.031 671.032 274.365 676.607 261.232C682.181 248.1 689.621 237.569 698.925 229.641C708.229 221.713 718.743 216.906 730.467 215.219C742.191 213.533 754.497 215.425 767.384 220.895C782.971 227.512 794.13 236.883 800.86 249.01C807.59 261.137 809.161 274.84 805.572 290.119L777.22 278.085C778.665 270.587 777.653 263.928 774.184 258.11C770.889 252.222 765.192 247.558 757.091 244.12C749.605 240.942 742.406 239.986 735.495 241.253C728.758 242.45 722.598 245.701 717.014 251.008C711.43 256.315 706.736 263.448 702.933 272.407C699.13 281.367 697.26 289.698 697.321 297.401C697.435 304.982 699.375 311.672 703.142 317.471C707.084 323.2 712.798 327.653 720.285 330.831C728.385 334.27 735.619 335.313 741.987 333.96C748.408 332.485 753.744 328.956 757.996 323.374L786.348 335.408C778.215 347.744 767.475 355.642 754.128 359.103C740.834 362.44 726.394 360.801 710.806 354.184Z" fill="#D5FF3C"/>
</svg>
