<svg width="264" height="62" viewBox="0 0 264 62" fill="none" xmlns="http://www.w3.org/2000/svg">
<path d="M68.1813 61.3929C65.6371 61.3929 63.3367 60.9054 61.28 59.9228C59.2234 58.9401 57.4485 57.6147 55.9479 55.9313C54.4473 54.2555 53.2895 52.3588 52.4744 50.2564C51.6594 48.154 51.248 45.9907 51.248 43.7741C51.248 41.5575 51.6822 39.2494 52.543 37.147C53.4037 35.0447 54.5997 33.1708 56.1155 31.5179C57.6313 29.8725 59.4366 28.5623 61.5238 27.6026C63.6109 26.6428 65.8809 26.1553 68.326 26.1553C70.7712 26.1553 73.1326 26.658 75.2045 27.6711C77.2764 28.6842 79.0436 30.0401 80.5137 31.7311C81.9839 33.4298 83.1188 35.3189 83.9187 37.406C84.7185 39.4932 85.1146 41.6489 85.1146 43.8655C85.1146 46.0821 84.6956 48.3445 83.8653 50.4468C83.035 52.5492 81.862 54.4307 80.3385 56.076C78.8227 57.7214 77.025 59.0239 74.9531 59.9685C72.8812 60.913 70.6188 61.3853 68.1737 61.3853L68.1813 61.3929ZM58.096 43.7741C58.096 45.2747 58.3245 46.7296 58.7816 48.1312C59.2386 49.5328 59.9013 50.782 60.7621 51.8713C61.6228 52.9682 62.6892 53.8289 63.9461 54.4688C65.2029 55.1086 66.6274 55.4209 68.227 55.4209C69.8266 55.4209 71.3425 55.0858 72.5841 54.4155C73.8257 53.7451 74.8769 52.8615 75.7377 51.7494C76.5984 50.6449 77.2459 49.3804 77.6725 47.9788C78.099 46.5773 78.3123 45.1757 78.3123 43.7741C78.3123 42.2735 78.0838 40.8338 77.6268 39.4398C77.1697 38.0535 76.4994 36.8119 75.6234 35.7226C74.7398 34.6333 73.681 33.765 72.4394 33.1251C71.1978 32.4852 69.7809 32.1729 68.1813 32.1729C66.5817 32.1729 65.1496 32.5081 63.9004 33.1784C62.6435 33.8487 61.5847 34.7247 60.7164 35.8216C59.848 36.9185 59.2005 38.1525 58.7587 39.5389C58.3169 40.9252 58.096 42.3344 58.096 43.7741Z" fill="#242C07"/>
<path d="M105.187 61.3929C102.643 61.3929 100.343 60.9054 98.2859 59.9228C96.2292 58.9402 94.4468 57.6147 92.9538 55.9313C91.4532 54.2555 90.2953 52.3588 89.4803 50.2564C88.6652 48.154 88.2539 45.9907 88.2539 43.7741C88.2539 41.5575 88.6881 39.2494 89.5488 37.147C90.4096 35.0447 91.6055 33.1708 93.1214 31.5179C94.6372 29.8725 96.4425 28.5623 98.5297 27.6026C100.617 26.6428 102.887 26.1553 105.332 26.1553C107.777 26.1553 110.138 26.658 112.21 27.6711C114.282 28.6842 116.049 30.0401 117.52 31.7311C118.99 33.4298 120.125 35.3189 120.925 37.406C121.724 39.4932 122.12 41.6489 122.12 43.8655C122.12 46.0821 121.701 48.3445 120.871 50.4469C120.041 52.5492 118.868 54.4307 117.344 56.076C115.829 57.7214 114.031 59.0239 111.959 59.9685C109.887 60.913 107.625 61.3853 105.18 61.3853L105.187 61.3929ZM95.1019 43.7741C95.1019 45.2747 95.3304 46.7296 95.7874 48.1312C96.2445 49.5328 96.9072 50.782 97.7679 51.8713C98.6287 52.9682 99.6951 53.8289 100.952 54.4688C102.209 55.1086 103.633 55.4209 105.233 55.4209C106.833 55.4209 108.348 55.0858 109.59 54.4155C110.832 53.7451 111.883 52.8615 112.744 51.7494C113.604 50.6449 114.252 49.3804 114.678 47.9788C115.105 46.5773 115.318 45.1757 115.318 43.7741C115.318 42.2735 115.09 40.8338 114.633 39.4398C114.176 38.0535 113.505 36.8119 112.629 35.7226C111.746 34.6333 110.687 33.765 109.445 33.1251C108.204 32.4853 106.787 32.1729 105.187 32.1729C103.588 32.1729 102.155 32.5081 100.906 33.1784C99.6494 33.8487 98.5906 34.7247 97.7222 35.8216C96.8538 36.9185 96.2064 38.1525 95.7646 39.5389C95.3228 40.9252 95.1019 42.3344 95.1019 43.7741Z" fill="#242C07"/>
<path d="M155.749 60.2365V38.3443L147.165 54.6149C146.936 55.0491 146.479 55.3233 145.991 55.3233H143.828C143.333 55.3233 142.884 55.0491 142.655 54.6149L134.116 38.3443V60.2365C134.116 60.7392 133.705 61.1505 133.202 61.1505H127.367V26.4004H132.014C133.644 26.4004 135.129 27.3068 135.883 28.7541L144.354 45.0933C144.582 45.5274 145.207 45.5274 145.435 45.0933L153.997 28.7389C154.751 27.3068 156.237 26.408 157.852 26.408H162.46V61.1581H156.671C156.168 61.1581 155.757 60.7468 155.757 60.2441L155.749 60.2365Z" fill="#242C07"/>
<path d="M181.099 26.4004H184.039C185.212 26.4004 186.271 27.1317 186.675 28.2362L198.322 59.9165C198.542 60.5183 198.101 61.1505 197.461 61.1505H192.487C192.091 61.1505 191.74 60.8992 191.618 60.5259L188.937 52.4897H176.178L173.482 60.5259C173.36 60.8992 173.009 61.1505 172.613 61.1505H167.639C166.999 61.1505 166.557 60.5183 166.778 59.9165L178.471 28.2362C178.875 27.1317 179.926 26.4004 181.099 26.4004ZM187.353 47.7441L182.569 33.4007L177.762 47.7441H187.345H187.353Z" fill="#242C07"/>
<path d="M202.589 60.2357V28.6315C202.589 27.3975 203.587 26.4072 204.814 26.4072H217.999C219.568 26.4072 221.023 26.7348 222.379 27.3899C223.735 28.0449 224.908 28.9209 225.906 30.0331C226.904 31.1452 227.666 32.3792 228.206 33.7503C228.747 35.1214 229.014 36.523 229.014 37.9551C229.014 39.3871 228.762 40.8268 228.252 42.1598C227.749 43.5005 227.018 44.6811 226.074 45.7095C225.129 46.7378 224.017 47.53 222.745 48.0785L229.829 59.7558C230.202 60.3652 229.76 61.1498 229.044 61.1498H223.743C223.423 61.1498 223.126 60.9822 222.958 60.7156L216.08 49.5029H209.323V60.2357C209.323 60.7384 208.912 61.1498 208.409 61.1498H203.488C202.986 61.1498 202.574 60.7384 202.574 60.2357H202.589ZM209.346 43.5766H217.816C218.662 43.5766 219.416 43.3253 220.071 42.8149C220.726 42.3122 221.244 41.6342 221.64 40.7811C222.029 39.9356 222.227 38.9834 222.227 37.9398C222.227 36.8963 221.998 35.8984 221.541 35.0529C221.084 34.2073 220.513 33.537 219.827 33.0495C219.142 32.562 218.388 32.3183 217.58 32.3183H209.354V43.5766H209.346Z" fill="#242C07"/>
<path d="M232.838 43.4846C232.838 41.3289 233.219 39.2342 233.988 37.1927C234.757 35.1513 235.885 33.3003 237.362 31.6397C238.848 29.9792 240.645 28.6461 242.771 27.6483C244.888 26.6504 247.288 26.1553 249.969 26.1553C253.168 26.1553 255.933 26.8561 258.264 28.2576C260.138 29.385 261.623 30.7866 262.705 32.4624C263.147 33.1403 262.979 34.0468 262.317 34.5115L259.643 36.3701C258.957 36.85 258.013 36.6672 257.556 35.9664C257.099 35.2656 256.581 34.7019 255.987 34.2296C255.042 33.4831 254.021 32.9423 252.925 32.6147C251.828 32.2872 250.776 32.1272 249.771 32.1272C248.072 32.1272 246.595 32.47 245.345 33.1556C244.088 33.8411 243.045 34.74 242.215 35.8445C241.384 36.9566 240.752 38.1982 240.333 39.5617C239.907 40.9328 239.693 42.3192 239.693 43.7208C239.693 45.2214 239.937 46.6839 240.425 48.1007C240.912 49.5175 241.605 50.7744 242.504 51.8713C243.403 52.9682 244.477 53.8289 245.734 54.4688C246.991 55.1086 248.369 55.421 249.87 55.421C250.914 55.421 251.995 55.2381 253.1 54.8801C254.204 54.5221 255.233 53.9508 256.185 53.1662C256.802 52.6559 257.343 52.0389 257.807 51.3228C258.234 50.6601 259.117 50.4621 259.795 50.8658L262.766 52.6178C263.467 53.0291 263.711 53.9432 263.299 54.644C262.614 55.8094 261.692 56.8378 260.557 57.729C259.003 58.9401 257.274 59.8466 255.37 60.4712C253.458 61.0958 251.561 61.4005 249.664 61.4005C247.181 61.4005 244.919 60.8826 242.885 59.8618C240.843 58.8335 239.076 57.4624 237.576 55.7485C236.075 54.0346 234.91 52.115 234.079 49.9746C233.249 47.8341 232.83 45.6784 232.83 43.4923L232.838 43.4846Z" fill="#242C07"/>
<path d="M42.3057 50.5999C42.9074 50.1048 48.7271 45.1079 48.072 37.7953C47.4169 30.4827 40.6603 24.0917 32.9897 24.5335C27.5129 24.8459 22.5845 28.586 20.3755 34.0171C20.2383 34.3523 20.3374 34.7407 20.6116 34.9845C21.1905 35.5025 21.9294 36.0738 22.8435 36.5994C23.7042 37.1021 24.5269 37.4449 25.2353 37.6962C25.6542 37.841 26.1189 37.6353 26.2941 37.224C26.6445 36.4089 27.2767 35.2968 28.366 34.2913C28.9145 33.781 30.3922 32.4632 32.7231 32.1356C33.2715 32.0594 35.9224 31.6938 38.2076 33.5067C38.4818 33.7276 40.1728 35.1064 40.6451 37.4677C41.4373 41.4592 38.0019 44.8032 37.5068 45.2831C32.1213 50.5314 22.8358 47.9034 22.3255 47.7511C14.7615 45.4964 9.33798 38.3742 8.27918 30.8331C8.03542 29.1192 7.25084 22.7892 11.3566 17.0534C16.125 10.4035 25.1134 8.5296 30.9026 9.87024C37.1031 11.3099 40.7289 15.6137 42.0467 17.4114C42.2295 17.6627 42.5875 17.7161 42.8389 17.5256C44.8422 16.0403 46.8456 14.5549 48.8489 13.0771C49.0927 12.8943 49.1536 12.5439 48.9708 12.2925C47.4245 10.0911 44.5452 6.67097 39.891 4.08109C36.6155 2.26056 29.1506 -0.915858 20.086 1.43027C10.6177 3.89066 3.2289 11.5918 0.738046 20.9229C0.578082 21.5095 -2.68212 34.5884 5.9102 45.344C9.32275 49.6173 13.3142 51.8949 15.7213 53.0375C15.6984 55.635 15.6756 58.2401 15.6527 60.8376C15.6527 61.1499 15.9041 61.4013 16.224 61.4013H24.3441C24.6564 61.4013 24.9154 61.1499 24.9154 60.8376C24.9154 59.0171 24.9154 57.1965 24.9306 55.3836C26.4312 55.5207 28.3279 55.5588 30.4988 55.2694C32.3194 55.0256 33.8809 54.6143 35.1378 54.1877C36.2118 56.4805 37.2859 58.7809 38.3599 61.0737C38.4513 61.2718 38.657 61.4013 38.8703 61.4013H47.6226C48.0644 61.4013 48.3386 60.9214 48.1177 60.5481C46.1829 57.2346 44.2481 53.9211 42.3133 50.6076L42.3057 50.5999Z" fill="#AFDC27"/>
</svg>
