<svg width="193" height="76" viewBox="0 0 193 76" fill="none" xmlns="http://www.w3.org/2000/svg">
<rect x="0.0644531" width="192.308" height="75.0382" rx="10" fill="#242C07"/>
<g clip-path="url(#clip0_1712_32110)">
<path d="M32.1944 36.8614L18.9298 23.5599L35.8067 33.2491L32.1944 36.8614V36.8614ZM15.4667 22.7783C14.6852 23.1876 14.1621 23.9322 14.1621 24.9014V51.4245C14.1621 52.3937 14.6852 53.1383 15.4667 53.5476L30.8929 38.1599L15.4667 22.7783ZM41.0252 36.3383L37.4852 34.2891L33.536 38.166L37.4852 42.0429L41.0975 39.9937C42.179 39.1337 42.179 37.1983 41.0252 36.3383V36.3383ZM18.9298 52.7722L35.8067 43.0829L32.1944 39.4706L18.9298 52.7722V52.7722Z" fill="white"/>
</g>
<path d="M55.4919 16.9908C56.5637 16.9908 57.4897 17.193 58.2701 17.5972C59.0598 17.9921 59.6615 18.5609 60.0752 19.3036C60.4983 20.0464 60.7098 20.9207 60.7098 21.9267C60.7098 22.9327 60.4983 23.8071 60.0752 24.5498C59.6615 25.2831 59.0598 25.8472 58.2701 26.2421C57.4897 26.6276 56.5637 26.8203 55.4919 26.8203H52.4316V16.9908H55.4919ZM55.4919 25.7626C56.7611 25.7626 57.7295 25.4289 58.397 24.7613C59.0645 24.0844 59.3983 23.1395 59.3983 21.9267C59.3983 20.7045 59.0598 19.7502 58.3829 19.0639C57.7154 18.3776 56.7517 18.0344 55.4919 18.0344H53.7149V25.7626H55.4919ZM65.7731 26.9472C65.0491 26.9472 64.391 26.7827 63.7987 26.4536C63.2158 26.1246 62.7551 25.6592 62.4167 25.0575C62.0876 24.4464 61.9231 23.7413 61.9231 22.9421C61.9231 22.1524 62.0923 21.4566 62.4308 20.8549C62.7786 20.2438 63.2487 19.7784 63.841 19.4588C64.4333 19.1297 65.0961 18.9652 65.8295 18.9652C66.5628 18.9652 67.2256 19.1297 67.8179 19.4588C68.4102 19.7784 68.8756 20.2391 69.2141 20.8408C69.562 21.4425 69.7359 22.143 69.7359 22.9421C69.7359 23.7413 69.5573 24.4464 69.2 25.0575C68.8521 25.6592 68.3773 26.1246 67.7756 26.4536C67.1739 26.7827 66.5064 26.9472 65.7731 26.9472ZM65.7731 25.819C66.2338 25.819 66.6662 25.7109 67.0705 25.4947C67.4748 25.2784 67.7991 24.9541 68.0436 24.5216C68.2974 24.0891 68.4243 23.5626 68.4243 22.9421C68.4243 22.3216 68.3021 21.7951 68.0577 21.3626C67.8132 20.9301 67.4936 20.6105 67.0987 20.4036C66.7038 20.1874 66.2761 20.0793 65.8154 20.0793C65.3453 20.0793 64.9128 20.1874 64.5179 20.4036C64.1325 20.6105 63.8222 20.9301 63.5872 21.3626C63.3521 21.7951 63.2346 22.3216 63.2346 22.9421C63.2346 23.572 63.3474 24.1032 63.5731 24.5357C63.8081 24.9682 64.1184 25.2925 64.5038 25.5088C64.8893 25.7156 65.3124 25.819 65.7731 25.819ZM81.7181 19.0921L79.3066 26.8203H77.9809L76.1194 20.6857L74.2579 26.8203H72.9322L70.5066 19.0921H71.8181L73.595 25.5793L75.513 19.0921H76.8245L78.7002 25.5934L80.4489 19.0921H81.7181ZM86.7571 18.9511C87.6973 18.9511 88.4588 19.2378 89.0417 19.8113C89.6247 20.3754 89.9161 21.1934 89.9161 22.2652V26.8203H88.6469V22.4485C88.6469 21.6776 88.4541 21.09 88.0687 20.6857C87.6832 20.272 87.1567 20.0652 86.4892 20.0652C85.8123 20.0652 85.2717 20.2767 84.8674 20.6998C84.4725 21.1229 84.2751 21.7387 84.2751 22.5472V26.8203H82.9917V19.0921H84.2751V20.1921C84.5289 19.7972 84.8721 19.4917 85.3046 19.2754C85.7464 19.0592 86.2306 18.9511 86.7571 18.9511ZM93.2958 16.3844V26.8203H92.0124V16.3844H93.2958ZM98.8535 26.9472C98.1296 26.9472 97.4714 26.7827 96.8791 26.4536C96.2962 26.1246 95.8355 25.6592 95.4971 25.0575C95.168 24.4464 95.0035 23.7413 95.0035 22.9421C95.0035 22.1524 95.1727 21.4566 95.5112 20.8549C95.8591 20.2438 96.3291 19.7784 96.9214 19.4588C97.5138 19.1297 98.1766 18.9652 98.9099 18.9652C99.6432 18.9652 100.306 19.1297 100.898 19.4588C101.491 19.7784 101.956 20.2391 102.295 20.8408C102.642 21.4425 102.816 22.143 102.816 22.9421C102.816 23.7413 102.638 24.4464 102.28 25.0575C101.933 25.6592 101.458 26.1246 100.856 26.4536C100.254 26.7827 99.5868 26.9472 98.8535 26.9472ZM98.8535 25.819C99.3142 25.819 99.7467 25.7109 100.151 25.4947C100.555 25.2784 100.88 24.9541 101.124 24.5216C101.378 24.0891 101.505 23.5626 101.505 22.9421C101.505 22.3216 101.383 21.7951 101.138 21.3626C100.894 20.9301 100.574 20.6105 100.179 20.4036C99.7843 20.1874 99.3565 20.0793 98.8958 20.0793C98.4257 20.0793 97.9932 20.1874 97.5984 20.4036C97.2129 20.6105 96.9026 20.9301 96.6676 21.3626C96.4326 21.7951 96.315 22.3216 96.315 22.9421C96.315 23.572 96.4279 24.1032 96.6535 24.5357C96.8885 24.9682 97.1988 25.2925 97.5843 25.5088C97.9697 25.7156 98.3928 25.819 98.8535 25.819ZM104.024 22.928C104.024 22.1383 104.184 21.4472 104.504 20.8549C104.823 20.2532 105.261 19.7878 105.815 19.4588C106.379 19.1297 107.005 18.9652 107.691 18.9652C108.368 18.9652 108.955 19.1109 109.454 19.4024C109.952 19.6938 110.323 20.0605 110.568 20.5024V19.0921H111.865V26.8203H110.568V25.3819C110.314 25.8331 109.933 26.2092 109.425 26.5101C108.927 26.8015 108.344 26.9472 107.677 26.9472C106.99 26.9472 106.37 26.778 105.815 26.4395C105.261 26.1011 104.823 25.6263 104.504 25.0152C104.184 24.4041 104.024 23.7083 104.024 22.928ZM110.568 22.9421C110.568 22.3592 110.45 21.8515 110.215 21.419C109.98 20.9866 109.661 20.6575 109.256 20.4319C108.861 20.1968 108.424 20.0793 107.945 20.0793C107.465 20.0793 107.028 20.1921 106.633 20.4177C106.238 20.6434 105.923 20.9724 105.688 21.4049C105.453 21.8374 105.336 22.3451 105.336 22.928C105.336 23.5203 105.453 24.0374 105.688 24.4793C105.923 24.9118 106.238 25.2455 106.633 25.4806C107.028 25.7062 107.465 25.819 107.945 25.819C108.424 25.819 108.861 25.7062 109.256 25.4806C109.661 25.2455 109.98 24.9118 110.215 24.4793C110.45 24.0374 110.568 23.525 110.568 22.9421ZM113.554 22.928C113.554 22.1383 113.714 21.4472 114.034 20.8549C114.354 20.2532 114.791 19.7878 115.345 19.4588C115.91 19.1297 116.539 18.9652 117.235 18.9652C117.837 18.9652 118.396 19.1062 118.913 19.3883C119.43 19.6609 119.825 20.0229 120.098 20.4742V16.3844H121.395V26.8203H120.098V25.3677C119.844 25.8284 119.468 26.2092 118.97 26.5101C118.472 26.8015 117.889 26.9472 117.221 26.9472C116.535 26.9472 115.91 26.778 115.345 26.4395C114.791 26.1011 114.354 25.6263 114.034 25.0152C113.714 24.4041 113.554 23.7083 113.554 22.928ZM120.098 22.9421C120.098 22.3592 119.98 21.8515 119.745 21.419C119.51 20.9866 119.191 20.6575 118.786 20.4319C118.392 20.1968 117.954 20.0793 117.475 20.0793C116.995 20.0793 116.558 20.1921 116.163 20.4177C115.769 20.6434 115.454 20.9724 115.219 21.4049C114.983 21.8374 114.866 22.3451 114.866 22.928C114.866 23.5203 114.983 24.0374 115.219 24.4793C115.454 24.9118 115.769 25.2455 116.163 25.4806C116.558 25.7062 116.995 25.819 117.475 25.819C117.954 25.819 118.392 25.7062 118.786 25.4806C119.191 25.2455 119.51 24.9118 119.745 24.4793C119.98 24.0374 120.098 23.525 120.098 22.9421ZM130.694 26.9472C129.971 26.9472 129.312 26.7827 128.72 26.4536C128.137 26.1246 127.676 25.6592 127.338 25.0575C127.009 24.4464 126.844 23.7413 126.844 22.9421C126.844 22.1524 127.014 21.4566 127.352 20.8549C127.7 20.2438 128.17 19.7784 128.762 19.4588C129.355 19.1297 130.018 18.9652 130.751 18.9652C131.484 18.9652 132.147 19.1297 132.739 19.4588C133.332 19.7784 133.797 20.2391 134.135 20.8408C134.483 21.4425 134.657 22.143 134.657 22.9421C134.657 23.7413 134.479 24.4464 134.121 25.0575C133.774 25.6592 133.299 26.1246 132.697 26.4536C132.095 26.7827 131.428 26.9472 130.694 26.9472ZM130.694 25.819C131.155 25.819 131.588 25.7109 131.992 25.4947C132.396 25.2784 132.721 24.9541 132.965 24.5216C133.219 24.0891 133.346 23.5626 133.346 22.9421C133.346 22.3216 133.224 21.7951 132.979 21.3626C132.735 20.9301 132.415 20.6105 132.02 20.4036C131.625 20.1874 131.197 20.0793 130.737 20.0793C130.267 20.0793 129.834 20.1874 129.439 20.4036C129.054 20.6105 128.744 20.9301 128.509 21.3626C128.274 21.7951 128.156 22.3216 128.156 22.9421C128.156 23.572 128.269 24.1032 128.494 24.5357C128.729 24.9682 129.04 25.2925 129.425 25.5088C129.811 25.7156 130.234 25.819 130.694 25.819ZM140.11 18.9511C141.05 18.9511 141.812 19.2378 142.395 19.8113C142.978 20.3754 143.269 21.1934 143.269 22.2652V26.8203H142V22.4485C142 21.6776 141.807 21.09 141.422 20.6857C141.036 20.272 140.51 20.0652 139.842 20.0652C139.165 20.0652 138.625 20.2767 138.22 20.6998C137.825 21.1229 137.628 21.7387 137.628 22.5472V26.8203H136.345V19.0921H137.628V20.1921C137.882 19.7972 138.225 19.4917 138.657 19.2754C139.099 19.0592 139.583 18.9511 140.11 18.9511ZM150.69 20.1498V24.7049C150.69 25.081 150.77 25.3489 150.93 25.5088C151.09 25.6592 151.367 25.7344 151.762 25.7344H152.707V26.8203H151.551C150.836 26.8203 150.3 26.6558 149.943 26.3267C149.586 25.9977 149.407 25.4571 149.407 24.7049V20.1498H148.406V19.0921H149.407V17.146H150.69V19.0921H152.707V20.1498H150.69ZM158.098 18.9511C158.681 18.9511 159.207 19.078 159.677 19.3319C160.148 19.5763 160.514 19.9477 160.777 20.446C161.05 20.9442 161.186 21.5507 161.186 22.2652V26.8203H159.917V22.4485C159.917 21.6776 159.724 21.09 159.339 20.6857C158.953 20.272 158.427 20.0652 157.759 20.0652C157.083 20.0652 156.542 20.2767 156.138 20.6998C155.743 21.1229 155.545 21.7387 155.545 22.5472V26.8203H154.262V16.3844H155.545V20.1921C155.799 19.7972 156.147 19.4917 156.589 19.2754C157.04 19.0592 157.543 18.9511 158.098 18.9511ZM170.334 22.6601C170.334 22.9045 170.32 23.163 170.292 23.4357H164.115C164.162 24.1972 164.42 24.7942 164.89 25.2267C165.37 25.6498 165.948 25.8613 166.625 25.8613C167.18 25.8613 167.64 25.7344 168.007 25.4806C168.383 25.2173 168.646 24.8695 168.797 24.437H170.179C169.972 25.1797 169.558 25.7861 168.938 26.2562C168.317 26.7169 167.546 26.9472 166.625 26.9472C165.892 26.9472 165.234 26.7827 164.651 26.4536C164.077 26.1246 163.626 25.6592 163.297 25.0575C162.968 24.4464 162.803 23.7413 162.803 22.9421C162.803 22.143 162.963 21.4425 163.283 20.8408C163.602 20.2391 164.049 19.7784 164.622 19.4588C165.205 19.1297 165.873 18.9652 166.625 18.9652C167.358 18.9652 168.007 19.125 168.571 19.4447C169.135 19.7643 169.568 20.2062 169.869 20.7703C170.179 21.325 170.334 21.9549 170.334 22.6601ZM169.008 22.3921C169.008 21.9032 168.9 21.4848 168.684 21.137C168.468 20.7797 168.172 20.5118 167.796 20.3331C167.429 20.1451 167.02 20.0511 166.569 20.0511C165.92 20.0511 165.365 20.2579 164.905 20.6716C164.453 21.0853 164.195 21.6588 164.129 22.3921H169.008Z" fill="#B3B3B3"/>
<path d="M63.2021 43.6665C62.8329 42.9554 62.3201 42.422 61.6637 42.0665C61.0072 41.6972 60.2483 41.5126 59.3867 41.5126C58.4431 41.5126 57.6021 41.7246 56.8637 42.1485C56.1252 42.5724 55.544 43.1742 55.1201 43.9536C54.7098 44.7331 54.5047 45.6357 54.5047 46.6613C54.5047 47.687 54.7098 48.5964 55.1201 49.3895C55.544 50.169 56.1252 50.7707 56.8637 51.1947C57.6021 51.6186 58.4431 51.8306 59.3867 51.8306C60.6585 51.8306 61.691 51.475 62.4842 50.7639C63.2773 50.0528 63.7628 49.0887 63.9406 47.8716H58.5867V46.0049H66.4431V47.8306C66.2927 48.9383 65.8961 49.9571 65.2534 50.887C64.6243 51.8169 63.797 52.5622 62.7713 53.1229C61.7594 53.6699 60.6312 53.9434 59.3867 53.9434C58.0466 53.9434 56.8226 53.6357 55.7149 53.0203C54.6072 52.3913 53.7252 51.5229 53.0688 50.4152C52.426 49.3075 52.1047 48.0562 52.1047 46.6613C52.1047 45.2665 52.426 44.0152 53.0688 42.9075C53.7252 41.7998 54.6072 40.9383 55.7149 40.3229C56.8363 39.6938 58.0602 39.3793 59.3867 39.3793C60.9047 39.3793 62.2517 39.7554 63.4278 40.5075C64.6175 41.246 65.479 42.2989 66.0124 43.6665H63.2021ZM73.6521 54.0049C72.5854 54.0049 71.6213 53.7656 70.7598 53.287C69.8983 52.7947 69.2213 52.1109 68.729 51.2357C68.2367 50.3468 67.9906 49.3212 67.9906 48.1588C67.9906 47.0101 68.2436 45.9913 68.7495 45.1024C69.2555 44.2135 69.9461 43.5297 70.8213 43.0511C71.6966 42.5724 72.6743 42.3331 73.7547 42.3331C74.835 42.3331 75.8128 42.5724 76.688 43.0511C77.5632 43.5297 78.2538 44.2135 78.7598 45.1024C79.2658 45.9913 79.5188 47.0101 79.5188 48.1588C79.5188 49.3075 79.259 50.3263 78.7393 51.2152C78.2196 52.1041 77.5085 52.7947 76.606 53.287C75.7171 53.7656 74.7325 54.0049 73.6521 54.0049ZM73.6521 51.9742C74.2538 51.9742 74.8145 51.8306 75.3342 51.5434C75.8675 51.2562 76.2983 50.8254 76.6265 50.2511C76.9547 49.6767 77.1188 48.9793 77.1188 48.1588C77.1188 47.3383 76.9615 46.6477 76.647 46.087C76.3325 45.5126 75.9154 45.0819 75.3957 44.7947C74.876 44.5075 74.3154 44.3639 73.7137 44.3639C73.1119 44.3639 72.5513 44.5075 72.0316 44.7947C71.5256 45.0819 71.1222 45.5126 70.8213 46.087C70.5205 46.6477 70.3701 47.3383 70.3701 48.1588C70.3701 49.3759 70.6778 50.3195 71.2931 50.9895C71.9222 51.646 72.7085 51.9742 73.6521 51.9742ZM86.733 54.0049C85.6664 54.0049 84.7023 53.7656 83.8407 53.287C82.9792 52.7947 82.3023 52.1109 81.81 51.2357C81.3177 50.3468 81.0715 49.3212 81.0715 48.1588C81.0715 47.0101 81.3245 45.9913 81.8305 45.1024C82.3365 44.2135 83.0271 43.5297 83.9023 43.0511C84.7775 42.5724 85.7553 42.3331 86.8356 42.3331C87.916 42.3331 88.8937 42.5724 89.7689 43.0511C90.6442 43.5297 91.3348 44.2135 91.8407 45.1024C92.3467 45.9913 92.5997 47.0101 92.5997 48.1588C92.5997 49.3075 92.3399 50.3263 91.8202 51.2152C91.3006 52.1041 90.5895 52.7947 89.6869 53.287C88.798 53.7656 87.8134 54.0049 86.733 54.0049ZM86.733 51.9742C87.3348 51.9742 87.8954 51.8306 88.4151 51.5434C88.9484 51.2562 89.3792 50.8254 89.7074 50.2511C90.0356 49.6767 90.1997 48.9793 90.1997 48.1588C90.1997 47.3383 90.0424 46.6477 89.7279 46.087C89.4134 45.5126 88.9963 45.0819 88.4766 44.7947C87.957 44.5075 87.3963 44.3639 86.7946 44.3639C86.1929 44.3639 85.6322 44.5075 85.1125 44.7947C84.6065 45.0819 84.2031 45.5126 83.9023 46.087C83.6014 46.6477 83.451 47.3383 83.451 48.1588C83.451 49.3759 83.7587 50.3195 84.3741 50.9895C85.0031 51.646 85.7895 51.9742 86.733 51.9742ZM99.4653 42.3331C100.34 42.3331 101.113 42.5109 101.783 42.8665C102.467 43.2083 103 43.6391 103.383 44.1588V42.5177H105.742V54.0049C105.742 55.0442 105.523 55.9673 105.086 56.7742C104.648 57.5947 104.012 58.2374 103.178 58.7024C102.358 59.1673 101.373 59.3998 100.224 59.3998C98.6926 59.3998 97.4208 59.0374 96.4088 58.3126C95.3969 57.6015 94.8225 56.6306 94.6858 55.3998H97.0037C97.1815 55.9878 97.5576 56.4596 98.1319 56.8152C98.72 57.1844 99.4174 57.369 100.224 57.369C101.168 57.369 101.927 57.0819 102.501 56.5075C103.089 55.9331 103.383 55.0989 103.383 54.0049V52.1177C102.987 52.6511 102.446 53.1024 101.763 53.4716C101.093 53.8272 100.327 54.0049 99.4653 54.0049C98.4806 54.0049 97.5781 53.7588 96.7576 53.2665C95.9507 52.7605 95.308 52.063 94.8294 51.1742C94.3644 50.2716 94.1319 49.2528 94.1319 48.1177C94.1319 46.9827 94.3644 45.9776 94.8294 45.1024C95.308 44.2271 95.9507 43.5502 96.7576 43.0716C97.5781 42.5793 98.4806 42.3331 99.4653 42.3331ZM103.383 48.1588C103.383 47.3793 103.219 46.7024 102.891 46.128C102.576 45.5536 102.159 45.116 101.64 44.8152C101.12 44.5143 100.559 44.3639 99.9576 44.3639C99.3559 44.3639 98.7952 44.5143 98.2755 44.8152C97.7559 45.1024 97.3319 45.5331 97.0037 46.1075C96.6892 46.6682 96.5319 47.3383 96.5319 48.1177C96.5319 48.8972 96.6892 49.581 97.0037 50.169C97.3319 50.7571 97.7559 51.2083 98.2755 51.5229C98.8088 51.8237 99.3695 51.9742 99.9576 51.9742C100.559 51.9742 101.12 51.8237 101.64 51.5229C102.159 51.222 102.576 50.7844 102.891 50.2101C103.219 49.622 103.383 48.9383 103.383 48.1588ZM111.152 38.6408V53.8203H108.814V38.6408H111.152ZM124.581 47.8921C124.581 48.316 124.554 48.6989 124.499 49.0408H115.863C115.932 49.9434 116.267 50.6682 116.868 51.2152C117.47 51.7622 118.209 52.0357 119.084 52.0357C120.342 52.0357 121.231 51.5092 121.751 50.4562H124.274C123.932 51.4955 123.309 52.3502 122.407 53.0203C121.518 53.6767 120.41 54.0049 119.084 54.0049C118.004 54.0049 117.033 53.7656 116.171 53.287C115.323 52.7947 114.653 52.1109 114.161 51.2357C113.682 50.3468 113.443 49.3212 113.443 48.1588C113.443 46.9964 113.675 45.9776 114.14 45.1024C114.619 44.2135 115.282 43.5297 116.13 43.0511C116.992 42.5724 117.976 42.3331 119.084 42.3331C120.151 42.3331 121.101 42.5656 121.935 43.0306C122.769 43.4955 123.419 44.1519 123.884 44.9998C124.349 45.834 124.581 46.7981 124.581 47.8921ZM122.14 47.1536C122.127 46.2921 121.819 45.6015 121.217 45.0819C120.615 44.5622 119.87 44.3024 118.981 44.3024C118.174 44.3024 117.484 44.5622 116.909 45.0819C116.335 45.5878 115.993 46.2784 115.884 47.1536H122.14ZM134.55 44.1793C134.946 43.6596 135.486 43.222 136.17 42.8665C136.854 42.5109 137.626 42.3331 138.488 42.3331C139.473 42.3331 140.368 42.5793 141.175 43.0716C141.996 43.5502 142.638 44.2271 143.103 45.1024C143.568 45.9776 143.801 46.9827 143.801 48.1177C143.801 49.2528 143.568 50.2716 143.103 51.1742C142.638 52.063 141.996 52.7605 141.175 53.2665C140.368 53.7588 139.473 54.0049 138.488 54.0049C137.626 54.0049 136.861 53.834 136.191 53.4921C135.52 53.1366 134.973 52.6989 134.55 52.1793V59.1947H132.211V42.5177H134.55V44.1793ZM141.421 48.1177C141.421 47.3383 141.257 46.6682 140.929 46.1075C140.615 45.5331 140.191 45.1024 139.657 44.8152C139.138 44.5143 138.577 44.3639 137.975 44.3639C137.387 44.3639 136.826 44.5143 136.293 44.8152C135.773 45.116 135.35 45.5536 135.021 46.128C134.707 46.7024 134.55 47.3793 134.55 48.1588C134.55 48.9383 134.707 49.622 135.021 50.2101C135.35 50.7844 135.773 51.222 136.293 51.5229C136.826 51.8237 137.387 51.9742 137.975 51.9742C138.577 51.9742 139.138 51.8237 139.657 51.5229C140.191 51.2083 140.615 50.7571 140.929 50.169C141.257 49.581 141.421 48.8972 141.421 48.1177ZM148.452 38.6408V53.8203H146.113V38.6408H148.452ZM150.743 48.1177C150.743 46.9827 150.975 45.9776 151.44 45.1024C151.919 44.2271 152.561 43.5502 153.368 43.0716C154.189 42.5793 155.091 42.3331 156.076 42.3331C156.965 42.3331 157.737 42.5109 158.394 42.8665C159.064 43.2083 159.597 43.6391 159.994 44.1588V42.5177H162.353V53.8203H159.994V52.1383C159.597 52.6716 159.057 53.116 158.373 53.4716C157.69 53.8272 156.91 54.0049 156.035 54.0049C155.064 54.0049 154.175 53.7588 153.368 53.2665C152.561 52.7605 151.919 52.063 151.44 51.1742C150.975 50.2716 150.743 49.2528 150.743 48.1177ZM159.994 48.1588C159.994 47.3793 159.83 46.7024 159.501 46.128C159.187 45.5536 158.77 45.116 158.25 44.8152C157.731 44.5143 157.17 44.3639 156.568 44.3639C155.966 44.3639 155.406 44.5143 154.886 44.8152C154.366 45.1024 153.943 45.5331 153.614 46.1075C153.3 46.6682 153.143 47.3383 153.143 48.1177C153.143 48.8972 153.3 49.581 153.614 50.169C153.943 50.7571 154.366 51.2083 154.886 51.5229C155.419 51.8237 155.98 51.9742 156.568 51.9742C157.17 51.9742 157.731 51.8237 158.25 51.5229C158.77 51.222 159.187 50.7844 159.501 50.2101C159.83 49.622 159.994 48.9383 159.994 48.1588ZM175.599 42.5177L168.665 59.1331H166.245L168.542 53.6357L164.091 42.5177H166.696L169.876 51.1331L173.178 42.5177H175.599Z" fill="white"/>
<defs>
<clipPath id="clip0_1712_32110">
<rect width="30.7692" height="30.7692" fill="white" transform="translate(12.8848 22.1348)"/>
</clipPath>
</defs>
</svg>
