<svg width="274" height="415" viewBox="0 0 274 415" fill="none" xmlns="http://www.w3.org/2000/svg">
<g opacity="0.25">
<path d="M0.4375 276.665H69.6042V345.831H0.4375V276.665Z" fill="#CAE068"/>
<path d="M0.4375 138.331H69.6042V207.498H0.4375V138.331Z" fill="#CAE068"/>
<path d="M0.4375 -0.00194647H69.6042V69.1647H0.4375V-0.00194647Z" fill="#CAE068"/>
<path d="M138.771 345.831V414.998H69.6042V345.831H138.771Z" fill="#CAE068"/>
<path d="M277.104 345.831V414.998H207.937V345.831H277.104Z" fill="#CAE068"/>
<path d="M415.437 345.831V414.998H346.271V345.831H415.437Z" fill="#CAE068"/>
<path d="M207.937 -0.0019501V69.1647H138.771V-0.00195312L207.937 -0.0019501Z" fill="#CAE068"/>
<path d="M207.937 138.331V207.498L138.771 207.498V138.331H207.937Z" fill="#CAE068"/>
<path d="M207.937 276.665V345.831H138.771V276.665H207.937Z" fill="#CAE068"/>
<path d="M346.271 -0.0019501V69.1647H277.104V-0.00195312L346.271 -0.0019501Z" fill="#CAE068"/>
<path d="M346.271 138.331V207.498L277.104 207.498V138.331H346.271Z" fill="#CAE068"/>
<path d="M346.271 276.665V345.831H277.104V276.665H346.271Z" fill="#CAE068"/>
<path d="M138.771 69.1647V138.331H69.6042V69.1647H138.771Z" fill="#CAE068"/>
<path d="M138.771 207.498V276.665H69.6042V207.498H138.771Z" fill="#CAE068"/>
<path d="M277.104 69.1647V138.331H207.937V69.1647H277.104Z" fill="#CAE068"/>
<path d="M277.104 207.498V276.665H207.937V207.498L277.104 207.498Z" fill="#CAE068"/>
<path d="M346.271 207.498L415.437 207.498V276.665H346.271V207.498Z" fill="#CAE068"/>
<path d="M346.271 69.1647H415.437V138.331H346.271V69.1647Z" fill="#CAE068"/>
</g>
</svg>
