<svg width="447" height="306" viewBox="0 0 447 306" fill="none" xmlns="http://www.w3.org/2000/svg">
<rect x="0.910495" y="101.523" width="180.357" height="80.355" rx="40.1775" transform="rotate(-6.51565 0.910495 101.523)" fill="white"/>
<rect x="0.910495" y="101.523" width="180.357" height="80.355" rx="40.1775" transform="rotate(-6.51565 0.910495 101.523)" stroke="#AADA18" stroke-width="1.64495"/>
<path d="M38.3803 144.237L36.8711 131.023L45.4036 130.048L45.6128 131.879L39.3455 132.595L39.7789 136.389L45.4798 135.738L45.6846 137.531L39.9837 138.183L40.4365 142.147L46.7037 141.431L46.9129 143.262L38.3803 144.237ZM51.8233 142.701L47.2255 133.588L49.604 133.316L52.9556 140.392L54.6254 132.743L56.9662 132.476L54.5416 142.391L51.8233 142.701ZM63.6908 141.575C62.747 141.683 61.8934 141.577 61.13 141.256C60.3653 140.922 59.7391 140.408 59.2516 139.711C58.7641 139.015 58.465 138.182 58.3543 137.213C58.2393 136.206 58.3338 135.303 58.6377 134.503C58.9541 133.702 59.4466 133.047 60.1151 132.537C60.7961 132.025 61.6149 131.715 62.5713 131.606C63.5026 131.5 64.3381 131.615 65.0777 131.951C65.8173 132.287 66.4161 132.786 66.8741 133.448C67.3307 134.097 67.6086 134.855 67.7078 135.724C67.7221 135.85 67.738 135.988 67.7552 136.139C67.7725 136.29 67.7778 136.449 67.7713 136.615L60.0317 137.499L59.8657 136.046L65.3589 135.418C65.2547 134.729 64.9601 134.214 64.4751 133.875C63.9886 133.522 63.4182 133.383 62.7637 133.458C62.2981 133.511 61.8824 133.667 61.5167 133.926C61.151 134.184 60.8794 134.54 60.7017 134.994C60.5226 135.435 60.4697 135.977 60.543 136.619L60.6056 137.166C60.6731 137.757 60.8383 138.255 61.1011 138.658C61.3765 139.06 61.7159 139.353 62.1193 139.536C62.5339 139.706 62.9803 139.763 63.4585 139.709C63.9871 139.648 64.4083 139.485 64.7222 139.22C65.0487 138.953 65.2722 138.622 65.3927 138.226L67.6957 137.963C67.5871 138.574 67.3587 139.142 67.0106 139.666C66.6611 140.178 66.2064 140.606 65.6465 140.95C65.0852 141.282 64.4333 141.491 63.6908 141.575ZM70.3814 140.582L69.2948 131.068L71.2958 130.839L71.6468 132.405C71.873 131.819 72.238 131.331 72.7418 130.942C73.2456 130.553 73.8687 130.316 74.6112 130.231C75.3789 130.143 76.052 130.232 76.6305 130.497C77.2076 130.75 77.6761 131.168 78.0359 131.752C78.4084 132.334 78.6471 133.085 78.752 134.003L79.3859 139.553L77.1206 139.812L76.5105 134.47C76.4199 133.677 76.174 133.087 75.7728 132.699C75.3715 132.311 74.8248 132.157 74.1327 132.236C73.6796 132.288 73.2828 132.442 72.9423 132.697C72.6143 132.951 72.3671 133.298 72.2006 133.738C72.0452 134.164 72.0006 134.666 72.0667 135.245L72.6467 140.323L70.3814 140.582ZM85.9083 138.808C85.2665 138.882 84.6949 138.845 84.1937 138.698C83.7051 138.55 83.302 138.258 82.9846 137.823C82.6671 137.387 82.4631 136.773 82.3725 135.98L81.868 131.563L80.2446 131.748L80.0268 129.842L81.6503 129.656L81.6278 127.116L83.6288 126.887L83.9156 129.398L86.5017 129.102L86.7195 131.009L84.1333 131.304L84.6378 135.722C84.6924 136.2 84.8312 136.522 85.0541 136.688C85.2882 136.839 85.6506 136.887 86.1414 136.831L87.3118 136.697L87.5317 138.623L85.9083 138.808ZM98.8658 137.558C97.9094 137.667 97.0405 137.594 96.2592 137.339C95.4779 137.084 94.8436 136.666 94.3565 136.084C93.8693 135.502 93.5698 134.778 93.4581 133.911L95.8555 133.637C95.9058 134.078 96.0518 134.463 96.2934 134.792C96.5461 135.107 96.8665 135.345 97.2544 135.504C97.655 135.663 98.1195 135.712 98.6481 135.651C99.1011 135.6 99.4834 135.486 99.7948 135.31C100.117 135.12 100.352 134.883 100.498 134.599C100.655 134.3 100.712 133.969 100.671 133.604C100.623 133.188 100.484 132.86 100.252 132.619C100.032 132.363 99.741 132.161 99.3797 132.011C99.0183 131.861 98.6095 131.742 98.1532 131.654C97.6955 131.553 97.2119 131.449 96.7024 131.341C95.6176 131.108 94.7801 130.751 94.1897 130.27C93.5979 129.777 93.2495 129.071 93.1446 128.152C93.0569 127.385 93.1639 126.703 93.4657 126.108C93.7674 125.512 94.2282 125.026 94.8481 124.649C95.4792 124.259 96.2289 124.014 97.0972 123.914C97.9782 123.814 98.7638 123.883 99.4542 124.123C100.157 124.362 100.73 124.743 101.172 125.266C101.625 125.775 101.903 126.419 102.005 127.198L99.5882 127.474C99.5383 127.148 99.4157 126.856 99.2204 126.598C99.0238 126.327 98.7581 126.122 98.4233 125.981C98.0997 125.827 97.7177 125.775 97.2772 125.825C96.8983 125.856 96.5656 125.958 96.2794 126.131C96.0043 126.289 95.7931 126.505 95.6456 126.777C95.5093 127.034 95.462 127.346 95.5037 127.711C95.544 128.063 95.6533 128.35 95.8316 128.572C96.0211 128.78 96.2762 128.948 96.5969 129.078C96.9162 129.194 97.2851 129.299 97.7036 129.391C98.1221 129.483 98.5798 129.584 99.0768 129.693C99.7556 129.832 100.377 130.029 100.942 130.283C101.517 130.524 101.991 130.871 102.361 131.326C102.732 131.781 102.962 132.398 103.051 133.179C103.129 133.858 103.025 134.514 102.74 135.146C102.454 135.765 101.992 136.296 101.354 136.738C100.715 137.168 99.8852 137.441 98.8658 137.558ZM109.726 136.088C109.084 136.161 108.513 136.125 108.012 135.978C107.523 135.83 107.12 135.538 106.802 135.102C106.485 134.667 106.281 134.053 106.19 133.26L105.686 128.843L104.062 129.028L103.845 127.122L105.468 126.936L105.446 124.395L107.447 124.167L107.733 126.677L110.32 126.382L110.537 128.289L107.951 128.584L108.456 133.001C108.51 133.479 108.649 133.801 108.872 133.967C109.106 134.119 109.468 134.167 109.959 134.111L111.13 133.977L111.35 135.903L109.726 136.088ZM115.163 139.674L116.89 134.199L116.324 134.264L111.564 126.24L114.036 125.957L117.605 132.09L119.549 125.328L121.946 125.054L117.561 139.4L115.163 139.674ZM124.672 134.381L123.12 120.789L125.385 120.531L126.937 134.122L124.672 134.381ZM129.559 133.823L128.473 124.309L130.738 124.05L131.825 133.564L129.559 133.823ZM129.433 122.669C129.018 122.717 128.657 122.63 128.352 122.41C128.057 122.176 127.888 121.87 127.845 121.493C127.801 121.103 127.897 120.773 128.134 120.504C128.382 120.22 128.714 120.055 129.129 120.007C129.544 119.96 129.898 120.047 130.192 120.269C130.496 120.476 130.67 120.775 130.715 121.165C130.758 121.543 130.656 121.879 130.409 122.175C130.174 122.457 129.848 122.622 129.433 122.669ZM134.443 133.265L133.356 123.751L135.357 123.522L135.708 125.089C135.934 124.502 136.299 124.014 136.803 123.625C137.307 123.236 137.93 122.999 138.672 122.914C139.44 122.827 140.113 122.915 140.692 123.181C141.269 123.434 141.737 123.852 142.097 124.436C142.469 125.018 142.708 125.768 142.813 126.687L143.447 132.237L141.182 132.495L140.572 127.153C140.481 126.36 140.235 125.77 139.834 125.382C139.433 124.995 138.886 124.84 138.194 124.92C137.741 124.971 137.344 125.125 137.003 125.381C136.675 125.635 136.428 125.982 136.262 126.421C136.106 126.847 136.062 127.35 136.128 127.928L136.708 133.006L134.443 133.265ZM150.337 135.886C149.444 135.988 148.644 135.965 147.939 135.816C147.248 135.678 146.687 135.404 146.258 134.995C145.843 134.596 145.597 134.063 145.521 133.396C145.476 133.006 145.527 132.611 145.672 132.212C145.832 131.824 146.089 131.45 146.443 131.091C146.808 130.718 147.286 130.377 147.875 130.067L149.001 131.048C148.421 131.331 148.029 131.637 147.824 131.966C147.62 132.296 147.535 132.618 147.571 132.932C147.609 133.259 147.74 133.518 147.966 133.709C148.206 133.912 148.508 134.049 148.874 134.122C149.252 134.194 149.667 134.204 150.12 134.152C150.561 134.102 150.937 133.995 151.25 133.832C151.564 133.681 151.797 133.489 151.949 133.254C152.114 133.019 152.178 132.75 152.144 132.448C152.101 132.071 151.933 131.777 151.642 131.568C151.352 131.372 150.814 131.293 150.028 131.332C149.355 131.358 148.762 131.356 148.248 131.325C147.733 131.282 147.286 131.218 146.907 131.134C146.54 131.048 146.222 130.944 145.953 130.822C145.683 130.687 145.457 130.547 145.274 130.402L145.225 129.968L146.97 127.665L148.712 128.021L146.733 130.446L147.193 129.285C147.329 129.358 147.464 129.426 147.599 129.487C147.746 129.547 147.923 129.596 148.132 129.636C148.352 129.662 148.634 129.681 148.98 129.692C149.325 129.704 149.772 129.704 150.318 129.693C151.169 129.659 151.872 129.732 152.428 129.911C152.984 130.089 153.41 130.366 153.708 130.74C154.006 131.114 154.187 131.584 154.252 132.15C154.315 132.704 154.217 133.244 153.959 133.771C153.713 134.296 153.293 134.752 152.7 135.138C152.107 135.525 151.319 135.774 150.337 135.886ZM149.512 128.656C148.719 128.747 148.016 128.674 147.402 128.438C146.8 128.188 146.318 127.823 145.957 127.341C145.595 126.847 145.378 126.285 145.306 125.656C145.233 125.014 145.318 124.418 145.561 123.868C145.804 123.317 146.191 122.852 146.721 122.473C147.264 122.092 147.932 121.857 148.725 121.766C149.518 121.676 150.215 121.755 150.817 122.005C151.42 122.255 151.901 122.621 152.262 123.102C152.623 123.584 152.84 124.146 152.914 124.787C152.985 125.417 152.901 126.013 152.659 126.576C152.416 127.126 152.029 127.591 151.499 127.97C150.967 128.337 150.305 128.566 149.512 128.656ZM149.311 126.901C149.852 126.839 150.27 126.645 150.564 126.318C150.858 125.991 150.974 125.557 150.913 125.016C150.851 124.475 150.64 124.084 150.282 123.845C149.921 123.593 149.471 123.498 148.93 123.56C148.388 123.621 147.964 123.816 147.658 124.145C147.35 124.46 147.226 124.889 147.288 125.43C147.35 125.971 147.567 126.367 147.94 126.618C148.313 126.868 148.77 126.963 149.311 126.901ZM150.507 123.475L149.883 121.863L153.791 121.417L153.953 122.833L150.507 123.475Z" fill="#232C07"/>
<rect x="17.6799" y="224.199" width="180.357" height="80.355" rx="40.1775" fill="white"/>
<rect x="17.6799" y="224.199" width="180.357" height="80.355" rx="40.1775" stroke="#AADA18" stroke-width="1.64495"/>
<path d="M72.4091 261.389L72.4091 248.089H80.9021V249.932H74.6891V253.827H79.7621V255.632H74.6891L74.6891 261.389H72.4091ZM85.1921 261.617C84.4067 261.617 83.7544 261.484 83.2351 261.218C82.7157 260.952 82.3294 260.597 82.0761 260.154C81.8227 259.71 81.6961 259.229 81.6961 258.71C81.6961 258.102 81.8481 257.576 82.1521 257.133C82.4687 256.689 82.9311 256.347 83.5391 256.107C84.1471 255.853 84.8944 255.727 85.7811 255.727H88.1941C88.1941 255.22 88.1244 254.802 87.9851 254.473C87.8457 254.131 87.6304 253.877 87.3391 253.713C87.0477 253.548 86.6741 253.466 86.2181 253.466C85.6987 253.466 85.2554 253.586 84.8881 253.827C84.5207 254.055 84.2927 254.409 84.2041 254.891H81.9621C82.0381 254.207 82.2661 253.624 82.6461 253.143C83.0261 252.649 83.5264 252.269 84.1471 252.003C84.7804 251.724 85.4707 251.585 86.2181 251.585C87.1174 251.585 87.8837 251.743 88.5171 252.06C89.1504 252.364 89.6317 252.807 89.9611 253.39C90.3031 253.96 90.4741 254.65 90.4741 255.461V261.389H88.5361L88.3081 259.85C88.1814 260.103 88.0167 260.337 87.8141 260.553C87.6241 260.768 87.4024 260.958 87.1491 261.123C86.8957 261.275 86.6044 261.395 86.2751 261.484C85.9584 261.572 85.5974 261.617 85.1921 261.617ZM85.7051 259.812C86.0724 259.812 86.3954 259.748 86.6741 259.622C86.9654 259.482 87.2124 259.292 87.4151 259.052C87.6304 258.798 87.7951 258.52 87.9091 258.216C88.0231 257.912 88.0991 257.589 88.1371 257.247V257.209H86.0281C85.5847 257.209 85.2174 257.266 84.9261 257.38C84.6347 257.481 84.4257 257.633 84.2991 257.836C84.1724 258.038 84.1091 258.273 84.1091 258.539C84.1091 258.805 84.1724 259.033 84.2991 259.223C84.4257 259.413 84.6094 259.558 84.8501 259.66C85.0907 259.761 85.3757 259.812 85.7051 259.812ZM96.7292 261.617C95.8805 261.617 95.1395 261.484 94.5062 261.218C93.8855 260.939 93.3915 260.559 93.0242 260.078C92.6695 259.584 92.4605 259.02 92.3972 258.387H94.6772C94.7405 258.653 94.8545 258.9 95.0192 259.128C95.1839 259.343 95.4055 259.514 95.6842 259.641C95.9755 259.767 96.3175 259.831 96.7102 259.831C97.0902 259.831 97.4005 259.78 97.6412 259.679C97.8819 259.565 98.0592 259.419 98.1732 259.242C98.2872 259.064 98.3442 258.874 98.3442 258.672C98.3442 258.368 98.2619 258.133 98.0972 257.969C97.9325 257.804 97.6919 257.677 97.3752 257.589C97.0712 257.487 96.7039 257.392 96.2732 257.304C95.8172 257.215 95.3739 257.107 94.9432 256.981C94.5252 256.841 94.1452 256.67 93.8032 256.468C93.4739 256.265 93.2079 256.005 93.0052 255.689C92.8152 255.372 92.7202 254.986 92.7202 254.53C92.7202 253.972 92.8659 253.472 93.1572 253.029C93.4612 252.585 93.8919 252.237 94.4492 251.984C95.0192 251.718 95.6969 251.585 96.4822 251.585C97.5969 251.585 98.4835 251.844 99.1422 252.364C99.8135 252.87 100.206 253.586 100.32 254.511H98.1542C98.0909 254.156 97.9135 253.884 97.6222 253.694C97.3309 253.491 96.9445 253.39 96.4632 253.39C95.9692 253.39 95.5892 253.485 95.3232 253.675C95.0699 253.852 94.9432 254.093 94.9432 254.397C94.9432 254.587 95.0192 254.764 95.1712 254.929C95.3359 255.081 95.5702 255.214 95.8742 255.328C96.1782 255.429 96.5519 255.53 96.9952 255.632C97.7045 255.771 98.3315 255.936 98.8762 256.126C99.4209 256.316 99.8515 256.594 100.168 256.962C100.485 257.329 100.643 257.848 100.643 258.52C100.656 259.128 100.498 259.666 100.168 260.135C99.8515 260.603 99.4019 260.971 98.8192 261.237C98.2365 261.49 97.5399 261.617 96.7292 261.617ZM102.856 261.389V247.709H105.136V253.295C105.452 252.775 105.883 252.364 106.428 252.06C106.972 251.743 107.587 251.585 108.271 251.585C109.056 251.585 109.721 251.749 110.266 252.079C110.81 252.395 111.222 252.87 111.501 253.504C111.792 254.124 111.938 254.903 111.938 255.841V261.389H109.677V256.05C109.677 255.226 109.499 254.599 109.145 254.169C108.803 253.738 108.277 253.523 107.568 253.523C107.112 253.523 106.7 253.637 106.333 253.865C105.965 254.08 105.674 254.397 105.459 254.815C105.243 255.22 105.136 255.72 105.136 256.316V261.389H102.856ZM114.454 261.389V251.813H116.734V261.389H114.454ZM115.594 250.293C115.176 250.293 114.828 250.166 114.549 249.913C114.283 249.647 114.15 249.324 114.15 248.944C114.15 248.551 114.283 248.234 114.549 247.994C114.828 247.74 115.176 247.614 115.594 247.614C116.012 247.614 116.354 247.74 116.62 247.994C116.899 248.234 117.038 248.551 117.038 248.944C117.038 249.324 116.899 249.647 116.62 249.913C116.354 250.166 116.012 250.293 115.594 250.293ZM123.834 261.617C122.922 261.617 122.099 261.408 121.364 260.99C120.642 260.559 120.072 259.97 119.654 259.223C119.249 258.463 119.046 257.595 119.046 256.62C119.046 255.619 119.255 254.745 119.673 253.998C120.091 253.238 120.661 252.649 121.383 252.231C122.118 251.8 122.941 251.585 123.853 251.585C124.765 251.585 125.582 251.8 126.304 252.231C127.039 252.649 127.609 253.231 128.014 253.979C128.432 254.726 128.641 255.6 128.641 256.601C128.641 257.601 128.432 258.475 128.014 259.223C127.596 259.97 127.02 260.559 126.285 260.99C125.563 261.408 124.746 261.617 123.834 261.617ZM123.834 259.66C124.29 259.66 124.702 259.546 125.069 259.318C125.449 259.09 125.753 258.748 125.981 258.292C126.209 257.836 126.323 257.272 126.323 256.601C126.323 255.929 126.209 255.372 125.981 254.929C125.766 254.473 125.468 254.131 125.088 253.903C124.721 253.675 124.309 253.561 123.853 253.561C123.41 253.561 122.998 253.675 122.618 253.903C122.238 254.131 121.934 254.473 121.706 254.929C121.478 255.372 121.364 255.929 121.364 256.601C121.364 257.272 121.478 257.836 121.706 258.292C121.934 258.748 122.232 259.09 122.599 259.318C122.979 259.546 123.391 259.66 123.834 259.66ZM130.873 261.389V251.813H132.887L133.058 253.409C133.349 252.851 133.767 252.408 134.312 252.079C134.857 251.749 135.503 251.585 136.25 251.585C137.023 251.585 137.681 251.749 138.226 252.079C138.771 252.395 139.189 252.864 139.48 253.485C139.784 254.105 139.936 254.878 139.936 255.803V261.389H137.656V256.012C137.656 255.214 137.479 254.599 137.124 254.169C136.769 253.738 136.244 253.523 135.547 253.523C135.091 253.523 134.679 253.63 134.312 253.846C133.957 254.061 133.672 254.378 133.457 254.796C133.254 255.201 133.153 255.695 133.153 256.278V261.389H130.873ZM64.3099 280.389V267.089H68.6039C70.1493 267.089 71.4223 267.361 72.4229 267.906C73.4363 268.45 74.1836 269.223 74.6649 270.224C75.1589 271.212 75.4059 272.39 75.4059 273.758C75.4059 275.1 75.1589 276.272 74.6649 277.273C74.1836 278.261 73.4363 279.027 72.4229 279.572C71.4223 280.116 70.1493 280.389 68.6039 280.389H64.3099ZM66.5899 278.451H68.4899C69.6426 278.451 70.5483 278.267 71.2069 277.9C71.8783 277.52 72.3533 276.981 72.6319 276.285C72.9233 275.575 73.0689 274.733 73.0689 273.758C73.0689 272.77 72.9233 271.927 72.6319 271.231C72.3533 270.521 71.8783 269.977 71.2069 269.597C70.5483 269.204 69.6426 269.008 68.4899 269.008H66.5899V278.451ZM82.0402 280.617C81.0902 280.617 80.2542 280.414 79.5322 280.009C78.8102 279.591 78.2465 279.008 77.8412 278.261C77.4359 277.513 77.2332 276.652 77.2332 275.677C77.2332 274.663 77.4295 273.777 77.8222 273.017C78.2275 272.257 78.7912 271.661 79.5132 271.231C80.2479 270.8 81.0965 270.585 82.0592 270.585C82.9965 270.585 83.8135 270.794 84.5102 271.212C85.2069 271.63 85.7452 272.193 86.1252 272.903C86.5052 273.599 86.6952 274.385 86.6952 275.259C86.6952 275.385 86.6952 275.525 86.6952 275.677C86.6952 275.829 86.6825 275.987 86.6572 276.152H78.8672V274.689H84.3962C84.3709 273.992 84.1365 273.447 83.6932 273.055C83.2499 272.649 82.6989 272.447 82.0402 272.447C81.5715 272.447 81.1409 272.554 80.7482 272.77C80.3555 272.985 80.0452 273.308 79.8172 273.739C79.5892 274.157 79.4752 274.689 79.4752 275.335V275.886C79.4752 276.481 79.5829 276.994 79.7982 277.425C80.0262 277.855 80.3302 278.185 80.7102 278.413C81.1029 278.628 81.5399 278.736 82.0212 278.736C82.5532 278.736 82.9902 278.622 83.3322 278.394C83.6869 278.166 83.9465 277.862 84.1112 277.482H86.4292C86.2519 278.077 85.9605 278.615 85.5552 279.097C85.1499 279.565 84.6495 279.939 84.0542 280.218C83.4589 280.484 82.7875 280.617 82.0402 280.617ZM92.6193 280.617C91.7707 280.617 91.0297 280.484 90.3963 280.218C89.7757 279.939 89.2817 279.559 88.9143 279.078C88.5597 278.584 88.3507 278.02 88.2873 277.387H90.5673C90.6307 277.653 90.7447 277.9 90.9093 278.128C91.074 278.343 91.2957 278.514 91.5743 278.641C91.8657 278.767 92.2077 278.831 92.6003 278.831C92.9803 278.831 93.2907 278.78 93.5313 278.679C93.772 278.565 93.9493 278.419 94.0633 278.242C94.1773 278.064 94.2343 277.874 94.2343 277.672C94.2343 277.368 94.152 277.133 93.9873 276.969C93.8227 276.804 93.582 276.677 93.2653 276.589C92.9613 276.487 92.594 276.392 92.1633 276.304C91.7073 276.215 91.264 276.107 90.8333 275.981C90.4153 275.841 90.0353 275.67 89.6933 275.468C89.364 275.265 89.098 275.005 88.8953 274.689C88.7053 274.372 88.6103 273.986 88.6103 273.53C88.6103 272.972 88.756 272.472 89.0473 272.029C89.3513 271.585 89.782 271.237 90.3393 270.984C90.9093 270.718 91.587 270.585 92.3723 270.585C93.487 270.585 94.3737 270.844 95.0323 271.364C95.7037 271.87 96.0963 272.586 96.2103 273.511H94.0443C93.981 273.156 93.8037 272.884 93.5123 272.694C93.221 272.491 92.8347 272.39 92.3533 272.39C91.8593 272.39 91.4793 272.485 91.2133 272.675C90.96 272.852 90.8333 273.093 90.8333 273.397C90.8333 273.587 90.9093 273.764 91.0613 273.929C91.226 274.081 91.4603 274.214 91.7643 274.328C92.0683 274.429 92.442 274.53 92.8853 274.632C93.5947 274.771 94.2217 274.936 94.7663 275.126C95.311 275.316 95.7417 275.594 96.0583 275.962C96.375 276.329 96.5333 276.848 96.5333 277.52C96.546 278.128 96.3877 278.666 96.0583 279.135C95.7417 279.603 95.292 279.971 94.7093 280.237C94.1267 280.49 93.43 280.617 92.6193 280.617ZM98.8407 280.389L98.8407 270.813H101.121L101.121 280.389H98.8407ZM99.9807 269.293C99.5627 269.293 99.2143 269.166 98.9357 268.913C98.6697 268.647 98.5367 268.324 98.5367 267.944C98.5367 267.551 98.6697 267.234 98.9357 266.994C99.2143 266.74 99.5627 266.614 99.9807 266.614C100.399 266.614 100.741 266.74 101.007 266.994C101.285 267.234 101.425 267.551 101.425 267.944C101.425 268.324 101.285 268.647 101.007 268.913C100.741 269.166 100.399 269.293 99.9807 269.293ZM107.783 284.797C106.884 284.797 106.092 284.683 105.408 284.455C104.737 284.239 104.211 283.904 103.831 283.448C103.464 283.004 103.28 282.447 103.28 281.776C103.28 281.383 103.375 280.997 103.565 280.617C103.768 280.249 104.066 279.907 104.458 279.591C104.864 279.261 105.377 278.976 105.997 278.736L107.004 279.838C106.396 280.053 105.972 280.313 105.731 280.617C105.491 280.921 105.37 281.231 105.37 281.548C105.37 281.877 105.472 282.149 105.674 282.365C105.89 282.593 106.175 282.764 106.529 282.878C106.897 282.992 107.308 283.049 107.764 283.049C108.208 283.049 108.594 282.985 108.923 282.859C109.253 282.745 109.506 282.58 109.683 282.365C109.873 282.149 109.968 281.89 109.968 281.586C109.968 281.206 109.835 280.895 109.569 280.655C109.303 280.427 108.778 280.287 107.992 280.237C107.321 280.186 106.732 280.116 106.225 280.028C105.719 279.926 105.282 279.812 104.914 279.686C104.56 279.559 104.256 279.42 104.002 279.268C103.749 279.103 103.54 278.938 103.375 278.774V278.337L105.37 276.247L107.061 276.798L104.819 278.983L105.408 277.881C105.535 277.969 105.662 278.052 105.788 278.128C105.928 278.204 106.099 278.273 106.301 278.337C106.517 278.387 106.795 278.438 107.137 278.489C107.479 278.539 107.923 278.59 108.467 278.641C109.316 278.704 110.006 278.856 110.538 279.097C111.07 279.337 111.463 279.66 111.716 280.066C111.97 280.471 112.096 280.959 112.096 281.529C112.096 282.086 111.938 282.612 111.621 283.106C111.317 283.6 110.849 284.005 110.215 284.322C109.582 284.638 108.771 284.797 107.783 284.797ZM107.783 277.52C106.985 277.52 106.295 277.368 105.712 277.064C105.142 276.747 104.705 276.329 104.401 275.81C104.097 275.278 103.945 274.695 103.945 274.062C103.945 273.416 104.097 272.833 104.401 272.314C104.705 271.794 105.142 271.376 105.712 271.06C106.295 270.743 106.985 270.585 107.783 270.585C108.581 270.585 109.265 270.743 109.835 271.06C110.405 271.376 110.842 271.794 111.146 272.314C111.45 272.833 111.602 273.416 111.602 274.062C111.602 274.695 111.45 275.278 111.146 275.81C110.842 276.329 110.405 276.747 109.835 277.064C109.265 277.368 108.581 277.52 107.783 277.52ZM107.783 275.753C108.328 275.753 108.765 275.607 109.094 275.316C109.424 275.024 109.588 274.606 109.588 274.062C109.588 273.517 109.424 273.105 109.094 272.827C108.765 272.535 108.328 272.39 107.783 272.39C107.239 272.39 106.795 272.535 106.453 272.827C106.111 273.105 105.94 273.517 105.94 274.062C105.94 274.606 106.111 275.024 106.453 275.316C106.795 275.607 107.239 275.753 107.783 275.753ZM109.36 272.485L108.923 270.813H112.856V272.238L109.36 272.485ZM114.87 280.389L114.87 270.813H116.884L117.055 272.409C117.346 271.851 117.764 271.408 118.309 271.079C118.853 270.749 119.499 270.585 120.247 270.585C121.019 270.585 121.678 270.749 122.223 271.079C122.767 271.395 123.185 271.864 123.477 272.485C123.781 273.105 123.933 273.878 123.933 274.803L123.933 280.389H121.653L121.653 275.012C121.653 274.214 121.475 273.599 121.121 273.169C120.766 272.738 120.24 272.523 119.544 272.523C119.088 272.523 118.676 272.63 118.309 272.846C117.954 273.061 117.669 273.378 117.454 273.796C117.251 274.201 117.15 274.695 117.15 275.278L117.15 280.389L114.87 280.389ZM130.82 280.617C129.87 280.617 129.034 280.414 128.312 280.009C127.59 279.591 127.027 279.008 126.621 278.261C126.216 277.513 126.013 276.652 126.013 275.677C126.013 274.663 126.21 273.777 126.602 273.017C127.008 272.257 127.571 271.661 128.293 271.231C129.028 270.8 129.877 270.585 130.839 270.585C131.777 270.585 132.594 270.794 133.29 271.212C133.987 271.63 134.525 272.193 134.905 272.903C135.285 273.599 135.475 274.385 135.475 275.259C135.475 275.385 135.475 275.525 135.475 275.677C135.475 275.829 135.463 275.987 135.437 276.152H127.647V274.689H133.176C133.151 273.992 132.917 273.447 132.473 273.055C132.03 272.649 131.479 272.447 130.82 272.447C130.352 272.447 129.921 272.554 129.528 272.77C129.136 272.985 128.825 273.308 128.597 273.739C128.369 274.157 128.255 274.689 128.255 275.335V275.886C128.255 276.481 128.363 276.994 128.578 277.425C128.806 277.855 129.11 278.185 129.49 278.413C129.883 278.628 130.32 278.736 130.801 278.736C131.333 278.736 131.77 278.622 132.112 278.394C132.467 278.166 132.727 277.862 132.891 277.482H135.209C135.032 278.077 134.741 278.615 134.335 279.097C133.93 279.565 133.43 279.939 132.834 280.218C132.239 280.484 131.568 280.617 130.82 280.617ZM137.581 280.389V270.813H139.614L139.823 272.599C140.051 272.181 140.336 271.826 140.678 271.535C141.02 271.231 141.419 270.996 141.875 270.832C142.343 270.667 142.856 270.585 143.414 270.585V272.998H142.616C142.236 272.998 141.875 273.048 141.533 273.15C141.191 273.238 140.893 273.39 140.64 273.606C140.399 273.808 140.209 274.093 140.07 274.461C139.93 274.815 139.861 275.265 139.861 275.81V280.389H137.581ZM148.951 280.617C148.103 280.617 147.362 280.484 146.728 280.218C146.108 279.939 145.614 279.559 145.246 279.078C144.892 278.584 144.683 278.02 144.619 277.387H146.899C146.963 277.653 147.077 277.9 147.241 278.128C147.406 278.343 147.628 278.514 147.906 278.641C148.198 278.767 148.54 278.831 148.932 278.831C149.312 278.831 149.623 278.78 149.863 278.679C150.104 278.565 150.281 278.419 150.395 278.242C150.509 278.064 150.566 277.874 150.566 277.672C150.566 277.368 150.484 277.133 150.319 276.969C150.155 276.804 149.914 276.677 149.597 276.589C149.293 276.487 148.926 276.392 148.495 276.304C148.039 276.215 147.596 276.107 147.165 275.981C146.747 275.841 146.367 275.67 146.025 275.468C145.696 275.265 145.43 275.005 145.227 274.689C145.037 274.372 144.942 273.986 144.942 273.53C144.942 272.972 145.088 272.472 145.379 272.029C145.683 271.585 146.114 271.237 146.671 270.984C147.241 270.718 147.919 270.585 148.704 270.585C149.819 270.585 150.706 270.844 151.364 271.364C152.036 271.87 152.428 272.586 152.542 273.511H150.376C150.313 273.156 150.136 272.884 149.844 272.694C149.553 272.491 149.167 272.39 148.685 272.39C148.191 272.39 147.811 272.485 147.545 272.675C147.292 272.852 147.165 273.093 147.165 273.397C147.165 273.587 147.241 273.764 147.393 273.929C147.558 274.081 147.792 274.214 148.096 274.328C148.4 274.429 148.774 274.53 149.217 274.632C149.927 274.771 150.554 274.936 151.098 275.126C151.643 275.316 152.074 275.594 152.39 275.962C152.707 276.329 152.865 276.848 152.865 277.52C152.878 278.128 152.72 278.666 152.39 279.135C152.074 279.603 151.624 279.971 151.041 280.237C150.459 280.49 149.762 280.617 148.951 280.617Z" fill="#232C07"/>
<rect x="203.182" y="224.199" width="242.758" height="80.355" rx="40.1775" fill="white"/>
<rect x="203.182" y="224.199" width="242.758" height="80.355" rx="40.1775" stroke="#AADA18" stroke-width="1.64495"/>
<path d="M262.072 270.889V257.589H264.77L269.026 266.177L273.244 257.589H275.961V270.889H273.681V261.503L269.919 269.027H268.133L264.352 261.522V270.889H262.072ZM281.776 271.117C280.99 271.117 280.338 270.984 279.819 270.718C279.299 270.452 278.913 270.097 278.66 269.654C278.406 269.21 278.28 268.729 278.28 268.21C278.28 267.602 278.432 267.076 278.736 266.633C279.052 266.189 279.515 265.847 280.123 265.607C280.731 265.353 281.478 265.227 282.365 265.227H284.778C284.778 264.72 284.708 264.302 284.569 263.973C284.429 263.631 284.214 263.377 283.923 263.213C283.631 263.048 283.258 262.966 282.802 262.966C282.282 262.966 281.839 263.086 281.472 263.327C281.104 263.555 280.876 263.909 280.788 264.391H278.546C278.622 263.707 278.85 263.124 279.23 262.643C279.61 262.149 280.11 261.769 280.731 261.503C281.364 261.224 282.054 261.085 282.802 261.085C283.701 261.085 284.467 261.243 285.101 261.56C285.734 261.864 286.215 262.307 286.545 262.89C286.887 263.46 287.058 264.15 287.058 264.961V270.889H285.12L284.892 269.35C284.765 269.603 284.6 269.837 284.398 270.053C284.208 270.268 283.986 270.458 283.733 270.623C283.479 270.775 283.188 270.895 282.859 270.984C282.542 271.072 282.181 271.117 281.776 271.117ZM282.289 269.312C282.656 269.312 282.979 269.248 283.258 269.122C283.549 268.982 283.796 268.792 283.999 268.552C284.214 268.298 284.379 268.02 284.493 267.716C284.607 267.412 284.683 267.089 284.721 266.747V266.709H282.612C282.168 266.709 281.801 266.766 281.51 266.88C281.218 266.981 281.009 267.133 280.883 267.336C280.756 267.538 280.693 267.773 280.693 268.039C280.693 268.305 280.756 268.533 280.883 268.723C281.009 268.913 281.193 269.058 281.434 269.16C281.674 269.261 281.959 269.312 282.289 269.312ZM295.669 270.889L291.432 265.645L295.232 261.313H297.949L293.218 266.576V264.809L298.519 270.889H295.669ZM289.494 270.889V257.209H291.774V270.889H289.494ZM303.775 271.117C302.825 271.117 301.989 270.914 301.267 270.509C300.545 270.091 299.981 269.508 299.576 268.761C299.17 268.013 298.968 267.152 298.968 266.177C298.968 265.163 299.164 264.277 299.557 263.517C299.962 262.757 300.526 262.161 301.248 261.731C301.982 261.3 302.831 261.085 303.794 261.085C304.731 261.085 305.548 261.294 306.245 261.712C306.941 262.13 307.48 262.693 307.86 263.403C308.24 264.099 308.43 264.885 308.43 265.759C308.43 265.885 308.43 266.025 308.43 266.177C308.43 266.329 308.417 266.487 308.392 266.652H300.602V265.189H306.131C306.105 264.492 305.871 263.947 305.428 263.555C304.984 263.149 304.433 262.947 303.775 262.947C303.306 262.947 302.875 263.054 302.483 263.27C302.09 263.485 301.78 263.808 301.552 264.239C301.324 264.657 301.21 265.189 301.21 265.835V266.386C301.21 266.981 301.317 267.494 301.533 267.925C301.761 268.355 302.065 268.685 302.445 268.913C302.837 269.128 303.274 269.236 303.756 269.236C304.288 269.236 304.725 269.122 305.067 268.894C305.421 268.666 305.681 268.362 305.846 267.982H308.164C307.986 268.577 307.695 269.115 307.29 269.597C306.884 270.065 306.384 270.439 305.789 270.718C305.193 270.984 304.522 271.117 303.775 271.117ZM314.088 271.117C313.315 271.117 312.65 270.965 312.093 270.661C311.548 270.344 311.13 269.875 310.839 269.255C310.547 268.621 310.402 267.842 310.402 266.918V261.313L312.682 261.313V266.69C312.682 267.513 312.853 268.14 313.195 268.571C313.549 268.989 314.081 269.198 314.791 269.198C315.247 269.198 315.652 269.09 316.007 268.875C316.374 268.659 316.659 268.349 316.862 267.944C317.077 267.526 317.185 267.019 317.185 266.424V261.313H319.465V270.889H317.451L317.28 269.293C316.988 269.85 316.564 270.293 316.007 270.623C315.462 270.952 314.822 271.117 314.088 271.117ZM322.002 275.069V261.313H324.035L324.282 262.7C324.484 262.421 324.725 262.161 325.004 261.921C325.295 261.667 325.643 261.465 326.049 261.313C326.467 261.161 326.942 261.085 327.474 261.085C328.373 261.085 329.165 261.306 329.849 261.75C330.545 262.193 331.09 262.795 331.483 263.555C331.875 264.302 332.072 265.157 332.072 266.12C332.072 267.082 331.869 267.944 331.464 268.704C331.071 269.451 330.526 270.04 329.83 270.471C329.146 270.901 328.36 271.117 327.474 271.117C326.752 271.117 326.118 270.984 325.574 270.718C325.042 270.439 324.611 270.046 324.282 269.54V275.069H322.002ZM326.999 269.141C327.531 269.141 328.006 269.014 328.424 268.761C328.842 268.507 329.165 268.153 329.393 267.697C329.633 267.241 329.754 266.715 329.754 266.12C329.754 265.512 329.633 264.98 329.393 264.524C329.165 264.068 328.842 263.713 328.424 263.46C328.006 263.206 327.531 263.08 326.999 263.08C326.454 263.08 325.973 263.206 325.555 263.46C325.149 263.713 324.826 264.068 324.586 264.524C324.358 264.98 324.244 265.505 324.244 266.101C324.244 266.709 324.358 267.241 324.586 267.697C324.826 268.14 325.149 268.495 325.555 268.761C325.973 269.014 326.454 269.141 326.999 269.141ZM338.125 270.889L342.989 257.589H345.535L350.399 270.889H347.986L344.243 260.249L340.5 270.889H338.125ZM340.291 267.754L340.899 265.949H347.454L348.062 267.754H340.291ZM352.153 270.889V261.313H354.186L354.395 263.099C354.623 262.681 354.908 262.326 355.25 262.035C355.592 261.731 355.991 261.496 356.447 261.332C356.916 261.167 357.429 261.085 357.986 261.085V263.498H357.188C356.808 263.498 356.447 263.548 356.105 263.65C355.763 263.738 355.465 263.89 355.212 264.106C354.971 264.308 354.781 264.593 354.642 264.961C354.503 265.315 354.433 265.765 354.433 266.31V270.889H352.153ZM363.866 270.889C363.22 270.889 362.656 270.787 362.175 270.585C361.706 270.382 361.339 270.046 361.073 269.578C360.807 269.109 360.674 268.476 360.674 267.678V263.232H359.04V261.313H360.674L360.94 258.786H362.954V261.313H365.557V263.232H362.954V267.678C362.954 268.159 363.055 268.495 363.258 268.685C363.473 268.862 363.828 268.951 364.322 268.951H365.5V270.889H363.866ZM367.797 270.889V261.313H370.077V270.889H367.797ZM368.937 259.793C368.519 259.793 368.17 259.666 367.892 259.413C367.626 259.147 367.493 258.824 367.493 258.444C367.493 258.051 367.626 257.734 367.892 257.494C368.17 257.24 368.519 257.114 368.937 257.114C369.355 257.114 369.697 257.24 369.963 257.494C370.241 257.734 370.381 258.051 370.381 258.444C370.381 258.824 370.241 259.147 369.963 259.413C369.697 259.666 369.355 259.793 368.937 259.793ZM376.53 271.117C375.682 271.117 374.941 270.984 374.307 270.718C373.687 270.439 373.193 270.059 372.825 269.578C372.471 269.084 372.262 268.52 372.198 267.887H374.478C374.542 268.153 374.656 268.4 374.82 268.628C374.985 268.843 375.207 269.014 375.485 269.141C375.777 269.267 376.119 269.331 376.511 269.331C376.891 269.331 377.202 269.28 377.442 269.179C377.683 269.065 377.86 268.919 377.974 268.742C378.088 268.564 378.145 268.374 378.145 268.172C378.145 267.868 378.063 267.633 377.898 267.469C377.734 267.304 377.493 267.177 377.176 267.089C376.872 266.987 376.505 266.892 376.074 266.804C375.618 266.715 375.175 266.607 374.744 266.481C374.326 266.341 373.946 266.17 373.604 265.968C373.275 265.765 373.009 265.505 372.806 265.189C372.616 264.872 372.521 264.486 372.521 264.03C372.521 263.472 372.667 262.972 372.958 262.529C373.262 262.085 373.693 261.737 374.25 261.484C374.82 261.218 375.498 261.085 376.283 261.085C377.398 261.085 378.285 261.344 378.943 261.864C379.615 262.37 380.007 263.086 380.121 264.011H377.955C377.892 263.656 377.715 263.384 377.423 263.194C377.132 262.991 376.746 262.89 376.264 262.89C375.77 262.89 375.39 262.985 375.124 263.175C374.871 263.352 374.744 263.593 374.744 263.897C374.744 264.087 374.82 264.264 374.972 264.429C375.137 264.581 375.371 264.714 375.675 264.828C375.979 264.929 376.353 265.03 376.796 265.132C377.506 265.271 378.133 265.436 378.677 265.626C379.222 265.816 379.653 266.094 379.969 266.462C380.286 266.829 380.444 267.348 380.444 268.02C380.457 268.628 380.299 269.166 379.969 269.635C379.653 270.103 379.203 270.471 378.62 270.737C378.038 270.99 377.341 271.117 376.53 271.117ZM386.484 270.889C385.838 270.889 385.274 270.787 384.793 270.585C384.324 270.382 383.957 270.046 383.691 269.578C383.425 269.109 383.292 268.476 383.292 267.678V263.232H381.658V261.313H383.292L383.558 258.786H385.572V261.313H388.175V263.232H385.572V267.678C385.572 268.159 385.673 268.495 385.876 268.685C386.091 268.862 386.446 268.951 386.94 268.951H388.118V270.889H386.484Z" fill="#232C07"/>
<rect x="86.9564" y="147.937" width="251.342" height="80.355" rx="40.1775" transform="rotate(4.63824 86.9564 147.937)" fill="#A5D80A"/>
<rect x="86.9564" y="147.937" width="251.342" height="80.355" rx="40.1775" transform="rotate(4.63824 86.9564 147.937)" stroke="#AADA18" stroke-width="1.64495"/>
<path d="M169.343 203.234C168.232 203.144 167.261 202.867 166.431 202.402C165.6 201.937 164.974 201.32 164.55 200.55C164.127 199.78 163.949 198.89 164.017 197.88L166.801 198.106C166.76 198.618 166.84 199.087 167.04 199.516C167.257 199.931 167.567 200.272 167.972 200.541C168.392 200.81 168.909 200.97 169.523 201.019C170.049 201.062 170.509 201.019 170.902 200.889C171.311 200.745 171.63 200.528 171.86 200.238C172.105 199.934 172.245 199.57 172.279 199.146C172.318 198.664 172.233 198.26 172.024 197.934C171.831 197.594 171.546 197.299 171.169 197.048C170.792 196.796 170.355 196.569 169.856 196.367C169.359 196.15 168.833 195.924 168.278 195.687C167.098 195.18 166.226 194.586 165.663 193.908C165.101 193.215 164.864 192.335 164.95 191.268C165.023 190.376 165.297 189.626 165.773 189.017C166.249 188.408 166.882 187.959 167.67 187.67C168.475 187.367 169.381 187.257 170.39 187.339C171.413 187.422 172.29 187.677 173.021 188.104C173.766 188.532 174.331 189.093 174.716 189.787C175.117 190.467 175.288 191.26 175.229 192.168L172.422 191.94C172.439 191.559 172.365 191.2 172.201 190.863C172.038 190.511 171.782 190.218 171.433 189.984C171.1 189.736 170.678 189.591 170.166 189.55C169.729 189.5 169.328 189.541 168.964 189.673C168.616 189.792 168.328 189.989 168.1 190.265C167.887 190.527 167.764 190.871 167.729 191.295C167.696 191.704 167.756 192.055 167.909 192.347C168.078 192.625 168.33 192.874 168.665 193.092C169.002 193.296 169.397 193.497 169.852 193.696C170.307 193.895 170.804 194.112 171.344 194.347C172.084 194.657 172.746 195.02 173.331 195.435C173.931 195.837 174.391 196.338 174.71 196.938C175.029 197.537 175.152 198.29 175.078 199.197C175.014 199.986 174.75 200.708 174.285 201.362C173.821 202.001 173.177 202.5 172.353 202.86C171.531 203.206 170.527 203.33 169.343 203.234ZM184.334 204.186L179.935 197.737L184.726 193.093L187.862 193.347L181.909 198.978L182.075 196.939L187.623 204.452L184.334 204.186ZM177.208 203.607L178.489 187.819L181.12 188.033L179.839 203.821L177.208 203.607ZM189.502 204.605L190.398 193.553L193.03 193.767L192.133 204.818L189.502 204.605ZM191.856 191.906C191.374 191.866 190.984 191.688 190.686 191.369C190.404 191.037 190.281 190.652 190.316 190.214C190.353 189.76 190.536 189.407 190.866 189.154C191.211 188.888 191.625 188.775 192.107 188.814C192.59 188.853 192.973 189.031 193.256 189.348C193.555 189.652 193.686 190.031 193.649 190.484C193.614 190.922 193.423 191.282 193.076 191.563C192.745 191.831 192.339 191.945 191.856 191.906ZM195.174 205.065L196.071 194.013L198.395 194.202L198.443 196.06C198.831 195.444 199.355 194.971 200.015 194.642C200.674 194.313 201.435 194.184 202.298 194.254C203.189 194.326 203.934 194.578 204.532 195.009C205.131 195.425 205.569 196.005 205.847 196.749C206.14 197.494 206.243 198.4 206.157 199.467L205.634 205.914L203.002 205.7L203.506 199.494C203.58 198.573 203.433 197.848 203.064 197.318C202.695 196.787 202.109 196.49 201.305 196.424C200.779 196.382 200.293 196.467 199.849 196.682C199.42 196.897 199.061 197.236 198.774 197.698C198.502 198.147 198.338 198.707 198.284 199.38L197.805 205.278L195.174 205.065ZM213.627 206.827C212.546 206.739 211.593 206.419 210.77 205.867C209.962 205.301 209.352 204.567 208.94 203.666C208.543 202.75 208.39 201.737 208.48 200.626C208.574 199.472 208.889 198.482 209.427 197.657C209.981 196.819 210.701 196.186 211.59 195.758C212.493 195.331 213.492 195.162 214.589 195.251C215.963 195.362 217.088 195.821 217.964 196.628C218.842 197.42 219.361 198.456 219.522 199.734L216.759 199.51C216.658 198.943 216.387 198.479 215.945 198.12C215.518 197.761 214.99 197.557 214.361 197.506C213.821 197.462 213.312 197.56 212.837 197.801C212.375 198.044 211.992 198.417 211.686 198.922C211.395 199.428 211.219 200.054 211.159 200.8C211.112 201.37 211.145 201.88 211.255 202.33C211.366 202.781 211.54 203.17 211.778 203.499C212.032 203.813 212.328 204.066 212.666 204.255C213.004 204.444 213.377 204.555 213.787 204.589C214.211 204.623 214.596 204.588 214.943 204.484C215.306 204.366 215.615 204.178 215.872 203.919C216.143 203.661 216.345 203.347 216.478 202.975L219.241 203.199C218.878 204.406 218.199 205.344 217.203 206.013C216.208 206.668 215.016 206.94 213.627 206.827ZM225.133 207.76C224.227 207.687 223.486 207.472 222.912 207.117C222.337 206.761 221.925 206.316 221.674 205.78C221.423 205.245 221.322 204.677 221.37 204.078C221.427 203.376 221.652 202.784 222.044 202.301C222.451 201.819 223.017 201.467 223.741 201.247C224.467 201.011 225.341 200.935 226.364 201.018L229.149 201.244C229.196 200.659 229.155 200.17 229.025 199.777C228.896 199.369 228.672 199.057 228.351 198.839C228.03 198.622 227.607 198.492 227.08 198.449C226.481 198.401 225.958 198.498 225.511 198.741C225.066 198.97 224.77 199.358 224.622 199.905L222.035 199.695C222.187 198.913 222.504 198.262 222.988 197.742C223.473 197.208 224.086 196.816 224.827 196.567C225.584 196.305 226.394 196.209 227.256 196.279C228.294 196.363 229.164 196.617 229.865 197.042C230.568 197.452 231.082 198.009 231.407 198.712C231.749 199.402 231.881 200.215 231.805 201.15L231.25 207.992L229.014 207.81L228.895 206.013C228.725 206.293 228.513 206.548 228.259 206.778C228.019 207.009 227.746 207.207 227.438 207.374C227.131 207.525 226.784 207.637 226.395 207.708C226.022 207.781 225.601 207.798 225.133 207.76ZM225.894 205.725C226.318 205.76 226.697 205.717 227.03 205.597C227.379 205.463 227.682 205.267 227.939 205.008C228.211 204.736 228.427 204.43 228.587 204.09C228.747 203.75 228.865 203.384 228.941 202.993L228.945 202.949L226.511 202.751C225.999 202.71 225.57 202.741 225.223 202.846C224.877 202.935 224.622 203.091 224.456 203.313C224.291 203.535 224.196 203.8 224.171 204.107C224.146 204.414 224.198 204.683 224.326 204.914C224.455 205.145 224.653 205.33 224.921 205.47C225.19 205.609 225.514 205.694 225.894 205.725ZM234.062 208.22L234.958 197.168L237.305 197.359L237.379 199.439C237.681 198.978 238.043 198.596 238.465 198.291C238.888 197.973 239.371 197.74 239.912 197.592C240.469 197.446 241.068 197.399 241.712 197.451L241.486 200.236L240.565 200.161C240.126 200.126 239.705 200.15 239.301 200.235C238.898 200.306 238.54 200.453 238.227 200.678C237.931 200.889 237.685 201.201 237.489 201.611C237.295 202.008 237.173 202.52 237.122 203.149L236.693 208.433L234.062 208.22ZM247.695 209.591C246.599 209.502 245.653 209.19 244.858 208.654C244.064 208.104 243.468 207.379 243.07 206.479C242.672 205.578 242.519 204.565 242.61 203.44C242.705 202.27 243.015 201.265 243.539 200.425C244.078 199.586 244.784 198.951 245.658 198.522C246.546 198.094 247.546 197.925 248.657 198.015C249.738 198.102 250.662 198.42 251.427 198.968C252.192 199.515 252.76 200.216 253.132 201.071C253.506 201.91 253.651 202.834 253.569 203.843C253.558 203.989 253.545 204.15 253.53 204.325C253.516 204.501 253.487 204.682 253.442 204.87L244.452 204.141L244.589 202.452L250.97 202.97C251.006 202.164 250.786 201.513 250.311 201.018C249.838 200.509 249.221 200.224 248.46 200.162C247.92 200.118 247.412 200.202 246.939 200.414C246.466 200.625 246.077 200.969 245.774 201.445C245.472 201.906 245.29 202.509 245.23 203.255L245.178 203.891C245.122 204.578 245.199 205.18 245.407 205.697C245.63 206.215 245.95 206.624 246.367 206.923C246.8 207.208 247.294 207.373 247.85 207.418C248.464 207.468 248.979 207.377 249.395 207.146C249.825 206.916 250.154 206.59 250.379 206.167L253.054 206.384C252.794 207.054 252.407 207.648 251.894 208.166C251.383 208.669 250.77 209.053 250.057 209.319C249.345 209.57 248.558 209.661 247.695 209.591Z" fill="#232C07"/>
<rect x="74.2815" y="1.50439" width="254.672" height="80.355" rx="40.1775" transform="rotate(2.52437 74.2815 1.50439)" fill="white"/>
<rect x="74.2815" y="1.50439" width="254.672" height="80.355" rx="40.1775" transform="rotate(2.52437 74.2815 1.50439)" stroke="#AADA18" stroke-width="1.64495"/>
<path d="M166.209 53.7939L166.887 38.4089L169.524 38.5251L168.846 53.9102L166.209 53.7939ZM156.494 53.3656L157.172 37.9806L159.81 38.0968L159.131 53.4819L156.494 53.3656ZM159.034 46.695L159.129 44.5411L167.107 44.8929L167.013 47.0468L159.034 46.695ZM175.562 54.4705C174.654 54.4305 173.906 54.2434 173.319 53.9092C172.731 53.575 172.303 53.145 172.032 52.6193C171.762 52.0935 171.64 51.5303 171.666 50.9295C171.697 50.2262 171.9 49.6259 172.274 49.1285C172.663 48.6318 173.215 48.2598 173.931 48.0124C174.647 47.7504 175.518 47.642 176.544 47.6872L179.335 47.8102C179.361 47.2242 179.302 46.7371 179.157 46.349C179.014 45.9463 178.777 45.6422 178.449 45.4369C178.12 45.2316 177.692 45.1173 177.165 45.094C176.564 45.0675 176.045 45.1841 175.608 45.4438C175.171 45.6888 174.889 46.0874 174.762 46.6397L172.169 46.5254C172.292 45.738 172.585 45.0756 173.049 44.5382C173.514 43.9861 174.112 43.5721 174.844 43.296C175.59 43.006 176.396 42.88 177.261 42.9181C178.301 42.964 179.179 43.1862 179.896 43.5848C180.613 43.9688 181.147 44.5062 181.498 45.197C181.865 45.8738 182.027 46.6811 181.986 47.6188L181.684 54.4762L179.442 54.3773L179.257 52.5854C179.097 52.872 178.895 53.1347 178.649 53.3734C178.419 53.6128 178.153 53.8213 177.851 53.9989C177.55 54.1618 177.207 54.2861 176.822 54.3719C176.451 54.4583 176.031 54.4912 175.562 54.4705ZM176.248 52.4087C176.672 52.4275 177.049 52.3707 177.378 52.2384C177.722 52.092 178.018 51.8848 178.264 51.6168C178.526 51.3347 178.731 51.0208 178.878 50.6749C179.026 50.3291 179.13 49.9593 179.192 49.5656L179.194 49.5217L176.754 49.4141C176.241 49.3915 175.813 49.4387 175.47 49.5557C175.128 49.6581 174.879 49.8233 174.722 50.0512C174.565 50.2792 174.48 50.5471 174.466 50.8548C174.453 51.1625 174.514 51.4294 174.651 51.6557C174.788 51.8819 174.993 52.0598 175.266 52.1893C175.539 52.3188 175.867 52.3919 176.248 52.4087ZM184.612 54.6052L185.1 43.528L187.738 43.6443L187.249 54.7215L184.612 54.6052ZM186.496 41.8279C186.013 41.8065 185.616 41.6422 185.307 41.335C185.013 41.0137 184.875 40.6333 184.895 40.1937C184.915 39.7395 185.085 39.38 185.405 39.1151C185.74 38.8363 186.149 38.7075 186.633 38.7289C187.116 38.7502 187.506 38.9141 187.8 39.2208C188.111 39.5134 188.256 39.8868 188.236 40.341C188.216 40.7806 188.038 41.1471 187.703 41.4406C187.382 41.7201 186.98 41.8492 186.496 41.8279ZM190.297 54.8559L190.785 43.7787L193.137 43.8823L193.288 45.959C193.573 45.4871 193.921 45.0914 194.331 44.7718C194.742 44.4376 195.216 44.1868 195.752 44.0196C196.302 43.853 196.9 43.784 197.544 43.8124L197.421 46.6037L196.498 46.563C196.059 46.5436 195.639 46.5838 195.238 46.6836C194.838 46.7687 194.486 46.9294 194.181 47.1655C193.893 47.3877 193.658 47.7077 193.479 48.1255C193.299 48.5287 193.196 49.0453 193.168 49.6753L192.934 54.9722L190.297 54.8559ZM204.038 55.7259C202.954 55.6781 201.99 55.3934 201.147 54.8718C200.319 54.3361 199.682 53.6254 199.237 52.7396C198.807 51.8398 198.616 50.8331 198.665 49.7195C198.716 48.5619 198.995 47.5613 199.502 46.7174C200.024 45.8596 200.722 45.2003 201.593 44.7396C202.48 44.2795 203.472 44.0737 204.571 44.1222C205.949 44.1829 207.09 44.6003 207.996 45.3742C208.902 46.1335 209.459 47.1491 209.667 48.4208L206.898 48.2987C206.776 47.7354 206.487 47.2823 206.033 46.9393C205.593 46.5969 205.058 46.4118 204.428 46.384C203.886 46.3601 203.381 46.4774 202.915 46.7358C202.463 46.9948 202.093 47.3822 201.806 47.8981C201.534 48.4146 201.381 49.0465 201.348 49.7937C201.323 50.3652 201.374 50.8739 201.501 51.32C201.629 51.766 201.817 52.1487 202.067 52.468C202.333 52.7733 202.638 53.0143 202.982 53.191C203.327 53.3677 203.704 53.4651 204.115 53.4832C204.54 53.5019 204.923 53.4527 205.266 53.3357C205.624 53.2047 205.927 53.0052 206.174 52.7371C206.435 52.4697 206.625 52.1478 206.745 51.7713L209.514 51.8934C209.196 53.1126 208.552 54.0751 207.581 54.7811C206.611 55.4724 205.43 55.7873 204.038 55.7259ZM215.57 56.2344C214.662 56.1943 213.914 56.0072 213.327 55.673C212.739 55.3388 212.311 54.9089 212.04 54.3831C211.77 53.8573 211.648 53.2941 211.674 52.6933C211.705 51.99 211.908 51.3897 212.282 50.8924C212.671 50.3957 213.223 50.0236 213.939 49.7763C214.655 49.5142 215.526 49.4058 216.552 49.451L219.343 49.5741C219.369 48.988 219.31 48.5009 219.165 48.1128C219.022 47.7101 218.785 47.4061 218.457 47.2007C218.128 46.9954 217.7 46.8811 217.173 46.8579C216.572 46.8314 216.053 46.948 215.616 47.2076C215.179 47.4526 214.897 47.8513 214.77 48.4035L212.177 48.2892C212.3 47.5018 212.593 46.8395 213.057 46.302C213.522 45.75 214.12 45.3359 214.852 45.0599C215.598 44.7698 216.404 44.6439 217.269 44.682C218.309 44.7278 219.187 44.9501 219.904 45.3487C220.621 45.7326 221.155 46.27 221.506 46.9608C221.873 47.6376 222.035 48.4449 221.994 49.3827L221.692 56.24L219.45 56.1412L219.265 54.3493C219.105 54.6359 218.903 54.8985 218.657 55.1373C218.427 55.3767 218.161 55.5852 217.859 55.7627C217.558 55.9256 217.215 56.05 216.83 56.1358C216.459 56.2222 216.039 56.255 215.57 56.2344ZM216.256 54.1726C216.68 54.1913 217.057 54.1345 217.386 54.0022C217.73 53.8559 218.026 53.6487 218.272 53.3806C218.534 53.0986 218.739 52.7846 218.886 52.4388C219.034 52.0929 219.138 51.7231 219.2 51.3295L219.202 51.2855L216.762 51.178C216.249 51.1553 215.821 51.2026 215.478 51.3196C215.136 51.4219 214.887 51.5871 214.73 51.8151C214.573 52.0431 214.488 52.3109 214.474 52.6186C214.461 52.9263 214.522 53.1933 214.659 53.4195C214.796 53.6458 215.001 53.8236 215.274 53.9531C215.548 54.0826 215.875 54.1558 216.256 54.1726ZM224.51 56.3642L224.998 45.287L227.35 45.3907L227.501 47.4673C227.786 46.9954 228.133 46.5997 228.544 46.2801C228.955 45.9459 229.429 45.6952 229.964 45.528C230.515 45.3614 231.113 45.2923 231.757 45.3207L231.634 48.112L230.711 48.0713C230.272 48.0519 229.851 48.0921 229.451 48.1919C229.05 48.277 228.698 48.4377 228.394 48.6739C228.106 48.896 227.871 49.216 227.691 49.6338C227.512 50.037 227.409 50.5536 227.381 51.1837L227.147 56.4805L224.51 56.3642ZM238.185 57.2314C237.086 57.1829 236.129 56.9059 235.315 56.4002C234.501 55.8798 233.878 55.1771 233.448 54.2919C233.017 53.4067 232.826 52.4 232.876 51.2718C232.928 50.0996 233.2 49.0839 233.693 48.2248C234.201 47.3663 234.883 46.7064 235.74 46.2451C236.612 45.7843 237.605 45.5785 238.718 45.6276C239.803 45.6754 240.737 45.9589 241.522 46.4779C242.306 46.997 242.9 47.6765 243.304 48.5164C243.708 49.3416 243.887 50.2598 243.843 51.2708C243.836 51.4173 243.829 51.5785 243.821 51.7543C243.814 51.9302 243.791 52.1127 243.753 52.3019L234.742 51.9046L234.817 50.2122L241.212 50.4942C241.219 49.687 240.975 49.045 240.483 48.5682C239.99 48.0767 239.363 47.8142 238.601 47.7806C238.059 47.7567 237.556 47.8592 237.09 48.0883C236.625 48.3174 236.25 48.6752 235.964 49.1617C235.679 49.6336 235.52 50.2432 235.487 50.9905L235.459 51.6279C235.429 52.3166 235.527 52.9155 235.754 53.4246C235.996 53.9344 236.331 54.3309 236.759 54.614C237.202 54.8831 237.702 55.03 238.259 55.0545C238.874 55.0817 239.385 54.9721 239.793 54.7258C240.215 54.4801 240.53 54.1417 240.74 53.7105L243.422 53.8287C243.186 54.5084 242.822 55.1162 242.328 55.6524C241.836 56.1738 241.238 56.5806 240.535 56.8725C239.833 57.1499 239.049 57.2695 238.185 57.2314Z" fill="#232C07"/>
<rect x="182.129" y="78.9511" width="215.356" height="80.355" rx="40.1775" transform="rotate(1.07698 182.129 78.9511)" fill="white"/>
<rect x="182.129" y="78.9511" width="215.356" height="80.355" rx="40.1775" transform="rotate(1.07698 182.129 78.9511)" stroke="#AADA18" stroke-width="1.64495"/>
<path d="M207.312 126.122L207.562 112.825L209.842 112.868L209.625 124.38L215.552 124.491L215.519 126.277L207.312 126.122ZM217.757 126.319L217.937 116.744L220.217 116.787L220.037 126.362L217.757 126.319ZM219.105 115.246C218.688 115.238 218.342 115.105 218.068 114.847C217.807 114.576 217.68 114.25 217.687 113.87C217.694 113.478 217.833 113.163 218.104 112.928C218.387 112.68 218.738 112.56 219.156 112.568C219.574 112.575 219.913 112.709 220.174 112.967C220.449 113.213 220.582 113.532 220.575 113.924C220.567 114.304 220.422 114.625 220.138 114.885C219.868 115.134 219.523 115.254 219.105 115.246ZM223.146 126.42L223.346 115.801C223.359 115.066 223.491 114.48 223.74 114.041C224.002 113.59 224.369 113.267 224.841 113.074C225.313 112.88 225.873 112.789 226.518 112.801L227.658 112.822L227.622 114.76L226.824 114.745C226.406 114.737 226.1 114.82 225.907 114.994C225.727 115.155 225.633 115.445 225.625 115.863L225.425 126.463L223.146 126.42ZM221.922 118.739L221.958 116.82L227.771 116.929L227.735 118.848L221.922 118.739ZM233.661 126.846C232.712 126.828 231.88 126.61 231.165 126.191C230.451 125.759 229.899 125.166 229.507 124.411C229.116 123.656 228.93 122.791 228.948 121.816C228.967 120.803 229.18 119.92 229.587 119.168C230.007 118.416 230.581 117.831 231.311 117.414C232.054 116.997 232.907 116.798 233.869 116.816C234.806 116.833 235.619 117.058 236.308 117.489C236.996 117.92 237.524 118.494 237.891 119.21C238.258 119.914 238.433 120.702 238.416 121.576C238.414 121.703 238.411 121.842 238.408 121.994C238.406 122.146 238.39 122.304 238.362 122.468L230.573 122.322L230.6 120.859L236.128 120.963C236.116 120.266 235.892 119.717 235.456 119.316C235.021 118.903 234.474 118.69 233.815 118.677C233.346 118.668 232.914 118.768 232.517 118.976C232.121 119.184 231.804 119.501 231.568 119.927C231.332 120.341 231.208 120.871 231.196 121.516L231.186 122.067C231.175 122.663 231.273 123.178 231.48 123.612C231.7 124.047 231.997 124.382 232.373 124.617C232.762 124.84 233.197 124.956 233.678 124.965C234.21 124.975 234.649 124.869 234.995 124.647C235.354 124.426 235.619 124.127 235.791 123.75L238.109 123.794C237.92 124.386 237.619 124.918 237.204 125.392C236.79 125.853 236.283 126.217 235.683 126.485C235.082 126.739 234.409 126.86 233.661 126.846ZM244.239 127.045C243.39 127.029 242.652 126.882 242.024 126.604C241.408 126.314 240.922 125.924 240.563 125.436C240.218 124.936 240.02 124.368 239.968 123.734L242.248 123.777C242.306 124.044 242.415 124.293 242.576 124.524C242.736 124.742 242.955 124.917 243.231 125.049C243.52 125.181 243.861 125.251 244.253 125.259C244.633 125.266 244.944 125.221 245.187 125.124C245.43 125.015 245.61 124.872 245.727 124.697C245.844 124.522 245.905 124.333 245.909 124.13C245.914 123.827 245.837 123.591 245.675 123.423C245.513 123.255 245.275 123.124 244.96 123.029C244.658 122.922 244.293 122.821 243.864 122.724C243.41 122.627 242.968 122.511 242.54 122.376C242.125 122.229 241.748 122.051 241.41 121.842C241.085 121.633 240.823 121.368 240.627 121.048C240.443 120.727 240.355 120.339 240.364 119.883C240.374 119.326 240.529 118.829 240.829 118.391C241.141 117.953 241.578 117.613 242.14 117.37C242.715 117.115 243.395 116.995 244.18 117.01C245.295 117.031 246.176 117.307 246.825 117.839C247.487 118.358 247.866 119.081 247.963 120.007L245.797 119.967C245.74 119.611 245.568 119.335 245.28 119.14C244.993 118.932 244.609 118.823 244.127 118.814C243.633 118.805 243.252 118.893 242.982 119.078C242.726 119.25 242.594 119.488 242.589 119.792C242.585 119.982 242.658 120.161 242.807 120.328C242.968 120.484 243.2 120.621 243.502 120.741C243.804 120.848 244.176 120.956 244.617 121.066C245.324 121.218 245.948 121.395 246.489 121.595C247.03 121.795 247.455 122.082 247.765 122.455C248.074 122.828 248.223 123.35 248.21 124.022C248.211 124.63 248.043 125.165 247.705 125.627C247.38 126.09 246.923 126.449 246.335 126.704C245.748 126.946 245.049 127.06 244.239 127.045ZM254.195 127.004C253.549 126.992 252.987 126.88 252.51 126.668C252.045 126.457 251.684 126.114 251.427 125.64C251.17 125.167 251.048 124.531 251.063 123.733L251.147 119.288L249.513 119.257L249.549 117.339L251.183 117.369L251.497 114.848L253.51 114.886L253.463 117.412L256.065 117.461L256.029 119.38L253.427 119.331L253.343 123.776C253.334 124.257 253.429 124.595 253.628 124.789C253.84 124.97 254.193 125.065 254.687 125.075L255.865 125.097L255.828 127.034L254.195 127.004ZM259.11 131.277L261.545 126.078L260.975 126.067L257.317 117.485L259.806 117.532L262.533 124.082L265.353 117.636L267.765 117.681L261.523 131.322L259.11 131.277ZM269.235 127.286L269.492 113.609L271.772 113.652L271.515 127.329L269.235 127.286ZM278.537 127.689C277.587 127.672 276.755 127.453 276.041 127.034C275.327 126.603 274.775 126.01 274.383 125.255C273.992 124.5 273.806 123.635 273.824 122.66C273.843 121.647 274.056 120.764 274.463 120.011C274.882 119.259 275.457 118.675 276.187 118.258C276.93 117.841 277.782 117.641 278.745 117.659C279.682 117.677 280.495 117.901 281.184 118.332C281.872 118.763 282.4 119.337 282.767 120.054C283.133 120.757 283.309 121.546 283.292 122.42C283.29 122.546 283.287 122.686 283.284 122.838C283.281 122.99 283.266 123.148 283.237 123.312L275.449 123.166L275.476 121.703L281.004 121.807C280.992 121.11 280.768 120.561 280.332 120.16C279.897 119.746 279.349 119.533 278.691 119.521C278.222 119.512 277.79 119.612 277.393 119.819C276.996 120.027 276.68 120.344 276.444 120.771C276.208 121.184 276.084 121.714 276.072 122.36L276.062 122.911C276.05 123.506 276.148 124.021 276.356 124.456C276.576 124.891 276.873 125.226 277.249 125.461C277.638 125.683 278.072 125.799 278.554 125.808C279.086 125.818 279.525 125.713 279.871 125.491C280.23 125.27 280.495 124.971 280.667 124.594L282.984 124.637C282.796 125.229 282.495 125.762 282.08 126.236C281.666 126.697 281.159 127.061 280.558 127.328C279.958 127.583 279.285 127.703 278.537 127.689ZM300.026 127.865L292.943 120.492C292.371 119.898 291.963 119.359 291.719 118.873C291.488 118.387 291.377 117.878 291.387 117.346C291.398 116.738 291.554 116.203 291.854 115.74C292.167 115.264 292.605 114.892 293.167 114.624C293.742 114.356 294.429 114.23 295.227 114.245C296.025 114.26 296.693 114.418 297.232 114.719C297.771 115.021 298.182 115.415 298.464 115.902C298.746 116.389 298.875 116.936 298.851 117.543L296.648 117.502C296.657 117.021 296.518 116.657 296.231 116.411C295.945 116.152 295.592 116.019 295.175 116.011C294.693 116.002 294.311 116.121 294.028 116.37C293.744 116.618 293.599 116.951 293.591 117.368C293.585 117.698 293.679 118.042 293.875 118.4C294.072 118.746 294.362 119.138 294.746 119.576L302.78 127.917L300.026 127.865ZM294.132 127.983C293.183 127.965 292.356 127.784 291.653 127.442C290.963 127.087 290.427 126.602 290.046 125.986C289.678 125.359 289.501 124.633 289.517 123.81C289.529 123.177 289.667 122.59 289.93 122.051C290.206 121.511 290.608 121.037 291.135 120.629C291.675 120.221 292.34 119.898 293.13 119.659L293.99 119.39L295.008 120.835L294.167 121.104C293.364 121.355 292.762 121.705 292.361 122.153C291.959 122.602 291.753 123.13 291.742 123.738C291.734 124.168 291.828 124.563 292.024 124.921C292.232 125.267 292.531 125.545 292.92 125.755C293.309 125.965 293.763 126.075 294.282 126.085C294.979 126.098 295.608 125.958 296.171 125.664C296.734 125.358 297.282 124.868 297.814 124.194C298.061 123.895 298.308 123.551 298.556 123.163C298.817 122.762 299.078 122.318 299.341 121.828L299.813 120.963L302.15 121.007L301.421 122.362C301.08 123.001 300.739 123.59 300.4 124.129C300.061 124.654 299.71 125.123 299.347 125.534C298.609 126.407 297.818 127.038 296.974 127.428C296.131 127.817 295.184 128.002 294.132 127.983ZM309.215 128.038L309.465 114.74L317.957 114.9L317.922 116.743L311.71 116.626L311.637 120.52L316.709 120.616L316.675 122.42L311.603 122.325L311.495 128.081L309.215 128.038ZM319.679 128.235L319.859 118.66L322.138 118.703L321.958 128.278L319.679 128.235ZM321.027 117.162C320.609 117.154 320.263 117.021 319.989 116.763C319.728 116.492 319.601 116.166 319.608 115.786C319.616 115.394 319.755 115.08 320.025 114.844C320.309 114.596 320.659 114.476 321.077 114.484C321.495 114.491 321.835 114.625 322.096 114.883C322.37 115.129 322.503 115.448 322.496 115.841C322.489 116.22 322.343 116.541 322.06 116.801C321.789 117.05 321.445 117.17 321.027 117.162ZM328.753 128.405C328.107 128.393 327.545 128.281 327.068 128.07C326.603 127.858 326.242 127.516 325.985 127.042C325.728 126.568 325.607 125.933 325.622 125.135L325.705 120.69L324.071 120.659L324.108 118.74L325.741 118.771L326.055 116.249L328.068 116.287L328.021 118.814L330.623 118.863L330.587 120.781L327.985 120.733L327.901 125.178C327.892 125.659 327.987 125.997 328.186 126.19C328.398 126.372 328.751 126.467 329.245 126.476L330.423 126.498L330.386 128.436L328.753 128.405ZM332.588 128.477L332.768 118.903L334.782 118.941L334.923 120.54C335.224 119.988 335.651 119.553 336.201 119.234C336.752 118.915 337.401 118.762 338.148 118.776C338.921 118.791 339.576 118.968 340.115 119.307C340.653 119.634 341.063 120.111 341.342 120.737C341.634 121.363 341.772 122.138 341.754 123.063L341.649 128.648L339.37 128.605L339.471 123.229C339.486 122.431 339.32 121.813 338.974 121.376C338.627 120.939 338.106 120.714 337.409 120.701C336.953 120.692 336.54 120.792 336.168 121C335.81 121.209 335.519 121.52 335.296 121.934C335.085 122.336 334.975 122.828 334.964 123.41L334.868 128.52L332.588 128.477ZM348.532 129.005C347.582 128.987 346.75 128.769 346.036 128.35C345.322 127.919 344.769 127.326 344.378 126.571C343.987 125.816 343.8 124.951 343.818 123.976C343.838 122.963 344.05 122.08 344.457 121.327C344.877 120.575 345.452 119.99 346.182 119.573C346.924 119.157 347.777 118.957 348.739 118.975C349.676 118.993 350.489 119.217 351.178 119.648C351.867 120.079 352.394 120.653 352.761 121.369C353.128 122.073 353.303 122.862 353.287 123.736C353.284 123.862 353.282 124.002 353.279 124.154C353.276 124.306 353.26 124.464 353.232 124.628L345.443 124.481L345.471 123.019L350.999 123.123C350.987 122.426 350.762 121.877 350.327 121.476C349.891 121.062 349.344 120.849 348.685 120.837C348.217 120.828 347.784 120.927 347.387 121.135C346.991 121.343 346.674 121.66 346.438 122.087C346.203 122.5 346.079 123.03 346.067 123.676L346.056 124.227C346.045 124.822 346.143 125.337 346.35 125.772C346.57 126.206 346.868 126.541 347.243 126.777C347.632 126.999 348.067 127.115 348.548 127.124C349.08 127.134 349.519 127.028 349.865 126.807C350.224 126.586 350.49 126.287 350.661 125.91L352.979 125.953C352.79 126.545 352.489 127.078 352.075 127.552C351.661 128.012 351.153 128.377 350.553 128.644C349.953 128.899 349.279 129.019 348.532 129.005ZM359.109 129.204C358.261 129.188 357.522 129.041 356.894 128.763C356.279 128.473 355.792 128.084 355.434 127.596C355.088 127.095 354.89 126.528 354.839 125.893L357.118 125.936C357.176 126.203 357.286 126.452 357.446 126.683C357.607 126.902 357.825 127.077 358.101 127.209C358.39 127.341 358.731 127.411 359.124 127.418C359.504 127.425 359.815 127.38 360.057 127.284C360.3 127.174 360.48 127.032 360.597 126.857C360.715 126.681 360.775 126.493 360.779 126.29C360.785 125.986 360.707 125.75 360.545 125.582C360.384 125.415 360.146 125.283 359.831 125.189C359.529 125.082 359.163 124.98 358.734 124.883C358.28 124.786 357.839 124.67 357.41 124.535C356.995 124.388 356.618 124.21 356.28 124.001C355.955 123.792 355.694 123.528 355.497 123.207C355.313 122.887 355.225 122.499 355.234 122.043C355.244 121.486 355.399 120.988 355.699 120.55C356.011 120.113 356.449 119.773 357.011 119.53C357.585 119.275 358.265 119.154 359.051 119.169C360.165 119.19 361.047 119.466 361.696 119.998C362.357 120.517 362.736 121.24 362.833 122.167L360.667 122.126C360.611 121.77 360.439 121.495 360.151 121.299C359.863 121.091 359.479 120.983 358.998 120.973C358.504 120.964 358.122 121.052 357.853 121.237C357.596 121.41 357.465 121.648 357.459 121.952C357.455 122.142 357.528 122.32 357.677 122.488C357.839 122.643 358.071 122.78 358.372 122.9C358.674 123.007 359.046 123.115 359.487 123.225C360.194 123.378 360.818 123.554 361.359 123.754C361.9 123.955 362.325 124.241 362.635 124.614C362.945 124.988 363.093 125.51 363.081 126.181C363.082 126.789 362.913 127.325 362.575 127.787C362.25 128.25 361.793 128.608 361.206 128.863C360.618 129.106 359.92 129.219 359.109 129.204ZM369.053 129.391C368.204 129.375 367.466 129.228 366.837 128.95C366.222 128.66 365.735 128.271 365.377 127.783C365.032 127.282 364.833 126.715 364.782 126.08L367.062 126.123C367.12 126.39 367.229 126.639 367.39 126.87C367.55 127.089 367.769 127.264 368.045 127.396C368.334 127.528 368.675 127.598 369.067 127.605C369.447 127.612 369.758 127.567 370.001 127.47C370.244 127.361 370.424 127.219 370.541 127.044C370.658 126.868 370.719 126.679 370.723 126.477C370.728 126.173 370.65 125.937 370.489 125.769C370.327 125.602 370.089 125.47 369.774 125.376C369.472 125.269 369.107 125.167 368.678 125.07C368.223 124.973 367.782 124.857 367.354 124.722C366.939 124.575 366.562 124.397 366.224 124.188C365.898 123.979 365.637 123.714 365.441 123.394C365.257 123.074 365.169 122.686 365.178 122.23C365.188 121.673 365.343 121.175 365.643 120.737C365.955 120.3 366.392 119.96 366.954 119.717C367.529 119.462 368.209 119.341 368.994 119.356C370.109 119.377 370.99 119.653 371.639 120.185C372.301 120.704 372.68 121.427 372.777 122.354L370.611 122.313C370.554 121.957 370.382 121.682 370.094 121.486C369.807 121.278 369.423 121.169 368.941 121.16C368.447 121.151 368.066 121.239 367.796 121.424C367.539 121.596 367.408 121.835 367.403 122.139C367.399 122.329 367.472 122.507 367.621 122.675C367.782 122.83 368.014 122.967 368.316 123.087C368.618 123.194 368.99 123.302 369.431 123.412C370.138 123.565 370.761 123.741 371.302 123.941C371.843 124.141 372.269 124.428 372.578 124.801C372.888 125.175 373.037 125.697 373.024 126.368C373.025 126.976 372.857 127.511 372.519 127.974C372.193 128.436 371.737 128.795 371.149 129.05C370.562 129.293 369.863 129.406 369.053 129.391Z" fill="#232C07"/>
</svg>
