<svg width="310" height="73" viewBox="0 0 310 73" fill="none" xmlns="http://www.w3.org/2000/svg">
<path d="M80.2144 72.0625C77.2213 72.0625 74.5149 71.4889 72.0953 70.3329C69.6757 69.1768 67.5876 67.6175 65.8222 65.637C64.0568 63.6655 62.6947 61.4341 61.7358 58.9607C60.7769 56.4873 60.293 53.9423 60.293 51.3344C60.293 48.7266 60.8038 46.0113 61.8164 43.5379C62.8291 41.0645 64.236 38.86 66.0194 36.9154C67.8027 34.9797 69.9266 33.4383 72.3821 32.3091C74.8375 31.18 77.5081 30.6064 80.3847 30.6064C83.2614 30.6064 86.0394 31.1979 88.477 32.3898C90.9145 33.5817 92.9936 35.1768 94.7231 37.1663C96.4527 39.1647 97.788 41.3872 98.729 43.8426C99.6699 46.2981 100.136 48.8342 100.136 51.442C100.136 54.0498 99.643 56.7114 98.6662 59.1847C97.6894 61.6581 96.3093 63.8716 94.517 65.8073C92.7337 67.743 90.6188 69.2754 88.1812 70.3867C85.7437 71.4979 83.0821 72.0535 80.2055 72.0535L80.2144 72.0625ZM68.3494 51.3344C68.3494 53.0999 68.6182 54.8115 69.1559 56.4604C69.6936 58.1094 70.4733 59.5791 71.4859 60.8606C72.4986 62.151 73.7532 63.1637 75.2318 63.9164C76.7105 64.6692 78.3863 65.0366 80.2682 65.0366C82.1501 65.0366 83.9335 64.6423 85.3942 63.8537C86.8549 63.0651 88.0916 62.0256 89.1043 60.7172C90.1169 59.4177 90.8787 57.9301 91.3805 56.2812C91.8823 54.6323 92.1333 52.9834 92.1333 51.3344C92.1333 49.569 91.8644 47.8753 91.3267 46.2353C90.789 44.6043 90.0004 43.1436 88.9699 41.8621C87.9303 40.5806 86.6847 39.559 85.2239 38.8062C83.7632 38.0535 82.0964 37.686 80.2144 37.686C78.3325 37.686 76.6478 38.0804 75.1781 38.869C73.6994 39.6576 72.4538 40.6882 71.4321 41.9786C70.4105 43.2691 69.6488 44.7208 69.129 46.3518C68.6093 47.9828 68.3494 49.6407 68.3494 51.3344Z" fill="white"/>
<path d="M123.75 72.0625C120.756 72.0625 118.05 71.4889 115.63 70.3329C113.211 69.1769 111.114 67.6175 109.357 65.637C107.592 63.6655 106.23 61.4341 105.271 58.9607C104.312 56.4873 103.828 53.9423 103.828 51.3345C103.828 48.7266 104.339 46.0113 105.352 43.5379C106.364 41.0645 107.771 38.86 109.555 36.9154C111.338 34.9797 113.462 33.4383 115.917 32.3091C118.373 31.18 121.043 30.6064 123.92 30.6064C126.797 30.6064 129.575 31.1979 132.012 32.3898C134.45 33.5817 136.529 35.1768 138.258 37.1663C139.988 39.1647 141.323 41.3872 142.264 43.8426C143.205 46.2981 143.671 48.8342 143.671 51.442C143.671 54.0498 143.178 56.7114 142.201 59.1847C141.225 61.6581 139.844 63.8716 138.052 65.8073C136.269 67.743 134.154 69.2754 131.716 70.3867C129.279 71.4979 126.617 72.0535 123.741 72.0535L123.75 72.0625ZM111.885 51.3345C111.885 53.0999 112.153 54.8115 112.691 56.4604C113.229 58.1094 114.008 59.5791 115.021 60.8606C116.034 62.151 117.288 63.1637 118.767 63.9164C120.246 64.6692 121.921 65.0366 123.803 65.0366C125.685 65.0366 127.469 64.6423 128.929 63.8537C130.39 63.0651 131.627 62.0256 132.639 60.7172C133.652 59.4177 134.414 57.9301 134.916 56.2812C135.417 54.6323 135.668 52.9834 135.668 51.3345C135.668 49.569 135.4 47.8753 134.862 46.2353C134.324 44.6043 133.536 43.1436 132.505 41.8621C131.465 40.5806 130.22 39.559 128.759 38.8062C127.298 38.0535 125.632 37.686 123.75 37.686C121.868 37.686 120.183 38.0804 118.713 38.869C117.235 39.6576 115.989 40.6882 114.967 41.9786C113.946 43.2691 113.184 44.7208 112.664 46.3518C112.144 47.9828 111.885 49.6407 111.885 51.3345Z" fill="white"/>
<path d="M183.234 70.7006V44.9452L173.135 64.087C172.866 64.5979 172.328 64.9205 171.755 64.9205H169.21C168.627 64.9205 168.098 64.5979 167.83 64.087L157.784 44.9452V70.7006C157.784 71.2921 157.3 71.776 156.708 71.776H149.844V30.8936H155.31C157.228 30.8936 158.976 31.96 159.863 33.6627L169.828 52.8851C170.097 53.3959 170.832 53.3959 171.1 52.8851L181.173 33.6447C182.06 31.96 183.808 30.9025 185.708 30.9025H191.129V71.785H184.319C183.727 71.785 183.243 71.3011 183.243 70.7096L183.234 70.7006Z" fill="white"/>
<path d="M213.058 30.8936H216.517C217.897 30.8936 219.143 31.7539 219.618 33.0533L233.32 70.3243C233.58 71.0322 233.06 71.776 232.307 71.776H226.455C225.989 71.776 225.577 71.4803 225.434 71.0412L222.279 61.5868H207.269L204.096 71.0412C203.953 71.4803 203.541 71.776 203.075 71.776H197.223C196.47 71.776 195.95 71.0322 196.21 70.3243L209.966 33.0533C210.441 31.7539 211.678 30.8936 213.058 30.8936ZM220.415 56.0037L214.788 39.1292L209.133 56.0037H220.406H220.415Z" fill="white"/>
<path d="M238.34 70.7005V33.5191C238.34 32.0673 239.514 30.9023 240.957 30.9023H256.469C258.315 30.9023 260.027 31.2877 261.622 32.0584C263.217 32.8291 264.597 33.8596 265.771 35.168C266.945 36.4764 267.842 37.9282 268.478 39.5413C269.114 41.1543 269.428 42.8033 269.428 44.488C269.428 46.1728 269.132 47.8665 268.532 49.4348C267.94 51.012 267.08 52.401 265.969 53.6109C264.857 54.8207 263.549 55.7527 262.052 56.3979L270.387 70.1359C270.826 70.8528 270.306 71.7759 269.464 71.7759H263.226C262.85 71.7759 262.5 71.5787 262.303 71.2651L254.211 58.0737H246.262V70.7005C246.262 71.2919 245.778 71.7759 245.187 71.7759H239.398C238.806 71.7759 238.322 71.2919 238.322 70.7005H238.34ZM246.289 51.1016H256.254C257.249 51.1016 258.136 50.8059 258.907 50.2055C259.678 49.614 260.287 48.8164 260.753 47.8127C261.21 46.818 261.443 45.6978 261.443 44.4701C261.443 43.2424 261.174 42.0684 260.636 41.0737C260.099 40.0789 259.427 39.2903 258.62 38.7168C257.814 38.1433 256.926 37.8565 255.976 37.8565H246.298V51.1016H246.289Z" fill="white"/>
<path d="M273.927 50.9939C273.927 48.4578 274.375 45.9934 275.28 43.5917C276.185 41.19 277.512 39.0124 279.25 37.0587C280.998 35.1051 283.112 33.5369 285.613 32.3629C288.104 31.1889 290.927 30.6064 294.081 30.6064C297.845 30.6064 301.098 31.4309 303.84 33.0798C306.045 34.4061 307.793 36.0551 309.065 38.0266C309.585 38.8242 309.388 39.8906 308.608 40.4372L305.463 42.6239C304.656 43.1884 303.545 42.9733 303.007 42.1489C302.469 41.3244 301.86 40.6613 301.161 40.1057C300.05 39.2274 298.849 38.5912 297.558 38.2058C296.268 37.8205 295.031 37.6323 293.848 37.6323C291.85 37.6323 290.111 38.0355 288.642 38.8421C287.163 39.6486 285.935 40.7061 284.959 42.0055C283.982 43.3139 283.238 44.7746 282.745 46.3787C282.243 47.9918 281.992 49.6228 281.992 51.2717C281.992 53.0371 282.279 54.7578 282.853 56.4246C283.426 58.0914 284.242 59.5701 285.299 60.8606C286.357 62.151 287.62 63.1637 289.099 63.9164C290.577 64.6692 292.199 65.0366 293.965 65.0366C295.193 65.0366 296.465 64.8216 297.765 64.4004C299.064 63.9792 300.274 63.3071 301.394 62.384C302.12 61.7836 302.756 61.0577 303.303 60.2153C303.805 59.4357 304.844 59.2027 305.642 59.6776L309.137 61.7388C309.961 62.2227 310.248 63.2981 309.764 64.1226C308.958 65.4937 307.873 66.7035 306.538 67.752C304.71 69.1768 302.676 70.2433 300.435 70.9781C298.186 71.713 295.954 72.0714 293.723 72.0714C290.801 72.0714 288.14 71.462 285.747 70.2612C283.345 69.0514 281.266 67.4383 279.501 65.422C277.736 63.4056 276.364 61.1473 275.388 58.6291C274.411 56.1109 273.918 53.5748 273.918 51.0029L273.927 50.9939Z" fill="white"/>
<path d="M49.7713 59.3641C50.4793 58.7816 57.3259 52.9028 56.5552 44.2998C55.7845 35.6967 47.8356 28.178 38.8114 28.6978C32.368 29.0652 26.5699 33.4653 23.9711 39.8549C23.8098 40.2492 23.9263 40.7062 24.2489 40.993C24.93 41.6024 25.7992 42.2745 26.8746 42.8928C27.8873 43.4843 28.8551 43.8875 29.6886 44.1833C30.1814 44.3535 30.7281 44.1116 30.9342 43.6277C31.3464 42.6688 32.0902 41.3604 33.3717 40.1775C34.017 39.5771 35.7555 38.0267 38.4977 37.6414C39.143 37.5518 42.2616 37.1216 44.95 39.2544C45.2726 39.5143 47.2621 41.1364 47.8177 43.9144C48.7497 48.6103 44.7081 52.5444 44.1256 53.109C37.7898 59.2834 26.8657 56.1917 26.2653 56.0125C17.3665 53.3599 10.9858 44.9809 9.7402 36.1089C9.45343 34.0926 8.53039 26.6456 13.3607 19.8975C18.9706 12.0741 29.5452 9.8696 36.3559 11.4468C43.6506 13.1406 47.9163 18.2038 49.4666 20.3187C49.6817 20.6145 50.1029 20.6772 50.3986 20.4532C52.7555 18.7057 55.1124 16.9582 57.4693 15.2196C57.756 15.0046 57.8277 14.5923 57.6127 14.2966C55.7935 11.7067 52.406 7.68299 46.9305 4.63607C43.0771 2.49427 34.2948 -1.24269 23.6306 1.51746C12.4914 4.41203 3.79871 13.4721 0.868288 24.45C0.680096 25.14 -3.15544 40.527 6.95316 53.1806C10.9679 58.2081 15.6638 60.8876 18.4956 62.2318C18.4687 65.2877 18.4418 68.3525 18.415 71.4084C18.415 71.7758 18.7107 72.0715 19.0871 72.0715H28.6401C29.0075 72.0715 29.3122 71.7758 29.3122 71.4084C29.3122 69.2666 29.3122 67.1248 29.3301 64.9919C31.0955 65.1532 33.3269 65.1981 35.881 64.8575C38.0228 64.5707 39.8599 64.0868 41.3385 63.585C42.6021 66.2824 43.8657 68.9888 45.1293 71.6862C45.2368 71.9192 45.4788 72.0715 45.7297 72.0715H56.0265C56.5462 72.0715 56.8689 71.507 56.609 71.0678C54.3327 67.1696 52.0565 63.2713 49.7803 59.3731L49.7713 59.3641Z" fill="#AFDC27"/>
</svg>
