<svg width="48" height="49" viewBox="0 0 48 49" fill="none" xmlns="http://www.w3.org/2000/svg">
<rect y="0.776367" width="48" height="48" rx="24" fill="#F8FFDE"/>
<path d="M31.7618 19.9306C31.1786 20.1886 30.5601 20.358 29.9269 20.4333C30.5943 20.0341 31.0939 19.4059 31.3324 18.6656C30.7061 19.0384 30.0193 19.2997 29.3036 19.441C28.8228 18.9266 28.1855 18.5854 27.4908 18.4705C26.7961 18.3557 26.083 18.4735 25.4622 18.8058C24.8414 19.138 24.3477 19.6661 24.058 20.3078C23.7683 20.9496 23.6987 21.6691 23.8601 22.3545C22.5898 22.2908 21.3471 21.9607 20.2127 21.3856C19.0783 20.8105 18.0775 20.0033 17.2754 19.0163C16.9914 19.504 16.8422 20.0584 16.843 20.6227C16.843 21.7304 17.4068 22.7089 18.2638 23.2818C17.7566 23.2659 17.2606 23.1289 16.817 22.8823V22.922C16.8172 23.6597 17.0725 24.3747 17.5396 24.9456C18.0067 25.5166 18.6568 25.9084 19.3799 26.0547C18.909 26.1823 18.4153 26.2011 17.9361 26.1097C18.14 26.7447 18.5373 27.3 19.0725 27.698C19.6077 28.0959 20.2539 28.3165 20.9206 28.3288C20.258 28.8493 19.4992 29.234 18.6877 29.4611C17.8762 29.6881 17.028 29.7529 16.1914 29.6519C17.6517 30.591 19.3517 31.0896 21.0879 31.088C26.9645 31.088 30.1782 26.2197 30.1782 21.9977C30.1782 21.8602 30.1744 21.7212 30.1683 21.5852C30.7938 21.1331 31.3337 20.5731 31.7625 19.9314L31.7618 19.9306Z" fill="#242C07"/>
</svg>
