<svg width="199" height="76" viewBox="0 0 199 76" fill="none" xmlns="http://www.w3.org/2000/svg">
<rect x="1.00391" y="0.375" width="196.686" height="74.2882" rx="9.625" fill="#FEFEFE"/>
<rect x="1.00391" y="0.375" width="196.686" height="74.2882" rx="9.625" stroke="#C4C4C3" stroke-width="0.75"/>
<g clip-path="url(#clip0_94_3182)">
<path d="M46.0526 47.5439C45.5291 48.7632 44.8826 49.9259 44.1232 51.014C43.1076 52.4611 42.2767 53.4625 41.6365 54.0189C40.6441 54.9313 39.5799 55.3995 38.4409 55.4257C37.6235 55.4257 36.6378 55.1931 35.4898 54.7212C34.3381 54.2515 33.2799 54.0182 32.3121 54.0182C31.2973 54.0182 30.2092 54.2515 29.0447 54.7212C27.8788 55.1931 26.9395 55.4391 26.2215 55.463C25.1297 55.5102 24.0408 55.0293 22.9534 54.0189C22.2601 53.4132 21.3933 52.3766 20.3538 50.9078C19.2387 49.3388 18.3219 47.52 17.6039 45.4454C16.8351 43.2056 16.4492 41.036 16.4492 38.936C16.4492 36.5301 16.969 34.4556 18.01 32.7168C18.8289 31.3198 19.9171 30.2189 21.2797 29.4097C22.6165 28.6098 24.1418 28.1793 25.6995 28.1623C26.5671 28.1623 27.7046 28.4308 29.1188 28.958C30.5285 29.4868 31.4334 29.7552 31.8305 29.7552C32.1267 29.7552 33.1326 29.4411 34.8369 28.8159C36.4493 28.2356 37.8097 27.9955 38.924 28.0905C41.9446 28.3343 44.2136 29.5249 45.7221 31.6698C43.0216 33.3061 41.6851 35.5983 41.712 38.5389C41.736 40.8296 42.5668 42.7359 44.2002 44.2488C44.9406 44.9518 45.767 45.4948 46.6861 45.8799C46.4934 46.4414 46.2821 46.9964 46.0526 47.5439V47.5439ZM39.1259 20.2873C39.1259 22.0822 38.4701 23.7589 37.1628 25.3099C35.5848 27.1549 33.677 28.2206 31.6077 28.0524C31.5798 27.8266 31.5659 27.5993 31.5658 27.3718C31.5658 25.6487 32.3159 23.8045 33.6486 22.2961C34.3142 21.5325 35.1593 20.8976 36.1853 20.3913C37.2099 19.8924 38.1776 19.6165 39.0885 19.5686C39.1147 19.8087 39.1259 20.0487 39.1259 20.2866V20.2873Z" fill="#242C07"/>
</g>
<path d="M61.1852 16.9911C62.257 16.9911 63.1831 17.1932 63.9634 17.5975C64.7532 17.9924 65.3549 18.5612 65.7686 19.3039C66.1916 20.0466 66.4032 20.921 66.4032 21.927C66.4032 22.9329 66.1916 23.8073 65.7686 24.55C65.3549 25.2834 64.7532 25.8475 63.9634 26.2424C63.1831 26.6278 62.257 26.8206 61.1852 26.8206H58.125V16.9911H61.1852ZM61.1852 25.7629C62.4544 25.7629 63.4228 25.4291 64.0903 24.7616C64.7579 24.0847 65.0916 23.1398 65.0916 21.927C65.0916 20.7047 64.7532 19.7505 64.0762 19.0641C63.4087 18.3778 62.445 18.0347 61.1852 18.0347H59.4083V25.7629H61.1852ZM71.4664 26.9475C70.7425 26.9475 70.0844 26.7829 69.4921 26.4539C68.9092 26.1248 68.4485 25.6594 68.11 25.0577C67.781 24.4466 67.6164 23.7415 67.6164 22.9424C67.6164 22.1526 67.7857 21.4569 68.1241 20.8552C68.472 20.2441 68.9421 19.7787 69.5344 19.459C70.1267 19.13 70.7895 18.9654 71.5228 18.9654C72.2562 18.9654 72.919 19.13 73.5113 19.459C74.1036 19.7787 74.569 20.2394 74.9075 20.8411C75.2553 21.4428 75.4292 22.1432 75.4292 22.9424C75.4292 23.7415 75.2506 24.4466 74.8934 25.0577C74.5455 25.6594 74.0707 26.1248 73.469 26.4539C72.8673 26.7829 72.1998 26.9475 71.4664 26.9475ZM71.4664 25.8193C71.9271 25.8193 72.3596 25.7112 72.7639 25.4949C73.1681 25.2787 73.4925 24.9543 73.7369 24.5218C73.9908 24.0894 74.1177 23.5629 74.1177 22.9424C74.1177 22.3218 73.9955 21.7953 73.751 21.3629C73.5066 20.9304 73.1869 20.6107 72.7921 20.4039C72.3972 20.1877 71.9694 20.0795 71.5087 20.0795C71.0386 20.0795 70.6062 20.1877 70.2113 20.4039C69.8258 20.6107 69.5156 20.9304 69.2805 21.3629C69.0455 21.7953 68.928 22.3218 68.928 22.9424C68.928 23.5723 69.0408 24.1035 69.2664 24.5359C69.5015 24.9684 69.8117 25.2928 70.1972 25.509C70.5827 25.7159 71.0057 25.8193 71.4664 25.8193ZM87.4115 19.0924L84.9999 26.8206H83.6743L81.8128 20.6859L79.9512 26.8206H78.6256L76.1999 19.0924H77.5115L79.2884 25.5795L81.2063 19.0924H82.5179L84.3935 25.5936L86.1422 19.0924H87.4115ZM92.4505 18.9513C93.3907 18.9513 94.1522 19.2381 94.7351 19.8116C95.318 20.3757 95.6095 21.1936 95.6095 22.2654V26.8206H94.3402V22.4488C94.3402 21.6778 94.1475 21.0902 93.762 20.6859C93.3766 20.2723 92.8501 20.0654 92.1825 20.0654C91.5056 20.0654 90.965 20.277 90.5607 20.7C90.1659 21.1231 89.9684 21.7389 89.9684 22.5475V26.8206H88.6851V19.0924H89.9684V20.1924C90.2223 19.7975 90.5654 19.4919 90.9979 19.2757C91.4398 19.0594 91.924 18.9513 92.4505 18.9513ZM98.9891 16.3847V26.8206H97.7058V16.3847H98.9891ZM104.547 26.9475C103.823 26.9475 103.165 26.7829 102.572 26.4539C101.99 26.1248 101.529 25.6594 101.19 25.0577C100.861 24.4466 100.697 23.7415 100.697 22.9424C100.697 22.1526 100.866 21.4569 101.205 20.8552C101.552 20.2441 102.022 19.7787 102.615 19.459C103.207 19.13 103.87 18.9654 104.603 18.9654C105.337 18.9654 105.999 19.13 106.592 19.459C107.184 19.7787 107.649 20.2394 107.988 20.8411C108.336 21.4428 108.51 22.1432 108.51 22.9424C108.51 23.7415 108.331 24.4466 107.974 25.0577C107.626 25.6594 107.151 26.1248 106.549 26.4539C105.948 26.7829 105.28 26.9475 104.547 26.9475ZM104.547 25.8193C105.008 25.8193 105.44 25.7112 105.844 25.4949C106.249 25.2787 106.573 24.9543 106.817 24.5218C107.071 24.0894 107.198 23.5629 107.198 22.9424C107.198 22.3218 107.076 21.7953 106.831 21.3629C106.587 20.9304 106.267 20.6107 105.872 20.4039C105.478 20.1877 105.05 20.0795 104.589 20.0795C104.119 20.0795 103.687 20.1877 103.292 20.4039C102.906 20.6107 102.596 20.9304 102.361 21.3629C102.126 21.7953 102.008 22.3218 102.008 22.9424C102.008 23.5723 102.121 24.1035 102.347 24.5359C102.582 24.9684 102.892 25.2928 103.278 25.509C103.663 25.7159 104.086 25.8193 104.547 25.8193ZM109.718 22.9282C109.718 22.1385 109.877 21.4475 110.197 20.8552C110.517 20.2535 110.954 19.7881 111.509 19.459C112.073 19.13 112.698 18.9654 113.384 18.9654C114.061 18.9654 114.649 19.1112 115.147 19.4026C115.645 19.6941 116.017 20.0607 116.261 20.5026V19.0924H117.559V26.8206H116.261V25.3821C116.007 25.8334 115.627 26.2094 115.119 26.5103C114.621 26.8018 114.038 26.9475 113.37 26.9475C112.684 26.9475 112.063 26.7782 111.509 26.4398C110.954 26.1013 110.517 25.6265 110.197 25.0154C109.877 24.4043 109.718 23.7086 109.718 22.9282ZM116.261 22.9424C116.261 22.3594 116.144 21.8518 115.909 21.4193C115.674 20.9868 115.354 20.6577 114.95 20.4321C114.555 20.1971 114.118 20.0795 113.638 20.0795C113.159 20.0795 112.721 20.1924 112.327 20.418C111.932 20.6436 111.617 20.9727 111.382 21.4052C111.147 21.8377 111.029 22.3453 111.029 22.9282C111.029 23.5206 111.147 24.0377 111.382 24.4795C111.617 24.912 111.932 25.2458 112.327 25.4808C112.721 25.7065 113.159 25.8193 113.638 25.8193C114.118 25.8193 114.555 25.7065 114.95 25.4808C115.354 25.2458 115.674 24.912 115.909 24.4795C116.144 24.0377 116.261 23.5253 116.261 22.9424ZM119.248 22.9282C119.248 22.1385 119.408 21.4475 119.727 20.8552C120.047 20.2535 120.484 19.7881 121.039 19.459C121.603 19.13 122.233 18.9654 122.929 18.9654C123.53 18.9654 124.09 19.1065 124.607 19.3885C125.124 19.6612 125.519 20.0231 125.791 20.4744V16.3847H127.089V26.8206H125.791V25.368C125.538 25.8287 125.161 26.2094 124.663 26.5103C124.165 26.8018 123.582 26.9475 122.914 26.9475C122.228 26.9475 121.603 26.7782 121.039 26.4398C120.484 26.1013 120.047 25.6265 119.727 25.0154C119.408 24.4043 119.248 23.7086 119.248 22.9282ZM125.791 22.9424C125.791 22.3594 125.674 21.8518 125.439 21.4193C125.204 20.9868 124.884 20.6577 124.48 20.4321C124.085 20.1971 123.648 20.0795 123.168 20.0795C122.689 20.0795 122.252 20.1924 121.857 20.418C121.462 20.6436 121.147 20.9727 120.912 21.4052C120.677 21.8377 120.559 22.3453 120.559 22.9282C120.559 23.5206 120.677 24.0377 120.912 24.4795C121.147 24.912 121.462 25.2458 121.857 25.4808C122.252 25.7065 122.689 25.8193 123.168 25.8193C123.648 25.8193 124.085 25.7065 124.48 25.4808C124.884 25.2458 125.204 24.912 125.439 24.4795C125.674 24.0377 125.791 23.5253 125.791 22.9424ZM136.388 26.9475C135.664 26.9475 135.006 26.7829 134.413 26.4539C133.831 26.1248 133.37 25.6594 133.031 25.0577C132.702 24.4466 132.538 23.7415 132.538 22.9424C132.538 22.1526 132.707 21.4569 133.045 20.8552C133.393 20.2441 133.863 19.7787 134.456 19.459C135.048 19.13 135.711 18.9654 136.444 18.9654C137.178 18.9654 137.84 19.13 138.433 19.459C139.025 19.7787 139.49 20.2394 139.829 20.8411C140.177 21.4428 140.351 22.1432 140.351 22.9424C140.351 23.7415 140.172 24.4466 139.815 25.0577C139.467 25.6594 138.992 26.1248 138.39 26.4539C137.789 26.7829 137.121 26.9475 136.388 26.9475ZM136.388 25.8193C136.848 25.8193 137.281 25.7112 137.685 25.4949C138.09 25.2787 138.414 24.9543 138.658 24.5218C138.912 24.0894 139.039 23.5629 139.039 22.9424C139.039 22.3218 138.917 21.7953 138.672 21.3629C138.428 20.9304 138.108 20.6107 137.713 20.4039C137.319 20.1877 136.891 20.0795 136.43 20.0795C135.96 20.0795 135.528 20.1877 135.133 20.4039C134.747 20.6107 134.437 20.9304 134.202 21.3629C133.967 21.7953 133.849 22.3218 133.849 22.9424C133.849 23.5723 133.962 24.1035 134.188 24.5359C134.423 24.9684 134.733 25.2928 135.119 25.509C135.504 25.7159 135.927 25.8193 136.388 25.8193ZM145.803 18.9513C146.744 18.9513 147.505 19.2381 148.088 19.8116C148.671 20.3757 148.962 21.1936 148.962 22.2654V26.8206H147.693V22.4488C147.693 21.6778 147.5 21.0902 147.115 20.6859C146.729 20.2723 146.203 20.0654 145.535 20.0654C144.858 20.0654 144.318 20.277 143.914 20.7C143.519 21.1231 143.321 21.7389 143.321 22.5475V26.8206H142.038V19.0924H143.321V20.1924C143.575 19.7975 143.918 19.4919 144.351 19.2757C144.793 19.0594 145.277 18.9513 145.803 18.9513ZM156.384 20.15V24.7052C156.384 25.0812 156.464 25.3492 156.624 25.509C156.783 25.6594 157.061 25.7347 157.456 25.7347H158.4V26.8206H157.244C156.53 26.8206 155.994 26.656 155.636 26.327C155.279 25.9979 155.1 25.4573 155.1 24.7052V20.15H154.099V19.0924H155.1V17.1462H156.384V19.0924H158.4V20.15H156.384ZM163.791 18.9513C164.374 18.9513 164.901 19.0782 165.371 19.3321C165.841 19.5765 166.208 19.9479 166.471 20.4462C166.743 20.9445 166.88 21.5509 166.88 22.2654V26.8206H165.611V22.4488C165.611 21.6778 165.418 21.0902 165.032 20.6859C164.647 20.2723 164.12 20.0654 163.453 20.0654C162.776 20.0654 162.235 20.277 161.831 20.7C161.436 21.1231 161.239 21.7389 161.239 22.5475V26.8206H159.955V16.3847H161.239V20.1924C161.493 19.7975 161.84 19.4919 162.282 19.2757C162.734 19.0594 163.237 18.9513 163.791 18.9513ZM176.027 22.6603C176.027 22.9047 176.013 23.1633 175.985 23.4359H169.808C169.855 24.1975 170.114 24.7945 170.584 25.227C171.063 25.65 171.641 25.8616 172.318 25.8616C172.873 25.8616 173.334 25.7347 173.7 25.4808C174.077 25.2176 174.34 24.8697 174.49 24.4372H175.872C175.665 25.18 175.252 25.7864 174.631 26.2565C174.011 26.7171 173.24 26.9475 172.318 26.9475C171.585 26.9475 170.927 26.7829 170.344 26.4539C169.771 26.1248 169.319 25.6594 168.99 25.0577C168.661 24.4466 168.497 23.7415 168.497 22.9424C168.497 22.1432 168.656 21.4428 168.976 20.8411C169.296 20.2394 169.742 19.7787 170.316 19.459C170.899 19.13 171.566 18.9654 172.318 18.9654C173.052 18.9654 173.7 19.1253 174.265 19.4449C174.829 19.7646 175.261 20.2065 175.562 20.7706C175.872 21.3253 176.027 21.9552 176.027 22.6603ZM174.702 22.3924C174.702 21.9035 174.594 21.4851 174.377 21.1372C174.161 20.78 173.865 20.512 173.489 20.3334C173.122 20.1453 172.713 20.0513 172.262 20.0513C171.613 20.0513 171.059 20.2582 170.598 20.6718C170.147 21.0855 169.888 21.659 169.822 22.3924H174.702Z" fill="#B3B3B3"/>
<path d="M67.1724 50.9077H61.2032L60.1775 53.8206H57.7365L62.8442 39.5436H65.5519L70.6596 53.8206H68.198L67.1724 50.9077ZM66.516 49L64.198 42.3744L61.8596 49H66.516ZM75.2189 44.1795C75.6155 43.6599 76.1556 43.2223 76.8394 42.8667C77.5231 42.5112 78.2958 42.3334 79.1573 42.3334C80.1419 42.3334 81.0377 42.5795 81.8445 43.0718C82.665 43.5505 83.3078 44.2274 83.7727 45.1026C84.2377 45.9778 84.4702 46.9829 84.4702 48.118C84.4702 49.253 84.2377 50.2718 83.7727 51.1744C83.3078 52.0633 82.665 52.7607 81.8445 53.2667C81.0377 53.759 80.1419 54.0052 79.1573 54.0052C78.2958 54.0052 77.53 53.8342 76.8599 53.4924C76.1898 53.1368 75.6428 52.6992 75.2189 52.1795V59.1949H72.8804V42.518H75.2189V44.1795ZM82.0907 48.118C82.0907 47.3385 81.9266 46.6684 81.5984 46.1077C81.2838 45.5334 80.8599 45.1026 80.3266 44.8154C79.8069 44.5146 79.2462 44.3641 78.6445 44.3641C78.0565 44.3641 77.4958 44.5146 76.9625 44.8154C76.4428 45.1163 76.0189 45.5539 75.6907 46.1282C75.3761 46.7026 75.2189 47.3795 75.2189 48.159C75.2189 48.9385 75.3761 49.6223 75.6907 50.2103C76.0189 50.7847 76.4428 51.2223 76.9625 51.5231C77.4958 51.824 78.0565 51.9744 78.6445 51.9744C79.2462 51.9744 79.8069 51.824 80.3266 51.5231C80.8599 51.2086 81.2838 50.7573 81.5984 50.1693C81.9266 49.5812 82.0907 48.8975 82.0907 48.118ZM89.1211 44.1795C89.5177 43.6599 90.0579 43.2223 90.7416 42.8667C91.4254 42.5112 92.198 42.3334 93.0596 42.3334C94.0442 42.3334 94.9399 42.5795 95.7468 43.0718C96.5673 43.5505 97.21 44.2274 97.675 45.1026C98.1399 45.9778 98.3724 46.9829 98.3724 48.118C98.3724 49.253 98.1399 50.2718 97.675 51.1744C97.21 52.0633 96.5673 52.7607 95.7468 53.2667C94.9399 53.759 94.0442 54.0052 93.0596 54.0052C92.198 54.0052 91.4322 53.8342 90.7621 53.4924C90.0921 53.1368 89.545 52.6992 89.1211 52.1795V59.1949H86.7827V42.518H89.1211V44.1795ZM95.9929 48.118C95.9929 47.3385 95.8288 46.6684 95.5006 46.1077C95.1861 45.5334 94.7621 45.1026 94.2288 44.8154C93.7091 44.5146 93.1485 44.3641 92.5468 44.3641C91.9587 44.3641 91.398 44.5146 90.8647 44.8154C90.345 45.1163 89.9211 45.5539 89.5929 46.1282C89.2784 46.7026 89.1211 47.3795 89.1211 48.159C89.1211 48.9385 89.2784 49.6223 89.5929 50.2103C89.9211 50.7847 90.345 51.2223 90.8647 51.5231C91.398 51.824 91.9587 51.9744 92.5468 51.9744C93.1485 51.9744 93.7091 51.824 94.2288 51.5231C94.7621 51.2086 95.1861 50.7573 95.5006 50.1693C95.8288 49.5812 95.9929 48.8975 95.9929 48.118ZM110.711 53.9641C109.754 53.9641 108.892 53.8 108.126 53.4718C107.36 53.13 106.759 52.6513 106.321 52.0359C105.884 51.4206 105.665 50.7026 105.665 49.8821H108.167C108.222 50.4975 108.461 51.0035 108.885 51.4C109.323 51.7966 109.931 51.9949 110.711 51.9949C111.518 51.9949 112.147 51.8035 112.598 51.4206C113.049 51.024 113.275 50.518 113.275 49.9026C113.275 49.424 113.131 49.0342 112.844 48.7334C112.571 48.4325 112.222 48.2 111.798 48.0359C111.388 47.8718 110.813 47.6941 110.075 47.5026C109.145 47.2565 108.386 47.0103 107.798 46.7641C107.224 46.5043 106.731 46.1077 106.321 45.5744C105.911 45.0411 105.706 44.33 105.706 43.4411C105.706 42.6206 105.911 41.9026 106.321 41.2872C106.731 40.6718 107.306 40.2 108.044 39.8718C108.783 39.5436 109.637 39.3795 110.608 39.3795C111.989 39.3795 113.118 39.7282 113.993 40.4257C114.882 41.1094 115.374 42.053 115.47 43.2565H112.885C112.844 42.7368 112.598 42.2924 112.147 41.9231C111.695 41.5539 111.101 41.3693 110.362 41.3693C109.692 41.3693 109.145 41.5402 108.721 41.8821C108.297 42.224 108.085 42.7163 108.085 43.359C108.085 43.7966 108.215 44.159 108.475 44.4462C108.748 44.7197 109.09 44.9385 109.501 45.1026C109.911 45.2667 110.472 45.4445 111.183 45.6359C112.126 45.8958 112.892 46.1556 113.48 46.4154C114.082 46.6753 114.588 47.0787 114.998 47.6257C115.422 48.159 115.634 48.877 115.634 49.7795C115.634 50.5043 115.436 51.1881 115.039 51.8308C114.656 52.4735 114.089 52.9932 113.336 53.3898C112.598 53.7727 111.723 53.9641 110.711 53.9641ZM121.121 44.4257V50.6821C121.121 51.106 121.217 51.4137 121.409 51.6052C121.614 51.7829 121.956 51.8718 122.434 51.8718H123.87V53.8206H122.024C120.971 53.8206 120.164 53.5744 119.603 53.0821C119.043 52.5898 118.762 51.7898 118.762 50.6821V44.4257H117.429V42.518H118.762V39.7077H121.121V42.518H123.87V44.4257H121.121ZM130.928 54.0052C129.861 54.0052 128.897 53.7659 128.036 53.2872C127.174 52.7949 126.497 52.1112 126.005 51.2359C125.513 50.3471 125.266 49.3214 125.266 48.159C125.266 47.0103 125.519 45.9915 126.025 45.1026C126.531 44.2137 127.222 43.53 128.097 43.0513C128.972 42.5727 129.95 42.3334 131.031 42.3334C132.111 42.3334 133.089 42.5727 133.964 43.0513C134.839 43.53 135.53 44.2137 136.036 45.1026C136.542 45.9915 136.795 47.0103 136.795 48.159C136.795 49.3077 136.535 50.3265 136.015 51.2154C135.496 52.1043 134.784 52.7949 133.882 53.2872C132.993 53.7659 132.008 54.0052 130.928 54.0052ZM130.928 51.9744C131.53 51.9744 132.09 51.8308 132.61 51.5436C133.143 51.2565 133.574 50.8257 133.902 50.2513C134.231 49.677 134.395 48.9795 134.395 48.159C134.395 47.3385 134.237 46.6479 133.923 46.0872C133.608 45.5129 133.191 45.0821 132.672 44.7949C132.152 44.5077 131.591 44.3641 130.99 44.3641C130.388 44.3641 129.827 44.5077 129.307 44.7949C128.802 45.0821 128.398 45.5129 128.097 46.0872C127.796 46.6479 127.646 47.3385 127.646 48.159C127.646 49.3761 127.954 50.3197 128.569 50.9898C129.198 51.6462 129.984 51.9744 130.928 51.9744ZM141.445 44.159C141.787 43.5847 142.238 43.1402 142.799 42.8257C143.373 42.4975 144.05 42.3334 144.829 42.3334V44.7539H144.235C143.318 44.7539 142.621 44.9864 142.142 45.4513C141.677 45.9163 141.445 46.7231 141.445 47.8718V53.8206H139.106V42.518H141.445V44.159ZM157.338 47.8924C157.338 48.3163 157.311 48.6992 157.256 49.0411H148.62C148.688 49.9436 149.023 50.6684 149.625 51.2154C150.227 51.7624 150.965 52.0359 151.841 52.0359C153.099 52.0359 153.988 51.5094 154.507 50.4565H157.03C156.688 51.4958 156.066 52.3505 155.164 53.0206C154.275 53.677 153.167 54.0052 151.841 54.0052C150.76 54.0052 149.789 53.7659 148.928 53.2872C148.08 52.7949 147.41 52.1112 146.917 51.2359C146.439 50.3471 146.199 49.3214 146.199 48.159C146.199 46.9966 146.432 45.9778 146.897 45.1026C147.376 44.2137 148.039 43.53 148.887 43.0513C149.748 42.5727 150.733 42.3334 151.841 42.3334C152.907 42.3334 153.858 42.5659 154.692 43.0308C155.526 43.4958 156.176 44.1522 156.641 45C157.105 45.8342 157.338 46.7983 157.338 47.8924ZM154.897 47.1539C154.883 46.2924 154.576 45.6018 153.974 45.0821C153.372 44.5624 152.627 44.3026 151.738 44.3026C150.931 44.3026 150.241 44.5624 149.666 45.0821C149.092 45.5881 148.75 46.2787 148.641 47.1539H154.897Z" fill="#242C07"/>
<defs>
<clipPath id="clip0_94_3182">
<rect width="35.8974" height="35.8974" fill="white" transform="translate(13.4492 19.5703)"/>
</clipPath>
</defs>
</svg>
