<svg width="37" height="37" viewBox="0 0 37 37" fill="none" xmlns="http://www.w3.org/2000/svg">
<g clip-path="url(#clip0_679_8382)">
<path d="M33.0526 28.5439C32.5291 29.7632 31.8826 30.9259 31.1232 32.014C30.1076 33.4611 29.2767 34.4625 28.6365 35.0189C27.6441 35.9313 26.5799 36.3994 25.4409 36.4256C24.6235 36.4256 23.6378 36.193 22.4898 35.7211C21.3381 35.2515 20.2799 35.0181 19.3121 35.0181C18.2973 35.0181 17.2092 35.2515 16.0447 35.7211C14.8788 36.193 13.9395 36.4391 13.2215 36.463C12.1297 36.5101 11.0408 36.0293 9.95339 35.0189C9.26012 34.4131 8.39334 33.3766 7.35381 31.9078C6.23875 30.3388 5.32187 28.52 4.60392 26.4454C3.83512 24.2055 3.44922 22.036 3.44922 19.936C3.44922 17.5301 3.96898 15.4555 5.01001 13.7168C5.82892 12.3197 6.91706 11.2189 8.27967 10.4097C9.61646 9.60975 11.1418 9.17925 12.6995 9.16227C13.5671 9.16227 14.7046 9.43075 16.1188 9.958C17.5285 10.4867 18.4334 10.7552 18.8305 10.7552C19.1267 10.7552 20.1326 10.4411 21.8369 9.8159C23.4493 9.23556 24.8097 8.9955 25.924 9.09048C28.9446 9.33428 31.2136 10.5249 32.7221 12.6697C30.0216 14.3061 28.6851 16.5983 28.712 19.5389C28.736 21.8296 29.5668 23.7359 31.2002 25.2488C31.9406 25.9518 32.767 26.4947 33.6861 26.8799C33.4934 27.4414 33.2821 27.9964 33.0526 28.5439ZM26.1259 1.28727C26.1259 3.08214 25.4701 4.75885 24.1628 6.30992C22.5848 8.1549 20.677 9.2206 18.6077 9.05233C18.5798 8.82655 18.5659 8.59927 18.5658 8.37178C18.5658 6.6487 19.3159 4.80447 20.6486 3.29603C21.3142 2.53246 22.1593 1.89753 23.1853 1.39122C24.2099 0.892398 25.1776 0.616436 26.0885 0.568573C26.1147 0.808637 26.1259 1.0487 26.1259 1.28652V1.28727Z" fill="#242C07"/>
</g>
<defs>
<clipPath id="clip0_679_8382">
<rect width="35.8974" height="35.8974" fill="white" transform="translate(0.448242 0.570374)"/>
</clipPath>
</defs>
</svg>
