<svg width="177" height="185" viewBox="0 0 177 185" fill="none" xmlns="http://www.w3.org/2000/svg">
<path d="M62.8063 160.184C49.9193 154.714 39.984 147.238 33.0006 137.755C26.0693 128.15 22.1976 117.309 21.3854 105.231C20.6253 93.0312 23.0325 80.3649 28.6069 67.2323C34.1813 54.0998 41.6206 43.5694 50.9247 35.6412C60.2287 27.713 70.7429 22.9058 82.4672 21.2194C94.1915 19.5331 106.497 21.425 119.384 26.8952C134.971 33.5116 146.13 42.8833 152.86 55.0103C159.59 67.1372 161.161 80.8403 157.572 96.1194L129.22 84.0848C130.665 76.5866 129.653 69.9284 126.184 64.1104C122.889 58.2217 117.192 53.5582 109.091 50.1198C101.605 46.9418 94.4057 45.9863 87.4946 47.2533C80.7583 48.4497 74.5981 51.7012 69.0141 57.0079C63.43 62.3145 58.7364 69.4477 54.9333 78.4072C51.1302 87.3668 49.2595 95.6982 49.3212 103.401C49.435 110.982 51.3753 117.672 55.142 123.471C59.0836 129.2 64.7978 133.653 72.2845 136.831C80.385 140.27 87.6193 141.313 93.9873 139.96C100.408 138.485 105.744 134.956 109.996 129.374L138.348 141.408C130.215 153.744 119.475 161.642 106.128 165.103C92.8343 168.44 78.3935 166.801 62.8063 160.184Z" fill="#D5FF3C"/>
</svg>
