<svg width="351" height="105" viewBox="0 0 351 105" fill="none" xmlns="http://www.w3.org/2000/svg">
<g filter="url(#filter0_dddd_94_3224)">
<rect x="4" y="2.89844" width="320" height="64" rx="12" fill="white"/>
<rect x="4.5" y="3.39844" width="319" height="63" rx="11.5" stroke="#C9C9C9"/>
<circle cx="42.5" cy="34.8984" r="18" fill="#A5D80A"/>
<path d="M48.0291 30.6684C47.9591 30.6584 47.8891 30.6584 47.8191 30.6684C46.2691 30.6184 45.0391 29.3484 45.0391 27.7884C45.0391 26.1984 46.3291 24.8984 47.9291 24.8984C49.5191 24.8984 50.8191 26.1884 50.8191 27.7884C50.8091 29.3484 49.5791 30.6184 48.0291 30.6684Z" fill="white"/>
<path d="M51.2896 37.5984C50.1696 38.3484 48.5996 38.6284 47.1496 38.4384C47.5296 37.6184 47.7296 36.7084 47.7396 35.7484C47.7396 34.7484 47.5196 33.7984 47.0996 32.9684C48.5796 32.7684 50.1496 33.0484 51.2796 33.7984C52.8596 34.8384 52.8596 36.5484 51.2896 37.5984Z" fill="white"/>
<path d="M36.9402 30.6684C37.0102 30.6584 37.0802 30.6584 37.1502 30.6684C38.7002 30.6184 39.9302 29.3484 39.9302 27.7884C39.9302 26.1884 38.6402 24.8984 37.0402 24.8984C35.4502 24.8984 34.1602 26.1884 34.1602 27.7884C34.1602 29.3484 35.3902 30.6184 36.9402 30.6684Z" fill="white"/>
<path d="M37.0491 35.7485C37.0491 36.7185 37.2591 37.6385 37.6391 38.4685C36.2291 38.6185 34.7591 38.3185 33.6791 37.6085C32.0991 36.5585 32.0991 34.8485 33.6791 33.7985C34.7491 33.0785 36.2591 32.7885 37.6791 32.9485C37.2691 33.7885 37.0491 34.7385 37.0491 35.7485Z" fill="white"/>
<path d="M42.6208 38.7684C42.5408 38.7584 42.4508 38.7584 42.3608 38.7684C40.5208 38.7084 39.0508 37.1984 39.0508 35.3384C39.0608 33.4384 40.5908 31.8984 42.5008 31.8984C44.4008 31.8984 45.9408 33.4384 45.9408 35.3384C45.9308 37.1984 44.4708 38.7084 42.6208 38.7684Z" fill="white"/>
<path d="M39.3708 40.8383C37.8608 41.8483 37.8608 43.5083 39.3708 44.5083C41.0908 45.6583 43.9108 45.6583 45.6308 44.5083C47.1408 43.4983 47.1408 41.8383 45.6308 40.8383C43.9208 39.6883 41.1008 39.6883 39.3708 40.8383Z" fill="white"/>
<path d="M81.6552 43.6864C80.0072 43.6864 78.5832 43.3264 77.3832 42.6064C76.1992 41.8704 75.2792 40.8544 74.6232 39.5584C73.9832 38.2464 73.6632 36.7264 73.6632 34.9984C73.6632 33.2864 73.9832 31.7744 74.6232 30.4624C75.2792 29.1504 76.1992 28.1344 77.3832 27.4144C78.5832 26.6784 80.0072 26.3104 81.6552 26.3104C83.6232 26.3104 85.2152 26.7824 86.4312 27.7264C87.6632 28.6704 88.4472 29.9984 88.7832 31.7104H86.1432C85.9032 30.7184 85.4072 29.9264 84.6552 29.3344C83.9192 28.7424 82.9192 28.4464 81.6552 28.4464C80.5192 28.4464 79.5352 28.7104 78.7032 29.2384C77.8712 29.7664 77.2312 30.5184 76.7832 31.4944C76.3352 32.4704 76.1112 33.6384 76.1112 34.9984C76.1112 36.3584 76.3352 37.5344 76.7832 38.5264C77.2312 39.5024 77.8712 40.2544 78.7032 40.7824C79.5352 41.2944 80.5192 41.5504 81.6552 41.5504C82.9192 41.5504 83.9192 41.2704 84.6552 40.7104C85.4072 40.1344 85.9032 39.3584 86.1432 38.3824H88.7832C88.4472 40.0464 87.6632 41.3504 86.4312 42.2944C85.2152 43.2224 83.6232 43.6864 81.6552 43.6864ZM97.0543 43.6864C95.9183 43.6864 94.8943 43.4224 93.9823 42.8944C93.0863 42.3664 92.3743 41.6304 91.8463 40.6864C91.3343 39.7264 91.0783 38.6224 91.0783 37.3744C91.0783 36.0944 91.3423 34.9824 91.8703 34.0384C92.3983 33.0784 93.1183 32.3344 94.0303 31.8064C94.9423 31.2784 95.9663 31.0144 97.1023 31.0144C98.2543 31.0144 99.2783 31.2784 100.174 31.8064C101.07 32.3344 101.774 33.0704 102.286 34.0144C102.814 34.9584 103.078 36.0704 103.078 37.3504C103.078 38.6304 102.814 39.7424 102.286 40.6864C101.774 41.6304 101.062 42.3664 100.15 42.8944C99.2383 43.4224 98.2063 43.6864 97.0543 43.6864ZM97.0543 41.6224C97.7103 41.6224 98.3023 41.4624 98.8303 41.1424C99.3743 40.8224 99.8063 40.3504 100.126 39.7264C100.462 39.0864 100.63 38.2944 100.63 37.3504C100.63 36.4064 100.47 35.6224 100.15 34.9984C99.8303 34.3584 99.3983 33.8784 98.8543 33.5584C98.3263 33.2384 97.7423 33.0784 97.1023 33.0784C96.4623 33.0784 95.8703 33.2384 95.3263 33.5584C94.7823 33.8784 94.3423 34.3584 94.0063 34.9984C93.6863 35.6224 93.5263 36.4064 93.5263 37.3504C93.5263 38.2944 93.6863 39.0864 94.0063 39.7264C94.3423 40.3504 94.7743 40.8224 95.3023 41.1424C95.8463 41.4624 96.4303 41.6224 97.0543 41.6224ZM105.902 43.3984V31.3024H108.062L108.23 33.0064C108.614 32.3824 109.126 31.8944 109.766 31.5424C110.406 31.1904 111.126 31.0144 111.926 31.0144C112.534 31.0144 113.086 31.1024 113.582 31.2784C114.078 31.4384 114.518 31.6864 114.902 32.0224C115.286 32.3584 115.598 32.7744 115.838 33.2704C116.27 32.5664 116.846 32.0144 117.566 31.6144C118.302 31.2144 119.078 31.0144 119.894 31.0144C120.87 31.0144 121.71 31.2144 122.414 31.6144C123.118 31.9984 123.654 32.5824 124.022 33.3664C124.39 34.1344 124.574 35.0944 124.574 36.2464V43.3984H122.198V36.4864C122.198 35.3664 121.966 34.5184 121.502 33.9424C121.054 33.3664 120.39 33.0784 119.51 33.0784C118.918 33.0784 118.39 33.2304 117.926 33.5344C117.462 33.8384 117.094 34.2784 116.822 34.8544C116.566 35.4304 116.438 36.1344 116.438 36.9664V43.3984H114.038V36.4864C114.038 35.3664 113.806 34.5184 113.342 33.9424C112.894 33.3664 112.23 33.0784 111.35 33.0784C110.79 33.0784 110.278 33.2304 109.814 33.5344C109.35 33.8384 108.982 34.2784 108.71 34.8544C108.438 35.4304 108.302 36.1344 108.302 36.9664V43.3984H105.902ZM127.675 43.3984V31.3024H129.835L130.003 33.0064C130.387 32.3824 130.899 31.8944 131.539 31.5424C132.179 31.1904 132.899 31.0144 133.699 31.0144C134.307 31.0144 134.859 31.1024 135.355 31.2784C135.851 31.4384 136.291 31.6864 136.675 32.0224C137.059 32.3584 137.371 32.7744 137.611 33.2704C138.043 32.5664 138.619 32.0144 139.339 31.6144C140.075 31.2144 140.851 31.0144 141.667 31.0144C142.643 31.0144 143.483 31.2144 144.187 31.6144C144.891 31.9984 145.427 32.5824 145.795 33.3664C146.163 34.1344 146.347 35.0944 146.347 36.2464V43.3984H143.971V36.4864C143.971 35.3664 143.739 34.5184 143.275 33.9424C142.827 33.3664 142.163 33.0784 141.283 33.0784C140.691 33.0784 140.163 33.2304 139.699 33.5344C139.235 33.8384 138.867 34.2784 138.595 34.8544C138.339 35.4304 138.211 36.1344 138.211 36.9664V43.3984H135.811V36.4864C135.811 35.3664 135.579 34.5184 135.115 33.9424C134.667 33.3664 134.003 33.0784 133.123 33.0784C132.563 33.0784 132.051 33.2304 131.587 33.5344C131.123 33.8384 130.755 34.2784 130.483 34.8544C130.211 35.4304 130.075 36.1344 130.075 36.9664V43.3984H127.675ZM153.888 43.6864C152.944 43.6864 152.12 43.4944 151.416 43.1104C150.728 42.7264 150.192 42.1504 149.808 41.3824C149.44 40.6144 149.256 39.6464 149.256 38.4784V31.3024H151.656V38.2144C151.656 39.3504 151.904 40.2064 152.4 40.7824C152.896 41.3584 153.608 41.6464 154.536 41.6464C155.16 41.6464 155.72 41.4944 156.216 41.1904C156.728 40.8864 157.128 40.4464 157.416 39.8704C157.704 39.2944 157.848 38.5904 157.848 37.7584V31.3024H160.248V43.3984H158.112L157.944 41.3344C157.576 42.0704 157.04 42.6464 156.336 43.0624C155.632 43.4784 154.816 43.6864 153.888 43.6864ZM163.534 43.3984V31.3024H165.694L165.838 33.3664C166.222 32.6464 166.766 32.0784 167.47 31.6624C168.174 31.2304 168.982 31.0144 169.894 31.0144C170.854 31.0144 171.678 31.2064 172.366 31.5904C173.054 31.9744 173.59 32.5584 173.974 33.3424C174.358 34.1104 174.55 35.0784 174.55 36.2464V43.3984H172.15V36.4864C172.15 35.3664 171.902 34.5184 171.406 33.9424C170.91 33.3664 170.19 33.0784 169.246 33.0784C168.622 33.0784 168.062 33.2304 167.566 33.5344C167.07 33.8224 166.67 34.2544 166.366 34.8304C166.078 35.4064 165.934 36.1104 165.934 36.9424V43.3984H163.534ZM177.788 43.3984V31.3024H180.188V43.3984H177.788ZM179.012 29.0224C178.548 29.0224 178.164 28.8784 177.86 28.5904C177.572 28.3024 177.428 27.9344 177.428 27.4864C177.428 27.0544 177.572 26.7024 177.86 26.4304C178.164 26.1424 178.548 25.9984 179.012 25.9984C179.46 25.9984 179.836 26.1424 180.14 26.4304C180.444 26.7024 180.596 27.0544 180.596 27.4864C180.596 27.9344 180.444 28.3024 180.14 28.5904C179.836 28.8784 179.46 29.0224 179.012 29.0224ZM188.612 43.3984C187.844 43.3984 187.18 43.2784 186.62 43.0384C186.06 42.7984 185.628 42.3984 185.324 41.8384C185.02 41.2784 184.868 40.5184 184.868 39.5584V33.3424H182.78V31.3024H184.868L185.156 28.2784H187.268V31.3024H190.7V33.3424H187.268V39.5824C187.268 40.2704 187.412 40.7424 187.7 40.9984C187.988 41.2384 188.484 41.3584 189.188 41.3584H190.58V43.3984H188.612ZM194.739 48.6784L197.691 42.0544H196.995L192.219 31.3024H194.811L198.603 40.0864L202.419 31.3024H204.939L197.259 48.6784H194.739ZM218.814 43.6864C217.582 43.6864 216.502 43.4704 215.574 43.0384C214.646 42.5904 213.926 41.9664 213.414 41.1664C212.902 40.3664 212.646 39.4304 212.646 38.3584H215.166C215.182 38.9664 215.326 39.5264 215.598 40.0384C215.886 40.5344 216.294 40.9344 216.822 41.2384C217.366 41.5264 218.03 41.6704 218.814 41.6704C219.486 41.6704 220.062 41.5584 220.542 41.3344C221.038 41.1104 221.414 40.8064 221.67 40.4224C221.926 40.0224 222.054 39.5664 222.054 39.0544C222.054 38.4624 221.918 37.9744 221.646 37.5904C221.374 37.2064 221.006 36.8944 220.542 36.6544C220.094 36.3984 219.566 36.1744 218.958 35.9824C218.366 35.7904 217.742 35.5824 217.086 35.3584C215.758 34.9264 214.766 34.3664 214.11 33.6784C213.47 32.9904 213.15 32.0944 213.15 30.9904C213.15 30.0464 213.374 29.2304 213.822 28.5424C214.27 27.8384 214.894 27.2944 215.694 26.9104C216.51 26.5104 217.47 26.3104 218.574 26.3104C219.662 26.3104 220.614 26.5104 221.43 26.9104C222.246 27.3104 222.886 27.8624 223.35 28.5664C223.814 29.2704 224.046 30.0944 224.046 31.0384H221.502C221.502 30.6064 221.39 30.1824 221.166 29.7664C220.942 29.3504 220.606 29.0144 220.158 28.7584C219.71 28.4864 219.158 28.3504 218.502 28.3504C217.958 28.3344 217.47 28.4224 217.038 28.6144C216.606 28.8064 216.27 29.0864 216.03 29.4544C215.79 29.8224 215.67 30.2624 215.67 30.7744C215.67 31.2864 215.774 31.7024 215.982 32.0224C216.206 32.3264 216.526 32.5904 216.942 32.8144C217.358 33.0384 217.838 33.2464 218.382 33.4384C218.942 33.6144 219.558 33.8144 220.23 34.0384C221.062 34.3104 221.798 34.6464 222.438 35.0464C223.094 35.4304 223.606 35.9344 223.974 36.5584C224.358 37.1664 224.55 37.9504 224.55 38.9104C224.55 39.7424 224.334 40.5184 223.902 41.2384C223.47 41.9584 222.83 42.5504 221.982 43.0144C221.134 43.4624 220.078 43.6864 218.814 43.6864ZM231.724 43.6864C230.78 43.6864 229.956 43.4944 229.252 43.1104C228.564 42.7264 228.028 42.1504 227.644 41.3824C227.276 40.6144 227.092 39.6464 227.092 38.4784V31.3024H229.492V38.2144C229.492 39.3504 229.74 40.2064 230.236 40.7824C230.732 41.3584 231.444 41.6464 232.372 41.6464C232.996 41.6464 233.556 41.4944 234.052 41.1904C234.564 40.8864 234.964 40.4464 235.252 39.8704C235.54 39.2944 235.684 38.5904 235.684 37.7584V31.3024H238.084V43.3984H235.948L235.78 41.3344C235.412 42.0704 234.876 42.6464 234.172 43.0624C233.468 43.4784 232.652 43.6864 231.724 43.6864ZM241.37 48.6784V31.3024H243.53L243.77 33.1744C244.026 32.8064 244.346 32.4624 244.73 32.1424C245.114 31.8064 245.57 31.5344 246.098 31.3264C246.642 31.1184 247.274 31.0144 247.994 31.0144C249.146 31.0144 250.154 31.2944 251.018 31.8544C251.898 32.4144 252.578 33.1744 253.058 34.1344C253.554 35.0784 253.802 36.1584 253.802 37.3744C253.802 38.5904 253.554 39.6784 253.058 40.6384C252.562 41.5824 251.874 42.3264 250.994 42.8704C250.13 43.4144 249.122 43.6864 247.97 43.6864C247.026 43.6864 246.194 43.5024 245.474 43.1344C244.754 42.7504 244.186 42.2224 243.77 41.5504V48.6784H241.37ZM247.586 41.5984C248.322 41.5984 248.97 41.4224 249.53 41.0704C250.106 40.7184 250.554 40.2224 250.874 39.5824C251.21 38.9424 251.378 38.1984 251.378 37.3504C251.378 36.5024 251.21 35.7664 250.874 35.1424C250.554 34.5024 250.106 34.0064 249.53 33.6544C248.97 33.2864 248.322 33.1024 247.586 33.1024C246.834 33.1024 246.17 33.2864 245.594 33.6544C245.034 34.0064 244.594 34.5024 244.274 35.1424C243.954 35.7664 243.794 36.5024 243.794 37.3504C243.794 38.1984 243.954 38.9424 244.274 39.5824C244.594 40.2224 245.034 40.7184 245.594 41.0704C246.17 41.4224 246.834 41.5984 247.586 41.5984ZM256.605 48.6784V31.3024H258.765L259.005 33.1744C259.261 32.8064 259.581 32.4624 259.965 32.1424C260.349 31.8064 260.805 31.5344 261.333 31.3264C261.877 31.1184 262.509 31.0144 263.229 31.0144C264.381 31.0144 265.389 31.2944 266.253 31.8544C267.133 32.4144 267.813 33.1744 268.293 34.1344C268.789 35.0784 269.037 36.1584 269.037 37.3744C269.037 38.5904 268.789 39.6784 268.293 40.6384C267.797 41.5824 267.109 42.3264 266.229 42.8704C265.365 43.4144 264.357 43.6864 263.205 43.6864C262.261 43.6864 261.429 43.5024 260.709 43.1344C259.989 42.7504 259.421 42.2224 259.005 41.5504V48.6784H256.605ZM262.821 41.5984C263.557 41.5984 264.205 41.4224 264.765 41.0704C265.341 40.7184 265.789 40.2224 266.109 39.5824C266.445 38.9424 266.613 38.1984 266.613 37.3504C266.613 36.5024 266.445 35.7664 266.109 35.1424C265.789 34.5024 265.341 34.0064 264.765 33.6544C264.205 33.2864 263.557 33.1024 262.821 33.1024C262.069 33.1024 261.405 33.2864 260.829 33.6544C260.269 34.0064 259.829 34.5024 259.509 35.1424C259.189 35.7664 259.029 36.5024 259.029 37.3504C259.029 38.1984 259.189 38.9424 259.509 39.5824C259.829 40.2224 260.269 40.7184 260.829 41.0704C261.405 41.4224 262.069 41.5984 262.821 41.5984ZM277.359 43.6864C276.223 43.6864 275.199 43.4224 274.287 42.8944C273.391 42.3664 272.679 41.6304 272.151 40.6864C271.639 39.7264 271.383 38.6224 271.383 37.3744C271.383 36.0944 271.647 34.9824 272.175 34.0384C272.703 33.0784 273.423 32.3344 274.335 31.8064C275.247 31.2784 276.271 31.0144 277.407 31.0144C278.559 31.0144 279.583 31.2784 280.479 31.8064C281.375 32.3344 282.079 33.0704 282.591 34.0144C283.119 34.9584 283.383 36.0704 283.383 37.3504C283.383 38.6304 283.119 39.7424 282.591 40.6864C282.079 41.6304 281.367 42.3664 280.455 42.8944C279.543 43.4224 278.511 43.6864 277.359 43.6864ZM277.359 41.6224C278.015 41.6224 278.607 41.4624 279.135 41.1424C279.679 40.8224 280.111 40.3504 280.431 39.7264C280.767 39.0864 280.935 38.2944 280.935 37.3504C280.935 36.4064 280.775 35.6224 280.455 34.9984C280.135 34.3584 279.703 33.8784 279.159 33.5584C278.631 33.2384 278.047 33.0784 277.407 33.0784C276.767 33.0784 276.175 33.2384 275.631 33.5584C275.087 33.8784 274.647 34.3584 274.311 34.9984C273.991 35.6224 273.831 36.4064 273.831 37.3504C273.831 38.2944 273.991 39.0864 274.311 39.7264C274.647 40.3504 275.079 40.8224 275.607 41.1424C276.151 41.4624 276.735 41.6224 277.359 41.6224ZM286.206 43.3984V31.3024H288.366L288.582 33.5824C288.854 33.0384 289.206 32.5824 289.638 32.2144C290.07 31.8304 290.574 31.5344 291.15 31.3264C291.742 31.1184 292.414 31.0144 293.166 31.0144V33.5584H292.302C291.806 33.5584 291.334 33.6224 290.886 33.7504C290.438 33.8624 290.038 34.0624 289.686 34.3504C289.35 34.6384 289.086 35.0304 288.894 35.5264C288.702 36.0224 288.606 36.6384 288.606 37.3744V43.3984H286.206ZM300.362 43.3984C299.594 43.3984 298.93 43.2784 298.37 43.0384C297.81 42.7984 297.378 42.3984 297.074 41.8384C296.77 41.2784 296.618 40.5184 296.618 39.5584V33.3424H294.53V31.3024H296.618L296.906 28.2784H299.018V31.3024H302.45V33.3424H299.018V39.5824C299.018 40.2704 299.162 40.7424 299.45 40.9984C299.738 41.2384 300.234 41.3584 300.938 41.3584H302.33V43.3984H300.362Z" fill="#242C07"/>
</g>
<defs>
<filter id="filter0_dddd_94_3224" x="0" y="0.898438" width="351" height="104" filterUnits="userSpaceOnUse" color-interpolation-filters="sRGB">
<feFlood flood-opacity="0" result="BackgroundImageFix"/>
<feColorMatrix in="SourceAlpha" type="matrix" values="0 0 0 0 0 0 0 0 0 0 0 0 0 0 0 0 0 0 127 0" result="hardAlpha"/>
<feOffset dx="1" dy="2"/>
<feGaussianBlur stdDeviation="2"/>
<feColorMatrix type="matrix" values="0 0 0 0 0.670588 0 0 0 0 0.670588 0 0 0 0 0.670588 0 0 0 0.1 0"/>
<feBlend mode="normal" in2="BackgroundImageFix" result="effect1_dropShadow_94_3224"/>
<feColorMatrix in="SourceAlpha" type="matrix" values="0 0 0 0 0 0 0 0 0 0 0 0 0 0 0 0 0 0 127 0" result="hardAlpha"/>
<feOffset dx="4" dy="6"/>
<feGaussianBlur stdDeviation="4"/>
<feColorMatrix type="matrix" values="0 0 0 0 0.670588 0 0 0 0 0.670588 0 0 0 0 0.670588 0 0 0 0.09 0"/>
<feBlend mode="normal" in2="effect1_dropShadow_94_3224" result="effect2_dropShadow_94_3224"/>
<feColorMatrix in="SourceAlpha" type="matrix" values="0 0 0 0 0 0 0 0 0 0 0 0 0 0 0 0 0 0 127 0" result="hardAlpha"/>
<feOffset dx="9" dy="14"/>
<feGaussianBlur stdDeviation="5"/>
<feColorMatrix type="matrix" values="0 0 0 0 0.670588 0 0 0 0 0.670588 0 0 0 0 0.670588 0 0 0 0.05 0"/>
<feBlend mode="normal" in2="effect2_dropShadow_94_3224" result="effect3_dropShadow_94_3224"/>
<feColorMatrix in="SourceAlpha" type="matrix" values="0 0 0 0 0 0 0 0 0 0 0 0 0 0 0 0 0 0 127 0" result="hardAlpha"/>
<feOffset dx="15" dy="26"/>
<feGaussianBlur stdDeviation="6"/>
<feColorMatrix type="matrix" values="0 0 0 0 0.670588 0 0 0 0 0.670588 0 0 0 0 0.670588 0 0 0 0.01 0"/>
<feBlend mode="normal" in2="effect3_dropShadow_94_3224" result="effect4_dropShadow_94_3224"/>
<feBlend mode="normal" in="SourceGraphic" in2="effect4_dropShadow_94_3224" result="shape"/>
</filter>
</defs>
</svg>
