<svg width="178" height="183" viewBox="0 0 178 183" fill="none" xmlns="http://www.w3.org/2000/svg">
<path d="M112.871 160.006C100.367 164.632 88.4695 165.907 77.1802 163.828C65.8446 161.625 55.7 156.493 46.7466 148.432C37.872 140.2 30.9594 129.394 26.0088 116.014C21.012 102.509 19.2426 89.6573 20.7008 77.4601C22.2377 65.0916 26.8583 54.1412 34.5626 44.6088C42.3919 35.0301 53.1843 27.6961 66.9396 22.6067C82.4456 16.8696 96.6511 15.8787 109.556 19.634C122.54 23.2179 132.961 31.0198 140.82 43.0395L111.559 53.866C107.601 48.9328 102.543 45.8284 96.3846 44.5529C90.351 43.2311 83.4577 44.0045 75.7047 46.873C67.2014 50.0192 60.682 54.4928 56.1465 60.2937C51.6109 66.0947 49.0918 72.9267 48.589 80.7897C48.04 88.5277 49.4774 97.0235 52.9012 106.277C56.3249 115.531 60.7403 122.854 66.1474 128.246C71.6795 133.591 77.8837 136.912 84.7601 138.206C91.7616 139.454 99.1388 138.644 106.892 135.775C118.146 131.611 125.539 125.464 129.07 117.333C132.681 109.031 133.313 99.9826 130.969 90.1876L99.2691 101.916L92.0514 82.4087L150.199 60.8945L177.126 133.673L152.93 142.625L144.898 127.258C143.581 132.152 141.618 136.646 139.01 140.738C136.401 144.831 132.913 148.468 128.545 151.648C124.348 154.906 119.124 157.692 112.871 160.006Z" fill="#242C07"/>
</svg>
