<svg width="193" height="76" viewBox="0 0 193 76" fill="none" xmlns="http://www.w3.org/2000/svg">
<rect x="0.0644531" width="192.308" height="75.0382" rx="10" fill="#242C07"/>
<g clip-path="url(#clip0_94_3190)">
<path d="M32.1944 36.8609L18.9298 23.5594L35.8067 33.2486L32.1944 36.8609V36.8609ZM15.4667 22.7778C14.6852 23.1871 14.1621 23.9317 14.1621 24.9009V51.424C14.1621 52.3932 14.6852 53.1378 15.4667 53.5471L30.8929 38.1594L15.4667 22.7778ZM41.0252 36.3378L37.4852 34.2886L33.536 38.1655L37.4852 42.0424L41.0975 39.9932C42.179 39.1332 42.179 37.1978 41.0252 36.3378V36.3378ZM18.9298 52.7717L35.8067 43.0824L32.1944 39.4701L18.9298 52.7717V52.7717Z" fill="white"/>
</g>
<path d="M55.4919 16.9911C56.5637 16.9911 57.4897 17.1932 58.2701 17.5975C59.0598 17.9924 59.6615 18.5612 60.0752 19.3039C60.4983 20.0466 60.7098 20.921 60.7098 21.927C60.7098 22.9329 60.4983 23.8073 60.0752 24.55C59.6615 25.2834 59.0598 25.8475 58.2701 26.2424C57.4897 26.6278 56.5637 26.8206 55.4919 26.8206H52.4316V16.9911H55.4919ZM55.4919 25.7629C56.7611 25.7629 57.7295 25.4291 58.397 24.7616C59.0645 24.0847 59.3983 23.1398 59.3983 21.927C59.3983 20.7047 59.0598 19.7505 58.3829 19.0641C57.7154 18.3778 56.7517 18.0347 55.4919 18.0347H53.7149V25.7629H55.4919ZM65.7731 26.9475C65.0491 26.9475 64.391 26.7829 63.7987 26.4539C63.2158 26.1248 62.7551 25.6594 62.4167 25.0577C62.0876 24.4466 61.9231 23.7415 61.9231 22.9424C61.9231 22.1526 62.0923 21.4569 62.4308 20.8552C62.7786 20.2441 63.2487 19.7787 63.841 19.459C64.4333 19.13 65.0961 18.9654 65.8295 18.9654C66.5628 18.9654 67.2256 19.13 67.8179 19.459C68.4102 19.7787 68.8756 20.2394 69.2141 20.8411C69.562 21.4428 69.7359 22.1432 69.7359 22.9424C69.7359 23.7415 69.5573 24.4466 69.2 25.0577C68.8521 25.6594 68.3773 26.1248 67.7756 26.4539C67.1739 26.7829 66.5064 26.9475 65.7731 26.9475ZM65.7731 25.8193C66.2338 25.8193 66.6662 25.7112 67.0705 25.4949C67.4748 25.2787 67.7991 24.9543 68.0436 24.5218C68.2974 24.0894 68.4243 23.5629 68.4243 22.9424C68.4243 22.3218 68.3021 21.7953 68.0577 21.3629C67.8132 20.9304 67.4936 20.6107 67.0987 20.4039C66.7038 20.1877 66.2761 20.0795 65.8154 20.0795C65.3453 20.0795 64.9128 20.1877 64.5179 20.4039C64.1325 20.6107 63.8222 20.9304 63.5872 21.3629C63.3521 21.7953 63.2346 22.3218 63.2346 22.9424C63.2346 23.5723 63.3474 24.1035 63.5731 24.5359C63.8081 24.9684 64.1184 25.2928 64.5038 25.509C64.8893 25.7159 65.3124 25.8193 65.7731 25.8193ZM81.7181 19.0924L79.3066 26.8206H77.9809L76.1194 20.6859L74.2579 26.8206H72.9322L70.5066 19.0924H71.8181L73.595 25.5795L75.513 19.0924H76.8245L78.7002 25.5936L80.4489 19.0924H81.7181ZM86.7571 18.9513C87.6973 18.9513 88.4588 19.2381 89.0417 19.8116C89.6247 20.3757 89.9161 21.1936 89.9161 22.2654V26.8206H88.6469V22.4488C88.6469 21.6778 88.4541 21.0902 88.0687 20.6859C87.6832 20.2723 87.1567 20.0654 86.4892 20.0654C85.8123 20.0654 85.2717 20.277 84.8674 20.7C84.4725 21.1231 84.2751 21.7389 84.2751 22.5475V26.8206H82.9917V19.0924H84.2751V20.1924C84.5289 19.7975 84.8721 19.4919 85.3046 19.2757C85.7464 19.0594 86.2306 18.9513 86.7571 18.9513ZM93.2958 16.3847V26.8206H92.0124V16.3847H93.2958ZM98.8535 26.9475C98.1296 26.9475 97.4714 26.7829 96.8791 26.4539C96.2962 26.1248 95.8355 25.6594 95.4971 25.0577C95.168 24.4466 95.0035 23.7415 95.0035 22.9424C95.0035 22.1526 95.1727 21.4569 95.5112 20.8552C95.8591 20.2441 96.3291 19.7787 96.9214 19.459C97.5138 19.13 98.1766 18.9654 98.9099 18.9654C99.6432 18.9654 100.306 19.13 100.898 19.459C101.491 19.7787 101.956 20.2394 102.295 20.8411C102.642 21.4428 102.816 22.1432 102.816 22.9424C102.816 23.7415 102.638 24.4466 102.28 25.0577C101.933 25.6594 101.458 26.1248 100.856 26.4539C100.254 26.7829 99.5868 26.9475 98.8535 26.9475ZM98.8535 25.8193C99.3142 25.8193 99.7467 25.7112 100.151 25.4949C100.555 25.2787 100.88 24.9543 101.124 24.5218C101.378 24.0894 101.505 23.5629 101.505 22.9424C101.505 22.3218 101.383 21.7953 101.138 21.3629C100.894 20.9304 100.574 20.6107 100.179 20.4039C99.7843 20.1877 99.3565 20.0795 98.8958 20.0795C98.4257 20.0795 97.9932 20.1877 97.5984 20.4039C97.2129 20.6107 96.9026 20.9304 96.6676 21.3629C96.4326 21.7953 96.315 22.3218 96.315 22.9424C96.315 23.5723 96.4279 24.1035 96.6535 24.5359C96.8885 24.9684 97.1988 25.2928 97.5843 25.509C97.9697 25.7159 98.3928 25.8193 98.8535 25.8193ZM104.024 22.9282C104.024 22.1385 104.184 21.4475 104.504 20.8552C104.823 20.2535 105.261 19.7881 105.815 19.459C106.379 19.13 107.005 18.9654 107.691 18.9654C108.368 18.9654 108.955 19.1112 109.454 19.4026C109.952 19.6941 110.323 20.0607 110.568 20.5026V19.0924H111.865V26.8206H110.568V25.3821C110.314 25.8334 109.933 26.2094 109.425 26.5103C108.927 26.8018 108.344 26.9475 107.677 26.9475C106.99 26.9475 106.37 26.7782 105.815 26.4398C105.261 26.1013 104.823 25.6265 104.504 25.0154C104.184 24.4043 104.024 23.7086 104.024 22.9282ZM110.568 22.9424C110.568 22.3594 110.45 21.8518 110.215 21.4193C109.98 20.9868 109.661 20.6577 109.256 20.4321C108.861 20.1971 108.424 20.0795 107.945 20.0795C107.465 20.0795 107.028 20.1924 106.633 20.418C106.238 20.6436 105.923 20.9727 105.688 21.4052C105.453 21.8377 105.336 22.3453 105.336 22.9282C105.336 23.5206 105.453 24.0377 105.688 24.4795C105.923 24.912 106.238 25.2458 106.633 25.4808C107.028 25.7065 107.465 25.8193 107.945 25.8193C108.424 25.8193 108.861 25.7065 109.256 25.4808C109.661 25.2458 109.98 24.912 110.215 24.4795C110.45 24.0377 110.568 23.5253 110.568 22.9424ZM113.554 22.9282C113.554 22.1385 113.714 21.4475 114.034 20.8552C114.354 20.2535 114.791 19.7881 115.345 19.459C115.91 19.13 116.539 18.9654 117.235 18.9654C117.837 18.9654 118.396 19.1065 118.913 19.3885C119.43 19.6612 119.825 20.0231 120.098 20.4744V16.3847H121.395V26.8206H120.098V25.368C119.844 25.8287 119.468 26.2094 118.97 26.5103C118.472 26.8018 117.889 26.9475 117.221 26.9475C116.535 26.9475 115.91 26.7782 115.345 26.4398C114.791 26.1013 114.354 25.6265 114.034 25.0154C113.714 24.4043 113.554 23.7086 113.554 22.9282ZM120.098 22.9424C120.098 22.3594 119.98 21.8518 119.745 21.4193C119.51 20.9868 119.191 20.6577 118.786 20.4321C118.392 20.1971 117.954 20.0795 117.475 20.0795C116.995 20.0795 116.558 20.1924 116.163 20.418C115.769 20.6436 115.454 20.9727 115.219 21.4052C114.983 21.8377 114.866 22.3453 114.866 22.9282C114.866 23.5206 114.983 24.0377 115.219 24.4795C115.454 24.912 115.769 25.2458 116.163 25.4808C116.558 25.7065 116.995 25.8193 117.475 25.8193C117.954 25.8193 118.392 25.7065 118.786 25.4808C119.191 25.2458 119.51 24.912 119.745 24.4795C119.98 24.0377 120.098 23.5253 120.098 22.9424ZM130.694 26.9475C129.971 26.9475 129.312 26.7829 128.72 26.4539C128.137 26.1248 127.676 25.6594 127.338 25.0577C127.009 24.4466 126.844 23.7415 126.844 22.9424C126.844 22.1526 127.014 21.4569 127.352 20.8552C127.7 20.2441 128.17 19.7787 128.762 19.459C129.355 19.13 130.018 18.9654 130.751 18.9654C131.484 18.9654 132.147 19.13 132.739 19.459C133.332 19.7787 133.797 20.2394 134.135 20.8411C134.483 21.4428 134.657 22.1432 134.657 22.9424C134.657 23.7415 134.479 24.4466 134.121 25.0577C133.774 25.6594 133.299 26.1248 132.697 26.4539C132.095 26.7829 131.428 26.9475 130.694 26.9475ZM130.694 25.8193C131.155 25.8193 131.588 25.7112 131.992 25.4949C132.396 25.2787 132.721 24.9543 132.965 24.5218C133.219 24.0894 133.346 23.5629 133.346 22.9424C133.346 22.3218 133.224 21.7953 132.979 21.3629C132.735 20.9304 132.415 20.6107 132.02 20.4039C131.625 20.1877 131.197 20.0795 130.737 20.0795C130.267 20.0795 129.834 20.1877 129.439 20.4039C129.054 20.6107 128.744 20.9304 128.509 21.3629C128.274 21.7953 128.156 22.3218 128.156 22.9424C128.156 23.5723 128.269 24.1035 128.494 24.5359C128.729 24.9684 129.04 25.2928 129.425 25.509C129.811 25.7159 130.234 25.8193 130.694 25.8193ZM140.11 18.9513C141.05 18.9513 141.812 19.2381 142.395 19.8116C142.978 20.3757 143.269 21.1936 143.269 22.2654V26.8206H142V22.4488C142 21.6778 141.807 21.0902 141.422 20.6859C141.036 20.2723 140.51 20.0654 139.842 20.0654C139.165 20.0654 138.625 20.277 138.22 20.7C137.825 21.1231 137.628 21.7389 137.628 22.5475V26.8206H136.345V19.0924H137.628V20.1924C137.882 19.7975 138.225 19.4919 138.657 19.2757C139.099 19.0594 139.583 18.9513 140.11 18.9513ZM150.69 20.15V24.7052C150.69 25.0812 150.77 25.3492 150.93 25.509C151.09 25.6594 151.367 25.7347 151.762 25.7347H152.707V26.8206H151.551C150.836 26.8206 150.3 26.656 149.943 26.327C149.586 25.9979 149.407 25.4573 149.407 24.7052V20.15H148.406V19.0924H149.407V17.1462H150.69V19.0924H152.707V20.15H150.69ZM158.098 18.9513C158.681 18.9513 159.207 19.0782 159.677 19.3321C160.148 19.5765 160.514 19.9479 160.777 20.4462C161.05 20.9445 161.186 21.5509 161.186 22.2654V26.8206H159.917V22.4488C159.917 21.6778 159.724 21.0902 159.339 20.6859C158.953 20.2723 158.427 20.0654 157.759 20.0654C157.083 20.0654 156.542 20.277 156.138 20.7C155.743 21.1231 155.545 21.7389 155.545 22.5475V26.8206H154.262V16.3847H155.545V20.1924C155.799 19.7975 156.147 19.4919 156.589 19.2757C157.04 19.0594 157.543 18.9513 158.098 18.9513ZM170.334 22.6603C170.334 22.9047 170.32 23.1633 170.292 23.4359H164.115C164.162 24.1975 164.42 24.7945 164.89 25.227C165.37 25.65 165.948 25.8616 166.625 25.8616C167.18 25.8616 167.64 25.7347 168.007 25.4808C168.383 25.2176 168.646 24.8697 168.797 24.4372H170.179C169.972 25.18 169.558 25.7864 168.938 26.2565C168.317 26.7171 167.546 26.9475 166.625 26.9475C165.892 26.9475 165.234 26.7829 164.651 26.4539C164.077 26.1248 163.626 25.6594 163.297 25.0577C162.968 24.4466 162.803 23.7415 162.803 22.9424C162.803 22.1432 162.963 21.4428 163.283 20.8411C163.602 20.2394 164.049 19.7787 164.622 19.459C165.205 19.13 165.873 18.9654 166.625 18.9654C167.358 18.9654 168.007 19.1253 168.571 19.4449C169.135 19.7646 169.568 20.2065 169.869 20.7706C170.179 21.3253 170.334 21.9552 170.334 22.6603ZM169.008 22.3924C169.008 21.9035 168.9 21.4851 168.684 21.1372C168.468 20.78 168.172 20.512 167.796 20.3334C167.429 20.1453 167.02 20.0513 166.569 20.0513C165.92 20.0513 165.365 20.2582 164.905 20.6718C164.453 21.0855 164.195 21.659 164.129 22.3924H169.008Z" fill="#B3B3B3"/>
<path d="M63.2021 43.6667C62.8329 42.9556 62.3201 42.4223 61.6637 42.0667C61.0072 41.6975 60.2483 41.5129 59.3867 41.5129C58.4431 41.5129 57.6021 41.7248 56.8637 42.1488C56.1252 42.5727 55.544 43.1744 55.1201 43.9539C54.7098 44.7334 54.5047 45.6359 54.5047 46.6616C54.5047 47.6872 54.7098 48.5966 55.1201 49.3898C55.544 50.1693 56.1252 50.771 56.8637 51.1949C57.6021 51.6188 58.4431 51.8308 59.3867 51.8308C60.6585 51.8308 61.691 51.4753 62.4842 50.7641C63.2773 50.053 63.7628 49.0889 63.9406 47.8718H58.5867V46.0052H66.4431V47.8308C66.2927 48.9385 65.8961 49.9573 65.2534 50.8872C64.6243 51.8171 63.797 52.5624 62.7713 53.1231C61.7594 53.6701 60.6312 53.9436 59.3867 53.9436C58.0466 53.9436 56.8226 53.6359 55.7149 53.0206C54.6072 52.3915 53.7252 51.5231 53.0688 50.4154C52.426 49.3077 52.1047 48.0565 52.1047 46.6616C52.1047 45.2667 52.426 44.0154 53.0688 42.9077C53.7252 41.8 54.6072 40.9385 55.7149 40.3231C56.8363 39.6941 58.0602 39.3795 59.3867 39.3795C60.9047 39.3795 62.2517 39.7556 63.4278 40.5077C64.6175 41.2462 65.479 42.2992 66.0124 43.6667H63.2021ZM73.6521 54.0052C72.5854 54.0052 71.6213 53.7659 70.7598 53.2872C69.8983 52.7949 69.2213 52.1112 68.729 51.2359C68.2367 50.3471 67.9906 49.3214 67.9906 48.159C67.9906 47.0103 68.2436 45.9915 68.7495 45.1026C69.2555 44.2137 69.9461 43.53 70.8213 43.0513C71.6966 42.5727 72.6743 42.3334 73.7547 42.3334C74.835 42.3334 75.8128 42.5727 76.688 43.0513C77.5632 43.53 78.2538 44.2137 78.7598 45.1026C79.2658 45.9915 79.5188 47.0103 79.5188 48.159C79.5188 49.3077 79.259 50.3265 78.7393 51.2154C78.2196 52.1043 77.5085 52.7949 76.606 53.2872C75.7171 53.7659 74.7325 54.0052 73.6521 54.0052ZM73.6521 51.9744C74.2538 51.9744 74.8145 51.8308 75.3342 51.5436C75.8675 51.2565 76.2983 50.8257 76.6265 50.2513C76.9547 49.677 77.1188 48.9795 77.1188 48.159C77.1188 47.3385 76.9615 46.6479 76.647 46.0872C76.3325 45.5129 75.9154 45.0821 75.3957 44.7949C74.876 44.5077 74.3154 44.3641 73.7137 44.3641C73.1119 44.3641 72.5513 44.5077 72.0316 44.7949C71.5256 45.0821 71.1222 45.5129 70.8213 46.0872C70.5205 46.6479 70.3701 47.3385 70.3701 48.159C70.3701 49.3761 70.6778 50.3197 71.2931 50.9898C71.9222 51.6462 72.7085 51.9744 73.6521 51.9744ZM86.733 54.0052C85.6664 54.0052 84.7023 53.7659 83.8407 53.2872C82.9792 52.7949 82.3023 52.1112 81.81 51.2359C81.3177 50.3471 81.0715 49.3214 81.0715 48.159C81.0715 47.0103 81.3245 45.9915 81.8305 45.1026C82.3365 44.2137 83.0271 43.53 83.9023 43.0513C84.7775 42.5727 85.7553 42.3334 86.8356 42.3334C87.916 42.3334 88.8937 42.5727 89.7689 43.0513C90.6442 43.53 91.3348 44.2137 91.8407 45.1026C92.3467 45.9915 92.5997 47.0103 92.5997 48.159C92.5997 49.3077 92.3399 50.3265 91.8202 51.2154C91.3006 52.1043 90.5895 52.7949 89.6869 53.2872C88.798 53.7659 87.8134 54.0052 86.733 54.0052ZM86.733 51.9744C87.3348 51.9744 87.8954 51.8308 88.4151 51.5436C88.9484 51.2565 89.3792 50.8257 89.7074 50.2513C90.0356 49.677 90.1997 48.9795 90.1997 48.159C90.1997 47.3385 90.0424 46.6479 89.7279 46.0872C89.4134 45.5129 88.9963 45.0821 88.4766 44.7949C87.957 44.5077 87.3963 44.3641 86.7946 44.3641C86.1929 44.3641 85.6322 44.5077 85.1125 44.7949C84.6065 45.0821 84.2031 45.5129 83.9023 46.0872C83.6014 46.6479 83.451 47.3385 83.451 48.159C83.451 49.3761 83.7587 50.3197 84.3741 50.9898C85.0031 51.6462 85.7895 51.9744 86.733 51.9744ZM99.4653 42.3334C100.34 42.3334 101.113 42.5112 101.783 42.8667C102.467 43.2086 103 43.6394 103.383 44.159V42.518H105.742V54.0052C105.742 55.0445 105.523 55.9676 105.086 56.7744C104.648 57.5949 104.012 58.2377 103.178 58.7026C102.358 59.1676 101.373 59.4 100.224 59.4C98.6926 59.4 97.4208 59.0377 96.4088 58.3129C95.3969 57.6018 94.8225 56.6308 94.6858 55.4H97.0037C97.1815 55.9881 97.5576 56.4599 98.1319 56.8154C98.72 57.1847 99.4174 57.3693 100.224 57.3693C101.168 57.3693 101.927 57.0821 102.501 56.5077C103.089 55.9334 103.383 55.0992 103.383 54.0052V52.118C102.987 52.6513 102.446 53.1026 101.763 53.4718C101.093 53.8274 100.327 54.0052 99.4653 54.0052C98.4806 54.0052 97.5781 53.759 96.7576 53.2667C95.9507 52.7607 95.308 52.0633 94.8294 51.1744C94.3644 50.2718 94.1319 49.253 94.1319 48.118C94.1319 46.9829 94.3644 45.9778 94.8294 45.1026C95.308 44.2274 95.9507 43.5505 96.7576 43.0718C97.5781 42.5795 98.4806 42.3334 99.4653 42.3334ZM103.383 48.159C103.383 47.3795 103.219 46.7026 102.891 46.1282C102.576 45.5539 102.159 45.1163 101.64 44.8154C101.12 44.5146 100.559 44.3641 99.9576 44.3641C99.3559 44.3641 98.7952 44.5146 98.2755 44.8154C97.7559 45.1026 97.3319 45.5334 97.0037 46.1077C96.6892 46.6684 96.5319 47.3385 96.5319 48.118C96.5319 48.8975 96.6892 49.5812 97.0037 50.1693C97.3319 50.7573 97.7559 51.2086 98.2755 51.5231C98.8088 51.824 99.3695 51.9744 99.9576 51.9744C100.559 51.9744 101.12 51.824 101.64 51.5231C102.159 51.2223 102.576 50.7847 102.891 50.2103C103.219 49.6223 103.383 48.9385 103.383 48.159ZM111.152 38.6411V53.8206H108.814V38.6411H111.152ZM124.581 47.8924C124.581 48.3163 124.554 48.6992 124.499 49.0411H115.863C115.932 49.9436 116.267 50.6684 116.868 51.2154C117.47 51.7624 118.209 52.0359 119.084 52.0359C120.342 52.0359 121.231 51.5094 121.751 50.4565H124.274C123.932 51.4958 123.309 52.3505 122.407 53.0206C121.518 53.677 120.41 54.0052 119.084 54.0052C118.004 54.0052 117.033 53.7659 116.171 53.2872C115.323 52.7949 114.653 52.1112 114.161 51.2359C113.682 50.3471 113.443 49.3214 113.443 48.159C113.443 46.9966 113.675 45.9778 114.14 45.1026C114.619 44.2137 115.282 43.53 116.13 43.0513C116.992 42.5727 117.976 42.3334 119.084 42.3334C120.151 42.3334 121.101 42.5659 121.935 43.0308C122.769 43.4958 123.419 44.1522 123.884 45C124.349 45.8342 124.581 46.7983 124.581 47.8924ZM122.14 47.1539C122.127 46.2924 121.819 45.6018 121.217 45.0821C120.615 44.5624 119.87 44.3026 118.981 44.3026C118.174 44.3026 117.484 44.5624 116.909 45.0821C116.335 45.5881 115.993 46.2787 115.884 47.1539H122.14ZM134.55 44.1795C134.946 43.6599 135.486 43.2223 136.17 42.8667C136.854 42.5112 137.626 42.3334 138.488 42.3334C139.473 42.3334 140.368 42.5795 141.175 43.0718C141.996 43.5505 142.638 44.2274 143.103 45.1026C143.568 45.9778 143.801 46.9829 143.801 48.118C143.801 49.253 143.568 50.2718 143.103 51.1744C142.638 52.0633 141.996 52.7607 141.175 53.2667C140.368 53.759 139.473 54.0052 138.488 54.0052C137.626 54.0052 136.861 53.8342 136.191 53.4924C135.52 53.1368 134.973 52.6992 134.55 52.1795V59.1949H132.211V42.518H134.55V44.1795ZM141.421 48.118C141.421 47.3385 141.257 46.6684 140.929 46.1077C140.615 45.5334 140.191 45.1026 139.657 44.8154C139.138 44.5146 138.577 44.3641 137.975 44.3641C137.387 44.3641 136.826 44.5146 136.293 44.8154C135.773 45.1163 135.35 45.5539 135.021 46.1282C134.707 46.7026 134.55 47.3795 134.55 48.159C134.55 48.9385 134.707 49.6223 135.021 50.2103C135.35 50.7847 135.773 51.2223 136.293 51.5231C136.826 51.824 137.387 51.9744 137.975 51.9744C138.577 51.9744 139.138 51.824 139.657 51.5231C140.191 51.2086 140.615 50.7573 140.929 50.1693C141.257 49.5812 141.421 48.8975 141.421 48.118ZM148.452 38.6411V53.8206H146.113V38.6411H148.452ZM150.743 48.118C150.743 46.9829 150.975 45.9778 151.44 45.1026C151.919 44.2274 152.561 43.5505 153.368 43.0718C154.189 42.5795 155.091 42.3334 156.076 42.3334C156.965 42.3334 157.737 42.5112 158.394 42.8667C159.064 43.2086 159.597 43.6394 159.994 44.159V42.518H162.353V53.8206H159.994V52.1385C159.597 52.6718 159.057 53.1163 158.373 53.4718C157.69 53.8274 156.91 54.0052 156.035 54.0052C155.064 54.0052 154.175 53.759 153.368 53.2667C152.561 52.7607 151.919 52.0633 151.44 51.1744C150.975 50.2718 150.743 49.253 150.743 48.118ZM159.994 48.159C159.994 47.3795 159.83 46.7026 159.501 46.1282C159.187 45.5539 158.77 45.1163 158.25 44.8154C157.731 44.5146 157.17 44.3641 156.568 44.3641C155.966 44.3641 155.406 44.5146 154.886 44.8154C154.366 45.1026 153.943 45.5334 153.614 46.1077C153.3 46.6684 153.143 47.3385 153.143 48.118C153.143 48.8975 153.3 49.5812 153.614 50.1693C153.943 50.7573 154.366 51.2086 154.886 51.5231C155.419 51.824 155.98 51.9744 156.568 51.9744C157.17 51.9744 157.731 51.824 158.25 51.5231C158.77 51.2223 159.187 50.7847 159.501 50.2103C159.83 49.6223 159.994 48.9385 159.994 48.159ZM175.599 42.518L168.665 59.1334H166.245L168.542 53.6359L164.091 42.518H166.696L169.876 51.1334L173.178 42.518H175.599Z" fill="white"/>
<defs>
<clipPath id="clip0_94_3190">
<rect width="30.7692" height="30.7692" fill="white" transform="translate(12.8848 22.1345)"/>
</clipPath>
</defs>
</svg>
