<svg width="293" height="67" viewBox="0 0 293 67" fill="none" xmlns="http://www.w3.org/2000/svg">
<path d="M47.1356 54.9302C47.869 54.3166 53.9803 49.0133 53.4637 40.9037C52.9748 33.2291 46.8357 27.5234 40.553 25.8009C36.0823 24.5763 32.2013 25.5494 30.3742 26.1454C31.8132 28.6122 33.2547 31.0816 34.6937 33.5484C35.5203 33.3774 37.481 33.0933 39.6735 33.9583C40.0238 34.0966 43.4487 35.5124 44.6936 39.2239C45.8327 42.6161 44.3534 45.5708 44.0056 46.2648C41.7123 50.859 35.2758 53.351 27.8843 52.5715C27.6701 47.8138 27.7305 44.0947 27.8515 41.985C27.907 40.9967 28.0229 39.503 28.8772 37.9088C29.0284 37.6246 29.1721 37.3983 29.2729 37.2474C27.9473 34.3858 26.6242 31.5242 25.2986 28.66C23.1565 29.9953 21.8485 31.4839 21.0849 32.5225C18.6908 35.7839 18.28 39.2466 17.9272 42.1861C17.6349 44.6127 17.6979 46.632 17.7987 47.9748C16.7075 47.1927 10.1778 42.337 9.07899 33.3422C8.92274 32.0648 8.14906 24.7473 13.149 18.1766C18.0078 11.7945 26.5486 8.44002 34.6105 10.3084C41.4149 11.8825 45.3942 16.5899 46.8433 18.5689C47.0474 18.848 47.4406 18.9084 47.7178 18.7022C49.9179 17.0777 52.1179 15.4508 54.318 13.8263C54.5902 13.6252 54.6532 13.2454 54.4591 12.9688C52.7581 10.5548 49.5978 6.80552 44.4844 3.96904C42.9598 3.12413 33.9225 -1.70645 22.7407 1.06717C12.4459 3.62705 3.53216 11.8398 0.714647 22.894C0.545798 23.5554 -2.80095 37.6875 6.60169 49.3201C10.5256 54.1733 15.1273 56.6854 17.8289 57.9025L17.8743 66.1404C17.8743 66.4823 18.154 66.7589 18.4993 66.7589H27.4105C27.7557 66.7589 28.033 66.4798 28.0355 66.1378C28.0405 64.1463 28.043 62.1522 28.0481 60.1606C29.6937 60.3115 31.7804 60.3517 34.1645 60.0349C36.1604 59.7683 37.8741 59.3182 39.2602 58.853C40.4396 61.3676 41.619 63.8847 42.7985 66.3994C42.9018 66.6181 43.121 66.7589 43.363 66.7589C46.5661 66.7589 49.7692 66.7589 52.9697 66.7589C53.4511 66.7589 53.751 66.2359 53.5091 65.821L47.1306 54.9277L47.1356 54.9302Z" fill="#A5D80A"/>
<path d="M75.8051 66.7746C72.975 66.7746 70.417 66.2315 68.1313 65.1451C65.8455 64.0588 63.8672 62.5853 62.1989 60.7194C60.5305 58.8561 59.2402 56.7539 58.3355 54.4203C57.4282 52.0842 56.9746 49.6878 56.9746 47.2235C56.9746 44.7592 57.456 42.1993 58.4161 39.8657C59.3763 37.5297 60.7019 35.4501 62.3904 33.6194C64.0764 31.7913 66.0824 30.3429 68.4034 29.2742C70.7245 28.2055 73.2472 27.6724 75.9689 27.6724C78.6907 27.6724 81.3116 28.2331 83.615 29.3572C85.9184 30.4787 87.8866 31.9824 89.5197 33.8633C91.1527 35.7468 92.4128 37.8465 93.3024 40.1625C94.192 42.4809 94.6356 44.8698 94.6356 47.3316C94.6356 49.7934 94.1719 52.3005 93.247 54.6366C92.3221 56.9726 91.0167 59.0547 89.3282 60.8804C87.6422 62.7085 85.6462 64.1494 83.3403 65.198C81.0369 66.2491 78.5243 66.7721 75.8026 66.7721L75.8051 66.7746ZM64.593 47.226C64.593 48.8907 64.8475 50.5025 65.3541 52.0591C65.8606 53.6156 66.5965 55.0012 67.5592 56.2132C68.5194 57.4278 69.6988 58.3859 71.0975 59.0925C72.4936 59.7991 74.0813 60.1511 75.8605 60.1511C77.6397 60.1511 79.3257 59.7815 80.7042 59.0371C82.0828 58.2953 83.2521 57.3096 84.2148 56.0774C85.175 54.8478 85.8932 53.4522 86.3645 51.8956C86.8357 50.3391 87.0726 48.7825 87.0726 47.226C87.0726 45.5613 86.8181 43.9595 86.3116 42.4206C85.8025 40.8816 85.059 39.5061 84.0812 38.2941C83.1009 37.082 81.9215 36.1215 80.543 35.4149C79.1644 34.7083 77.5843 34.3562 75.8076 34.3562C74.0309 34.3562 72.4407 34.7284 71.0445 35.4702C69.6484 36.212 68.469 37.1902 67.5063 38.4022C66.5436 39.6168 65.8203 40.9898 65.3289 42.5287C64.84 44.0676 64.593 45.6343 64.593 47.226Z" fill="white"/>
<path d="M116.95 66.7746C114.12 66.7746 111.562 66.2315 109.276 65.1451C106.99 64.0588 105.012 62.5853 103.343 60.7194C101.675 58.8561 100.385 56.7539 99.48 54.4203C98.5728 52.0842 98.1191 49.6878 98.1191 47.2235C98.1191 44.7592 98.6005 42.1993 99.5607 39.8657C100.521 37.5297 101.846 35.4501 103.535 33.6194C105.221 31.7913 107.227 30.3429 109.548 29.2742C111.869 28.2055 114.392 27.6724 117.113 27.6724C119.835 27.6724 122.456 28.2331 124.76 29.3572C127.063 30.4787 129.031 31.9824 130.664 33.8633C132.297 35.7468 133.557 37.8465 134.447 40.1625C135.337 42.4809 135.78 44.8698 135.78 47.3316C135.78 49.7934 135.316 52.3005 134.392 54.6366C133.467 56.9726 132.161 59.0547 130.473 60.8804C128.784 62.7085 126.791 64.1494 124.485 65.198C122.181 66.2491 119.669 66.7721 116.947 66.7721L116.95 66.7746ZM105.738 47.226C105.738 48.8907 105.992 50.5025 106.499 52.0591C107.005 53.6156 107.741 55.0012 108.704 56.2132C109.664 57.4278 110.843 58.3859 112.242 59.0925C113.638 59.7991 115.226 60.1511 117.005 60.1511C118.784 60.1511 120.47 59.7815 121.849 59.0371C123.227 58.2953 124.397 57.3096 125.359 56.0774C126.32 54.8478 127.038 53.4522 127.509 51.8956C127.98 50.3391 128.217 48.7825 128.217 47.226C128.217 45.5613 127.963 43.9595 127.456 42.4206C126.947 40.8816 126.204 39.5061 125.226 38.2941C124.245 37.082 123.066 36.1215 121.687 35.4149C120.309 34.7083 118.729 34.3562 116.952 34.3562C115.175 34.3562 113.585 34.7284 112.189 35.4702C110.793 36.212 109.614 37.1902 108.651 38.4022C107.688 39.6168 106.962 40.9898 106.473 42.5287C105.984 44.0676 105.738 45.6343 105.738 47.226Z" fill="white"/>
<path d="M173.179 65.4856V41.1969L163.635 59.2544C163.38 59.7372 162.876 60.0414 162.327 60.0414H159.92C159.371 60.0414 158.867 59.7372 158.612 59.2518L149.121 41.1969V65.4856C149.121 66.0463 148.665 66.5015 148.103 66.5015H141.611V27.9449H146.778C148.587 27.9449 150.243 28.9507 151.077 30.5526L160.5 48.6804C160.752 49.1657 161.445 49.1657 161.699 48.6804L171.223 30.5324C172.06 28.9407 173.71 27.9424 175.512 27.9424H180.638V66.499H174.202C173.64 66.499 173.184 66.0438 173.184 65.483L173.179 65.4856Z" fill="white"/>
<path d="M201.365 27.9424H204.633C205.941 27.9424 207.111 28.7571 207.562 29.9817L220.513 65.1335C220.757 65.7974 220.266 66.5015 219.555 66.5015H214.021C213.582 66.5015 213.192 66.2223 213.053 65.8049L210.074 56.8881H195.886L192.892 65.8074C192.753 66.2224 192.363 66.5015 191.924 66.5015H186.393C185.684 66.5015 185.191 65.7974 185.437 65.1335L198.439 29.9792C198.89 28.7571 200.059 27.9449 201.365 27.9449V27.9424ZM208.318 51.62L203.003 35.7075L197.66 51.62H208.318Z" fill="white"/>
<path d="M225.264 65.4826V30.4138C225.264 29.0483 226.373 27.9419 227.742 27.9419H242.406C244.148 27.9419 245.771 28.304 247.278 29.0282C248.782 29.7524 250.09 30.7306 251.196 31.9602C252.303 33.1924 253.155 34.5679 253.754 36.0867C254.354 37.6081 254.652 39.1646 254.652 40.7564C254.652 42.3481 254.369 43.9424 253.807 45.426C253.245 46.9121 252.436 48.2223 251.385 49.3639C250.332 50.5055 249.1 51.3831 247.683 51.9967L255.561 64.952C255.975 65.6309 255.483 66.496 254.689 66.496H248.797C248.442 66.496 248.114 66.3124 247.928 66.0106L240.279 53.5708H232.769V65.4775C232.769 66.0383 232.313 66.4934 231.751 66.4934H226.28C225.718 66.4934 225.262 66.0383 225.262 65.4775L225.264 65.4826ZM232.777 47.0027H242.192C243.135 47.0027 243.969 46.7235 244.695 46.1603C245.42 45.5995 246 44.8476 246.436 43.9072C246.872 42.9667 247.089 41.9156 247.089 40.7564C247.089 39.5971 246.834 38.4932 246.328 37.5528C245.818 36.6123 245.183 35.8705 244.422 35.3273C243.661 34.7842 242.825 34.5126 241.92 34.5126H232.777V47.0027Z" fill="white"/>
<path d="M258.895 46.9015C258.895 44.5126 259.32 42.1866 260.172 39.9234C261.024 37.6603 262.277 35.6058 263.927 33.7601C265.578 31.9144 267.581 30.4383 269.94 29.3344C272.299 28.2305 274.965 27.6772 277.942 27.6772C281.498 27.6772 284.572 28.4568 287.168 30.0133C289.255 31.2656 290.9 32.8221 292.107 34.683C292.596 35.4373 292.415 36.4407 291.674 36.9537L288.703 39.0156C287.939 39.5462 286.891 39.3425 286.379 38.5655C285.868 37.7885 285.295 37.1599 284.638 36.6393C283.584 35.807 282.45 35.2085 281.236 34.8464C280.018 34.4843 278.849 34.3033 277.725 34.3033C275.837 34.3033 274.197 34.683 272.801 35.4449C271.404 36.2043 270.243 37.2026 269.318 38.4322C268.393 39.6644 267.692 41.0399 267.224 42.5587C266.752 44.0801 266.515 45.619 266.515 47.1756C266.515 48.8402 266.788 50.4622 267.332 52.0363C267.876 53.6105 268.647 55.0061 269.645 56.2181C270.643 57.4327 271.84 58.3907 273.237 59.0973C274.633 59.804 276.165 60.156 277.836 60.156C278.998 60.156 280.195 59.9573 281.427 59.5575C282.659 59.1602 283.804 58.5265 284.857 57.6565C285.545 57.0882 286.147 56.4067 286.664 55.6071C287.14 54.8703 288.123 54.6515 288.879 55.0966L292.183 57.0404C292.964 57.5006 293.236 58.5089 292.775 59.2885C292.009 60.5835 290.991 61.7251 289.726 62.7083C288.002 64.0486 286.079 65.062 283.957 65.7485C281.835 66.4375 279.721 66.7795 277.617 66.7795C274.86 66.7795 272.345 66.2087 270.079 65.0696C267.811 63.9279 265.843 62.4091 264.174 60.508C262.506 58.607 261.208 56.4721 260.283 54.1008C259.358 51.7295 258.895 49.3306 258.895 46.904V46.9015Z" fill="white"/>
</svg>
