<svg width="392" height="105" viewBox="0 0 392 105" fill="none" xmlns="http://www.w3.org/2000/svg">
<g filter="url(#filter0_dddd_798_5337)">
<rect x="4.10938" y="2.75391" width="360" height="64" rx="12" fill="white"/>
<rect x="4.60938" y="3.25391" width="359" height="63" rx="11.5" stroke="#C9C9C9"/>
<circle cx="39.6094" cy="34.7539" r="18" fill="#FDB53D"/>
<rect width="21.2468" height="24.2821" transform="translate(28.9863 22.6125)" fill="#FDB53D"/>
<path d="M43.885 37.0557C44.4781 36.7774 45.2572 37.081 45.2572 37.5869V38.4026C45.2572 39.2058 44.3807 40.0658 43.3272 40.3188L40.5032 40.9891C40.0074 41.1093 39.2018 41.1093 38.7149 40.9891L35.8909 40.3188C34.8285 40.0658 33.9609 39.2058 33.9609 38.4026V37.5805C33.9609 37.081 34.74 36.7774 35.3243 37.0493L37.148 37.8967C37.8473 38.2319 38.7326 38.3963 39.6179 38.3963C40.5032 38.3963 41.3885 38.2319 42.0878 37.8967L43.885 37.0557Z" fill="white"/>
<path d="M46.6732 31.2505L41.3704 28.7652C40.4143 28.3162 38.8385 28.3162 37.8823 28.7652L32.5529 31.2505C30.8443 32.041 30.8443 33.8306 32.5529 34.6274L33.9694 35.2851L37.8823 37.1064C38.8385 37.5554 40.4143 37.5554 41.3704 37.1064L45.2568 35.2851L46.4696 34.716V36.6511C46.4696 36.9104 46.7706 37.1254 47.1336 37.1254C47.4965 37.1254 47.7975 36.9104 47.7975 36.6511V33.5397C48.1516 32.724 47.7887 31.7754 46.6732 31.2505Z" fill="white"/>
<path d="M73.2892 43.2539V29.1659L70.3612 29.9099V28.1099L74.1772 26.4539H75.7372V43.2539H73.2892ZM78.9082 43.2539V41.5259C80.0282 40.6619 81.0922 39.7899 82.1002 38.9099C83.1082 38.0299 84.0042 37.1579 84.7882 36.2939C85.5882 35.4139 86.2122 34.5579 86.6602 33.7259C87.1082 32.8779 87.3322 32.0699 87.3322 31.3019C87.3322 30.7579 87.2362 30.2539 87.0442 29.7899C86.8522 29.3259 86.5482 28.9499 86.1322 28.6619C85.7162 28.3579 85.1482 28.2059 84.4282 28.2059C83.7402 28.2059 83.1642 28.3579 82.7002 28.6619C82.2522 28.9659 81.9082 29.3739 81.6682 29.8859C81.4442 30.3819 81.3322 30.9339 81.3322 31.5419H79.0042C79.0202 30.3899 79.2682 29.4139 79.7482 28.6139C80.2282 27.8139 80.8762 27.2059 81.6922 26.7899C82.5242 26.3739 83.4522 26.1659 84.4762 26.1659C85.5482 26.1659 86.4762 26.3659 87.2602 26.7659C88.0442 27.1499 88.6522 27.7179 89.0842 28.4699C89.5162 29.2059 89.7322 30.1099 89.7322 31.1819C89.7322 31.9499 89.5802 32.7179 89.2762 33.4859C88.9722 34.2379 88.5562 34.9739 88.0282 35.6939C87.5162 36.4139 86.9402 37.1099 86.3002 37.7819C85.6602 38.4379 84.9962 39.0619 84.3082 39.6539C83.6362 40.2459 82.9882 40.7819 82.3642 41.2619H90.2602V43.2539H78.9082ZM99.2158 43.5419C97.9838 43.5419 96.9438 43.3179 96.0958 42.8699C95.2638 42.4059 94.5918 41.7899 94.0798 41.0219C93.5678 40.2379 93.1918 39.3739 92.9518 38.4299C92.7278 37.4699 92.6158 36.4859 92.6158 35.4779C92.6158 33.6219 92.8718 31.9979 93.3838 30.6059C93.9118 29.2139 94.6638 28.1259 95.6398 27.3419C96.6158 26.5579 97.7918 26.1659 99.1678 26.1659C100.272 26.1659 101.208 26.3819 101.976 26.8139C102.76 27.2299 103.368 27.7899 103.8 28.4939C104.248 29.1979 104.52 29.9739 104.616 30.8219H102.384C102.24 29.9899 101.88 29.3499 101.304 28.9019C100.744 28.4379 100.024 28.2059 99.1438 28.2059C98.3598 28.2059 97.6558 28.4539 97.0318 28.9499C96.4078 29.4299 95.9118 30.1659 95.5438 31.1579C95.1918 32.1499 94.9918 33.4059 94.9438 34.9259C94.9438 34.9419 94.9438 34.9659 94.9438 34.9979C94.9438 35.0299 94.9438 35.0619 94.9438 35.0939C95.1838 34.6139 95.5278 34.1739 95.9758 33.7739C96.4238 33.3739 96.9518 33.0619 97.5598 32.8379C98.1838 32.5979 98.8558 32.4779 99.5758 32.4779C100.52 32.4779 101.4 32.7019 102.216 33.1499C103.048 33.5819 103.72 34.2059 104.232 35.0219C104.744 35.8379 105 36.7899 105 37.8779C105 38.8539 104.76 39.7739 104.28 40.6379C103.816 41.5019 103.152 42.2059 102.288 42.7499C101.424 43.2779 100.4 43.5419 99.2158 43.5419ZM99.0478 41.4539C99.7358 41.4539 100.344 41.3099 100.872 41.0219C101.416 40.7179 101.84 40.3019 102.144 39.7739C102.464 39.2459 102.624 38.6459 102.624 37.9739C102.624 37.2859 102.464 36.6859 102.144 36.1739C101.84 35.6459 101.416 35.2379 100.872 34.9499C100.344 34.6619 99.7358 34.5179 99.0478 34.5179C98.3598 34.5179 97.7438 34.6779 97.1998 34.9979C96.6558 35.3019 96.2238 35.7179 95.9038 36.2459C95.5838 36.7579 95.4238 37.3419 95.4238 37.9979C95.4238 38.6699 95.5838 39.2699 95.9038 39.7979C96.2238 40.3099 96.6558 40.7179 97.1998 41.0219C97.7598 41.3099 98.3758 41.4539 99.0478 41.4539ZM114.765 43.5419C113.277 43.5419 111.997 43.1819 110.925 42.4619C109.853 41.7259 109.029 40.7099 108.453 39.4139C107.877 38.1019 107.589 36.5819 107.589 34.8539C107.589 33.1259 107.877 31.6139 108.453 30.3179C109.029 29.0059 109.853 27.9899 110.925 27.2699C111.997 26.5339 113.277 26.1659 114.765 26.1659C116.253 26.1659 117.525 26.5339 118.581 27.2699C119.653 27.9899 120.469 29.0059 121.029 30.3179C121.605 31.6139 121.893 33.1259 121.893 34.8539C121.893 36.5819 121.605 38.1019 121.029 39.4139C120.469 40.7099 119.653 41.7259 118.581 42.4619C117.525 43.1819 116.253 43.5419 114.765 43.5419ZM114.765 41.4059C115.661 41.4059 116.461 41.1419 117.165 40.6139C117.885 40.0859 118.445 39.3339 118.845 38.3579C119.245 37.3819 119.445 36.2139 119.445 34.8539C119.445 33.4939 119.245 32.3259 118.845 31.3499C118.445 30.3739 117.885 29.6299 117.165 29.1179C116.461 28.5899 115.661 28.3259 114.765 28.3259C113.853 28.3259 113.037 28.5899 112.317 29.1179C111.597 29.6299 111.037 30.3739 110.637 31.3499C110.237 32.3259 110.037 33.4939 110.037 34.8539C110.037 36.2139 110.237 37.3819 110.637 38.3579C111.037 39.3339 111.597 40.0859 112.317 40.6139C113.037 41.1419 113.853 41.4059 114.765 41.4059ZM128.671 41.5979V30.9899H130.783V41.5979H128.671ZM124.135 37.3019V35.2859H135.343V37.3019H124.135ZM151.602 43.5419C150.018 43.5419 148.634 43.1819 147.45 42.4619C146.266 41.7419 145.346 40.7339 144.69 39.4379C144.034 38.1419 143.706 36.6299 143.706 34.9019C143.706 33.1899 144.034 31.6779 144.69 30.3659C145.362 29.0539 146.314 28.0299 147.546 27.2939C148.794 26.5419 150.266 26.1659 151.962 26.1659C153.866 26.1659 155.458 26.6299 156.738 27.5579C158.018 28.4699 158.842 29.7419 159.21 31.3739H156.474C156.234 30.4459 155.73 29.7179 154.962 29.1899C154.194 28.6459 153.186 28.3739 151.938 28.3739C150.754 28.3739 149.722 28.6379 148.842 29.1659C147.978 29.6939 147.314 30.4459 146.85 31.4219C146.386 32.3979 146.154 33.5579 146.154 34.9019C146.154 36.2619 146.386 37.4299 146.85 38.4059C147.314 39.3819 147.97 40.1259 148.818 40.6379C149.666 41.1499 150.642 41.4059 151.746 41.4059C153.442 41.4059 154.714 40.9179 155.562 39.9419C156.426 38.9659 156.93 37.6619 157.074 36.0299H152.442V34.1819H159.498V43.2539H157.314L157.098 40.6859C156.714 41.3099 156.266 41.8379 155.754 42.2699C155.258 42.6859 154.674 43.0059 154.002 43.2299C153.33 43.4379 152.53 43.5419 151.602 43.5419ZM162.538 43.2539V31.1579H164.698L164.914 33.4379C165.186 32.8939 165.538 32.4379 165.97 32.0699C166.402 31.6859 166.906 31.3899 167.482 31.1819C168.074 30.9739 168.746 30.8699 169.498 30.8699V33.4139H168.634C168.138 33.4139 167.666 33.4779 167.218 33.6059C166.77 33.7179 166.37 33.9179 166.018 34.2059C165.682 34.4939 165.418 34.8859 165.226 35.3819C165.034 35.8779 164.938 36.4939 164.938 37.2299V43.2539H162.538ZM176.871 43.5419C175.735 43.5419 174.711 43.2779 173.799 42.7499C172.903 42.2219 172.191 41.4859 171.663 40.5419C171.151 39.5819 170.895 38.4779 170.895 37.2299C170.895 35.9499 171.159 34.8379 171.687 33.8939C172.215 32.9339 172.935 32.1899 173.847 31.6619C174.759 31.1339 175.783 30.8699 176.919 30.8699C178.071 30.8699 179.095 31.1339 179.991 31.6619C180.887 32.1899 181.591 32.9259 182.103 33.8699C182.631 34.8139 182.895 35.9259 182.895 37.2059C182.895 38.4859 182.631 39.5979 182.103 40.5419C181.591 41.4859 180.879 42.2219 179.967 42.7499C179.055 43.2779 178.023 43.5419 176.871 43.5419ZM176.871 41.4779C177.527 41.4779 178.119 41.3179 178.647 40.9979C179.191 40.6779 179.623 40.2059 179.943 39.5819C180.279 38.9419 180.447 38.1499 180.447 37.2059C180.447 36.2619 180.287 35.4779 179.967 34.8539C179.647 34.2139 179.215 33.7339 178.671 33.4139C178.143 33.0939 177.559 32.9339 176.919 32.9339C176.279 32.9339 175.687 33.0939 175.143 33.4139C174.599 33.7339 174.159 34.2139 173.823 34.8539C173.503 35.4779 173.343 36.2619 173.343 37.2059C173.343 38.1499 173.503 38.9419 173.823 39.5819C174.159 40.2059 174.591 40.6779 175.119 40.9979C175.663 41.3179 176.247 41.4779 176.871 41.4779ZM191.238 43.5419C190.102 43.5419 189.078 43.2779 188.166 42.7499C187.27 42.2219 186.558 41.4859 186.03 40.5419C185.518 39.5819 185.262 38.4779 185.262 37.2299C185.262 35.9499 185.526 34.8379 186.054 33.8939C186.582 32.9339 187.302 32.1899 188.214 31.6619C189.126 31.1339 190.15 30.8699 191.286 30.8699C192.438 30.8699 193.462 31.1339 194.358 31.6619C195.254 32.1899 195.958 32.9259 196.47 33.8699C196.998 34.8139 197.262 35.9259 197.262 37.2059C197.262 38.4859 196.998 39.5979 196.47 40.5419C195.958 41.4859 195.246 42.2219 194.334 42.7499C193.422 43.2779 192.39 43.5419 191.238 43.5419ZM191.238 41.4779C191.894 41.4779 192.486 41.3179 193.014 40.9979C193.558 40.6779 193.99 40.2059 194.31 39.5819C194.646 38.9419 194.814 38.1499 194.814 37.2059C194.814 36.2619 194.654 35.4779 194.334 34.8539C194.014 34.2139 193.582 33.7339 193.038 33.4139C192.51 33.0939 191.926 32.9339 191.286 32.9339C190.646 32.9339 190.054 33.0939 189.51 33.4139C188.966 33.7339 188.526 34.2139 188.19 34.8539C187.87 35.4779 187.71 36.2619 187.71 37.2059C187.71 38.1499 187.87 38.9419 188.19 39.5819C188.526 40.2059 188.958 40.6779 189.486 40.9979C190.03 41.3179 190.614 41.4779 191.238 41.4779ZM200.085 43.2539V31.1579H202.245L202.413 32.8619C202.797 32.2379 203.309 31.7499 203.949 31.3979C204.589 31.0459 205.309 30.8699 206.109 30.8699C206.717 30.8699 207.269 30.9579 207.765 31.1339C208.261 31.2939 208.701 31.5419 209.085 31.8779C209.469 32.2139 209.781 32.6299 210.021 33.1259C210.453 32.4219 211.029 31.8699 211.749 31.4699C212.485 31.0699 213.261 30.8699 214.077 30.8699C215.053 30.8699 215.893 31.0699 216.597 31.4699C217.301 31.8539 217.837 32.4379 218.205 33.2219C218.573 33.9899 218.757 34.9499 218.757 36.1019V43.2539H216.381V36.3419C216.381 35.2219 216.149 34.3739 215.685 33.7979C215.237 33.2219 214.573 32.9339 213.693 32.9339C213.101 32.9339 212.573 33.0859 212.109 33.3899C211.645 33.6939 211.277 34.1339 211.005 34.7099C210.749 35.2859 210.621 35.9899 210.621 36.8219V43.2539H208.221V36.3419C208.221 35.2219 207.989 34.3739 207.525 33.7979C207.077 33.2219 206.413 32.9339 205.533 32.9339C204.973 32.9339 204.461 33.0859 203.997 33.3899C203.533 33.6939 203.165 34.1339 202.893 34.7099C202.621 35.2859 202.485 35.9899 202.485 36.8219V43.2539H200.085ZM222.027 43.2539V31.1579H224.427V43.2539H222.027ZM223.251 28.8779C222.787 28.8779 222.403 28.7339 222.099 28.4459C221.811 28.1579 221.667 27.7899 221.667 27.3419C221.667 26.9099 221.811 26.5579 222.099 26.2859C222.403 25.9979 222.787 25.8539 223.251 25.8539C223.699 25.8539 224.075 25.9979 224.379 26.2859C224.683 26.5579 224.835 26.9099 224.835 27.3419C224.835 27.7899 224.683 28.1579 224.379 28.4459C224.075 28.7339 223.699 28.8779 223.251 28.8779ZM227.859 43.2539V31.1579H230.019L230.163 33.2219C230.547 32.5019 231.091 31.9339 231.795 31.5179C232.499 31.0859 233.307 30.8699 234.219 30.8699C235.179 30.8699 236.003 31.0619 236.691 31.4459C237.379 31.8299 237.915 32.4139 238.299 33.1979C238.683 33.9659 238.875 34.9339 238.875 36.1019V43.2539H236.475V36.3419C236.475 35.2219 236.227 34.3739 235.731 33.7979C235.235 33.2219 234.515 32.9339 233.571 32.9339C232.947 32.9339 232.387 33.0859 231.891 33.3899C231.395 33.6779 230.995 34.1099 230.691 34.6859C230.403 35.2619 230.259 35.9659 230.259 36.7979V43.2539H227.859ZM246.865 48.8219C245.761 48.8219 244.785 48.6779 243.937 48.3899C243.089 48.1179 242.433 47.6939 241.969 47.1179C241.505 46.5419 241.273 45.8379 241.273 45.0059C241.273 44.5739 241.369 44.1339 241.561 43.6859C241.753 43.2539 242.065 42.8379 242.497 42.4379C242.929 42.0379 243.513 41.6779 244.249 41.3579L245.593 42.4379C244.777 42.7419 244.225 43.1019 243.937 43.5179C243.665 43.9499 243.529 44.3659 243.529 44.7659C243.529 45.2459 243.673 45.6459 243.961 45.9659C244.249 46.2859 244.641 46.5259 245.137 46.6859C245.649 46.8459 246.225 46.9259 246.865 46.9259C247.489 46.9259 248.033 46.8379 248.497 46.6619C248.961 46.4859 249.321 46.2379 249.577 45.9179C249.833 45.5979 249.961 45.2219 249.961 44.7899C249.961 44.2779 249.769 43.8459 249.385 43.4939C249.001 43.1579 248.265 42.9579 247.177 42.8939C246.265 42.8299 245.489 42.7419 244.849 42.6299C244.225 42.5179 243.689 42.3819 243.241 42.2219C242.809 42.0619 242.441 41.8859 242.137 41.6939C241.849 41.5019 241.601 41.3019 241.393 41.0939V40.5419L243.793 38.0699L245.737 38.7419L243.121 41.1659L243.625 40.0859C243.801 40.1979 243.969 40.3099 244.129 40.4219C244.289 40.5179 244.505 40.6059 244.777 40.6859C245.049 40.7659 245.417 40.8379 245.881 40.9019C246.345 40.9659 246.953 41.0299 247.705 41.0939C248.793 41.1739 249.665 41.3659 250.321 41.6699C250.993 41.9739 251.481 42.3819 251.785 42.8939C252.089 43.4059 252.241 44.0139 252.241 44.7179C252.241 45.4059 252.049 46.0619 251.665 46.6859C251.297 47.3099 250.713 47.8219 249.913 48.2219C249.129 48.6219 248.113 48.8219 246.865 48.8219ZM246.865 39.5339C245.841 39.5339 244.969 39.3419 244.249 38.9579C243.545 38.5739 243.001 38.0539 242.617 37.3979C242.249 36.7419 242.065 36.0139 242.065 35.2139C242.065 34.3979 242.249 33.6699 242.617 33.0299C243.001 32.3739 243.553 31.8539 244.273 31.4699C244.993 31.0699 245.857 30.8699 246.865 30.8699C247.873 30.8699 248.729 31.0699 249.433 31.4699C250.153 31.8539 250.697 32.3739 251.065 33.0299C251.449 33.6699 251.641 34.3979 251.641 35.2139C251.641 36.0139 251.449 36.7419 251.065 37.3979C250.697 38.0539 250.153 38.5739 249.433 38.9579C248.729 39.3419 247.873 39.5339 246.865 39.5339ZM246.865 37.6139C247.649 37.6139 248.273 37.4139 248.737 37.0139C249.201 36.5979 249.433 35.9979 249.433 35.2139C249.433 34.4299 249.201 33.8379 248.737 33.4379C248.273 33.0219 247.649 32.8139 246.865 32.8139C246.081 32.8139 245.449 33.0219 244.969 33.4379C244.489 33.8379 244.249 34.4299 244.249 35.2139C244.249 35.9979 244.489 36.5979 244.969 37.0139C245.449 37.4139 246.081 37.6139 246.865 37.6139ZM248.833 33.0539L248.257 31.1579H253.225V32.8139L248.833 33.0539ZM261.893 43.2539V26.4539H272.501V28.4219H264.293V33.7979H271.781V35.7179H264.293V41.2859H272.501V43.2539H261.893ZM274.332 43.2539L278.508 37.2059L274.332 31.1579H276.924L280.092 35.8619L283.284 31.1579H285.852L281.676 37.2059L285.852 43.2539H283.284L280.092 38.5259L276.924 43.2539H274.332ZM287.952 48.5339V31.1579H290.112L290.352 33.0299C290.608 32.6619 290.928 32.3179 291.312 31.9979C291.696 31.6619 292.152 31.3899 292.68 31.1819C293.224 30.9739 293.856 30.8699 294.576 30.8699C295.728 30.8699 296.736 31.1499 297.6 31.7099C298.48 32.2699 299.16 33.0299 299.64 33.9899C300.136 34.9339 300.384 36.0139 300.384 37.2299C300.384 38.4459 300.136 39.5339 299.64 40.4939C299.144 41.4379 298.456 42.1819 297.576 42.7259C296.712 43.2699 295.704 43.5419 294.552 43.5419C293.608 43.5419 292.776 43.3579 292.056 42.9899C291.336 42.6059 290.768 42.0779 290.352 41.4059V48.5339H287.952ZM294.168 41.4539C294.904 41.4539 295.552 41.2779 296.112 40.9259C296.688 40.5739 297.136 40.0779 297.456 39.4379C297.792 38.7979 297.96 38.0539 297.96 37.2059C297.96 36.3579 297.792 35.6219 297.456 34.9979C297.136 34.3579 296.688 33.8619 296.112 33.5099C295.552 33.1419 294.904 32.9579 294.168 32.9579C293.416 32.9579 292.752 33.1419 292.176 33.5099C291.616 33.8619 291.176 34.3579 290.856 34.9979C290.536 35.6219 290.376 36.3579 290.376 37.2059C290.376 38.0539 290.536 38.7979 290.856 39.4379C291.176 40.0779 291.616 40.5739 292.176 40.9259C292.752 41.2779 293.416 41.4539 294.168 41.4539ZM308.659 43.5419C307.507 43.5419 306.483 43.2779 305.587 42.7499C304.691 42.2219 303.987 41.4859 303.475 40.5419C302.979 39.5979 302.731 38.5019 302.731 37.2539C302.731 35.9739 302.979 34.8619 303.475 33.9179C303.987 32.9579 304.691 32.2139 305.587 31.6859C306.483 31.1419 307.523 30.8699 308.707 30.8699C309.891 30.8699 310.907 31.1339 311.755 31.6619C312.603 32.1899 313.259 32.8939 313.723 33.7739C314.187 34.6379 314.419 35.5979 314.419 36.6539C314.419 36.8139 314.411 36.9899 314.395 37.1819C314.395 37.3579 314.387 37.5579 314.371 37.7819H304.483V36.0779H312.019C311.971 35.0699 311.635 34.2859 311.011 33.7259C310.387 33.1499 309.611 32.8619 308.683 32.8619C308.027 32.8619 307.427 33.0139 306.883 33.3179C306.339 33.6059 305.899 34.0379 305.563 34.6139C305.243 35.1739 305.083 35.8859 305.083 36.7499V37.4219C305.083 38.3179 305.243 39.0779 305.563 39.7019C305.899 40.3099 306.339 40.7739 306.883 41.0939C307.427 41.3979 308.019 41.5499 308.659 41.5499C309.427 41.5499 310.059 41.3819 310.555 41.0459C311.051 40.7099 311.419 40.2539 311.659 39.6779H314.059C313.851 40.4139 313.499 41.0779 313.003 41.6699C312.507 42.2459 311.891 42.7019 311.155 43.0379C310.435 43.3739 309.603 43.5419 308.659 43.5419ZM317.085 43.2539V31.1579H319.245L319.461 33.4379C319.733 32.8939 320.085 32.4379 320.517 32.0699C320.949 31.6859 321.453 31.3899 322.029 31.1819C322.621 30.9739 323.293 30.8699 324.045 30.8699V33.4139H323.181C322.685 33.4139 322.213 33.4779 321.765 33.6059C321.317 33.7179 320.917 33.9179 320.565 34.2059C320.229 34.4939 319.965 34.8859 319.773 35.3819C319.581 35.8779 319.485 36.4939 319.485 37.2299V43.2539H317.085ZM331.241 43.2539C330.473 43.2539 329.809 43.1339 329.249 42.8939C328.689 42.6539 328.257 42.2539 327.953 41.6939C327.649 41.1339 327.497 40.3739 327.497 39.4139V33.1979H325.409V31.1579H327.497L327.785 28.1339H329.897V31.1579H333.329V33.1979H329.897V39.4379C329.897 40.1259 330.041 40.5979 330.329 40.8539C330.617 41.0939 331.113 41.2139 331.817 41.2139H333.209V43.2539H331.241ZM340.656 43.5419C339.632 43.5419 338.736 43.3739 337.968 43.0379C337.2 42.7019 336.592 42.2299 336.144 41.6219C335.696 41.0139 335.424 40.3019 335.328 39.4859H337.776C337.856 39.8699 338.008 40.2219 338.232 40.5419C338.472 40.8619 338.792 41.1179 339.192 41.3099C339.608 41.5019 340.096 41.5979 340.656 41.5979C341.184 41.5979 341.616 41.5259 341.952 41.3819C342.304 41.2219 342.56 41.0139 342.72 40.7579C342.88 40.4859 342.96 40.1979 342.96 39.8939C342.96 39.4459 342.848 39.1099 342.624 38.8859C342.416 38.6459 342.096 38.4619 341.664 38.3339C341.248 38.1899 340.744 38.0619 340.152 37.9499C339.592 37.8539 339.048 37.7259 338.52 37.5659C338.008 37.3899 337.544 37.1739 337.128 36.9179C336.728 36.6619 336.408 36.3419 336.168 35.9579C335.928 35.5579 335.808 35.0699 335.808 34.4939C335.808 33.8059 335.992 33.1899 336.36 32.6459C336.728 32.0859 337.248 31.6539 337.92 31.3499C338.608 31.0299 339.416 30.8699 340.344 30.8699C341.688 30.8699 342.768 31.1899 343.584 31.8299C344.4 32.4699 344.88 33.3739 345.024 34.5419H342.696C342.632 33.9979 342.392 33.5819 341.976 33.2939C341.56 32.9899 341.008 32.8379 340.32 32.8379C339.632 32.8379 339.104 32.9739 338.736 33.2459C338.368 33.5179 338.184 33.8779 338.184 34.3259C338.184 34.6139 338.288 34.8699 338.496 35.0939C338.704 35.3179 339.008 35.5099 339.408 35.6699C339.824 35.8139 340.328 35.9499 340.92 36.0779C341.768 36.2379 342.528 36.4379 343.2 36.6779C343.872 36.9179 344.408 37.2699 344.808 37.7339C345.208 38.1979 345.408 38.8619 345.408 39.7259C345.424 40.4779 345.232 41.1419 344.832 41.7179C344.448 42.2939 343.896 42.7419 343.176 43.0619C342.472 43.3819 341.632 43.5419 340.656 43.5419Z" fill="#242C07"/>
</g>
<defs>
<filter id="filter0_dddd_798_5337" x="0.109375" y="0.753906" width="391" height="104" filterUnits="userSpaceOnUse" color-interpolation-filters="sRGB">
<feFlood flood-opacity="0" result="BackgroundImageFix"/>
<feColorMatrix in="SourceAlpha" type="matrix" values="0 0 0 0 0 0 0 0 0 0 0 0 0 0 0 0 0 0 127 0" result="hardAlpha"/>
<feOffset dx="1" dy="2"/>
<feGaussianBlur stdDeviation="2"/>
<feColorMatrix type="matrix" values="0 0 0 0 0.670588 0 0 0 0 0.670588 0 0 0 0 0.670588 0 0 0 0.1 0"/>
<feBlend mode="normal" in2="BackgroundImageFix" result="effect1_dropShadow_798_5337"/>
<feColorMatrix in="SourceAlpha" type="matrix" values="0 0 0 0 0 0 0 0 0 0 0 0 0 0 0 0 0 0 127 0" result="hardAlpha"/>
<feOffset dx="4" dy="6"/>
<feGaussianBlur stdDeviation="4"/>
<feColorMatrix type="matrix" values="0 0 0 0 0.670588 0 0 0 0 0.670588 0 0 0 0 0.670588 0 0 0 0.09 0"/>
<feBlend mode="normal" in2="effect1_dropShadow_798_5337" result="effect2_dropShadow_798_5337"/>
<feColorMatrix in="SourceAlpha" type="matrix" values="0 0 0 0 0 0 0 0 0 0 0 0 0 0 0 0 0 0 127 0" result="hardAlpha"/>
<feOffset dx="9" dy="14"/>
<feGaussianBlur stdDeviation="5"/>
<feColorMatrix type="matrix" values="0 0 0 0 0.670588 0 0 0 0 0.670588 0 0 0 0 0.670588 0 0 0 0.05 0"/>
<feBlend mode="normal" in2="effect2_dropShadow_798_5337" result="effect3_dropShadow_798_5337"/>
<feColorMatrix in="SourceAlpha" type="matrix" values="0 0 0 0 0 0 0 0 0 0 0 0 0 0 0 0 0 0 127 0" result="hardAlpha"/>
<feOffset dx="15" dy="26"/>
<feGaussianBlur stdDeviation="6"/>
<feColorMatrix type="matrix" values="0 0 0 0 0.670588 0 0 0 0 0.670588 0 0 0 0 0.670588 0 0 0 0.01 0"/>
<feBlend mode="normal" in2="effect3_dropShadow_798_5337" result="effect4_dropShadow_798_5337"/>
<feBlend mode="normal" in="SourceGraphic" in2="effect4_dropShadow_798_5337" result="shape"/>
</filter>
</defs>
</svg>
