<svg width="50" height="30" viewBox="0 0 50 30" fill="none" xmlns="http://www.w3.org/2000/svg">
<path d="M47.8254 17.8105C47.8254 17.9494 47.6864 17.9494 47.5474 18.0884C44.9067 21.424 41.2932 24.0647 37.1237 25.8715C33.5101 27.4003 29.3406 28.3732 24.8932 28.3732C20.4457 28.3732 16.2762 27.5393 12.6626 25.8715C8.35414 24.0647 4.74058 21.424 2.23888 18.0884C2.0999 17.9494 2.09992 17.9494 1.96094 17.8105C5.29654 7.66468 13.3576 0.715506 21.5576 1.68839C22.6694 1.82737 23.7813 2.10535 24.7542 2.5223C25.866 2.10535 26.8389 1.82737 27.9508 1.68839" stroke="white" stroke-width="3" stroke-miterlimit="10" stroke-linecap="round" stroke-linejoin="round"/>
<path d="M24.8906 2.5223C26.0025 2.10535 26.9754 1.82737 28.2262 1.68839C36.4262 0.715506 44.4873 7.66468 47.8229 17.8105C47.8229 17.8105 47.8228 17.8104 47.5449 18.0884C44.9042 21.424 41.2906 24.0647 37.1211 25.8715C33.5076 27.4003 29.3381 28.3732 24.8906 28.3732" stroke="white" stroke-width="3" stroke-miterlimit="10" stroke-linecap="round" stroke-linejoin="round"/>
</svg>
