<svg width="29" height="28" viewBox="0 0 29 28" fill="none" xmlns="http://www.w3.org/2000/svg">
<path d="M21.2632 8.35301C21.1932 8.34135 21.1115 8.34135 21.0415 8.35301C19.4315 8.29468 18.1482 6.97634 18.1482 5.34301C18.1482 3.67468 19.4898 2.33301 21.1582 2.33301C22.8265 2.33301 24.1682 3.68634 24.1682 5.34301C24.1565 6.97634 22.8732 8.29468 21.2632 8.35301Z" stroke="#98C808" stroke-width="1.5" stroke-linecap="round" stroke-linejoin="round"/>
<path d="M20.0615 16.8465C21.6598 17.1149 23.4215 16.8349 24.6582 16.0065C26.3032 14.9099 26.3032 13.1132 24.6582 12.0165C23.4098 11.1882 21.6248 10.9082 20.0265 11.1882" stroke="#98C808" stroke-width="1.5" stroke-linecap="round" stroke-linejoin="round"/>
<path d="M7.22815 8.35301C7.29815 8.34135 7.37982 8.34135 7.44982 8.35301C9.05982 8.29468 10.3432 6.97634 10.3432 5.34301C10.3432 3.67468 9.00149 2.33301 7.33315 2.33301C5.66482 2.33301 4.32315 3.68634 4.32315 5.34301C4.33482 6.97634 5.61815 8.29468 7.22815 8.35301Z" stroke="#98C808" stroke-width="1.5" stroke-linecap="round" stroke-linejoin="round"/>
<path d="M8.42983 16.8465C6.83149 17.1149 5.06983 16.8349 3.83316 16.0065C2.18816 14.9099 2.18816 13.1132 3.83316 12.0165C5.08149 11.1882 6.86649 10.9082 8.46482 11.1882" stroke="#98C808" stroke-width="1.5" stroke-linecap="round" stroke-linejoin="round"/>
<path d="M14.2631 17.0679C14.1931 17.0562 14.1115 17.0562 14.0415 17.0679C12.4315 17.0095 11.1481 15.6912 11.1481 14.0579C11.1481 12.3895 12.4898 11.0479 14.1581 11.0479C15.8265 11.0479 17.1681 12.4012 17.1681 14.0579C17.1565 15.6912 15.8731 17.0212 14.2631 17.0679Z" stroke="#98C808" stroke-width="1.5" stroke-linecap="round" stroke-linejoin="round"/>
<path d="M10.8681 20.7429C9.22315 21.8396 9.22315 23.6363 10.8681 24.7329C12.7348 25.9813 15.7915 25.9813 17.6581 24.7329C19.3031 23.6363 19.3031 21.8396 17.6581 20.7429C15.8031 19.5063 12.7348 19.5063 10.8681 20.7429Z" stroke="#98C808" stroke-width="1.5" stroke-linecap="round" stroke-linejoin="round"/>
</svg>
