<svg width="29" height="29" viewBox="0 0 29 29" fill="none" xmlns="http://www.w3.org/2000/svg">
<path d="M21.2632 8.39256C21.1932 8.3809 21.1115 8.3809 21.0415 8.39256C19.4315 8.33423 18.1482 7.01589 18.1482 5.38256C18.1482 3.71423 19.4898 2.37256 21.1582 2.37256C22.8265 2.37256 24.1682 3.72589 24.1682 5.38256C24.1565 7.01589 22.8732 8.33423 21.2632 8.39256Z" stroke="white" stroke-width="1.5" stroke-linecap="round" stroke-linejoin="round"/>
<path d="M20.0615 16.8861C21.6598 17.1544 23.4215 16.8744 24.6582 16.0461C26.3032 14.9494 26.3032 13.1527 24.6582 12.0561C23.4098 11.2277 21.6248 10.9477 20.0265 11.2277" stroke="white" stroke-width="1.5" stroke-linecap="round" stroke-linejoin="round"/>
<path d="M7.22815 8.39256C7.29815 8.3809 7.37982 8.3809 7.44982 8.39256C9.05982 8.33423 10.3432 7.01589 10.3432 5.38256C10.3432 3.71423 9.00149 2.37256 7.33315 2.37256C5.66482 2.37256 4.32315 3.72589 4.32315 5.38256C4.33482 7.01589 5.61815 8.33423 7.22815 8.39256Z" stroke="white" stroke-width="1.5" stroke-linecap="round" stroke-linejoin="round"/>
<path d="M8.42983 16.8861C6.83149 17.1544 5.06983 16.8744 3.83316 16.0461C2.18816 14.9494 2.18816 13.1527 3.83316 12.0561C5.08149 11.2277 6.86649 10.9477 8.46482 11.2277" stroke="white" stroke-width="1.5" stroke-linecap="round" stroke-linejoin="round"/>
<path d="M14.2631 17.1074C14.1931 17.0957 14.1115 17.0957 14.0415 17.1074C12.4315 17.0491 11.1481 15.7307 11.1481 14.0974C11.1481 12.4291 12.4898 11.0874 14.1581 11.0874C15.8265 11.0874 17.1681 12.4407 17.1681 14.0974C17.1565 15.7307 15.8731 17.0607 14.2631 17.1074Z" stroke="white" stroke-width="1.5" stroke-linecap="round" stroke-linejoin="round"/>
<path d="M10.8681 20.7825C9.22315 21.8791 9.22315 23.6758 10.8681 24.7725C12.7348 26.0208 15.7915 26.0208 17.6581 24.7725C19.3031 23.6758 19.3031 21.8791 17.6581 20.7825C15.8031 19.5458 12.7348 19.5458 10.8681 20.7825Z" stroke="white" stroke-width="1.5" stroke-linecap="round" stroke-linejoin="round"/>
</svg>
