<svg width="83" height="85" viewBox="0 0 83 85" fill="none" xmlns="http://www.w3.org/2000/svg">
<path d="M58.7941 7.72131H24.3389C14.8293 7.72131 7.11133 15.478 7.11133 25.0434V45.8438V49.3221C7.11133 58.8876 14.8293 66.6442 24.3389 66.6442H29.5072C30.4375 66.6442 31.6779 67.2703 32.2636 68.0356L37.4319 74.9574C39.7059 78.0184 43.4271 78.0184 45.7011 74.9574L50.8694 68.0356C51.524 67.166 52.5577 66.6442 53.6258 66.6442H58.7941C68.3037 66.6442 76.0216 58.8876 76.0216 49.3221V25.0434C76.0216 15.478 68.3037 7.72131 58.7941 7.72131ZM54.1771 51.3048C53.6602 51.8265 53.0056 52.07 52.351 52.07C51.6963 52.07 51.0417 51.8265 50.5248 51.3048L47.9751 48.7308C45.9767 50.0526 43.5649 50.8526 40.9807 50.8526C33.9519 50.8526 28.2323 45.0786 28.2323 37.9828C28.2323 30.887 33.9174 25.113 40.9807 25.113C48.0441 25.113 53.7292 30.887 53.7292 37.9828C53.7292 40.5915 52.9367 43.0264 51.6274 45.0438L54.1771 47.6178C55.1763 48.6265 55.1763 50.2961 54.1771 51.3048Z" fill="#242C07"/>
</svg>
