<svg width="65" height="65" viewBox="0 0 65 65" fill="none" xmlns="http://www.w3.org/2000/svg">
<path d="M32.8915 35.8123H44.2881H55.6848C38.7288 35.2564 32.7525 27.1953 32.7525 27.1953C32.7525 27.1953 26.7763 35.1174 9.82031 35.8123H21.217H32.8915Z" stroke="white" stroke-width="3" stroke-miterlimit="10" stroke-linecap="round" stroke-linejoin="round"/>
<path d="M55.8254 35.8105C55.8254 35.9494 55.6864 35.9494 55.5474 36.0884C52.9067 39.424 49.2932 42.0647 45.1237 43.8715C41.5101 45.4003 37.3406 46.3732 32.8932 46.3732C28.4457 46.3732 24.2762 45.5393 20.6626 43.8715C16.3541 42.0647 12.7406 39.424 10.2389 36.0884C10.0999 35.9494 10.0999 35.9494 9.96094 35.8105C13.2965 25.6647 21.3576 18.7155 29.5576 19.6884C30.6694 19.8274 31.7813 20.1053 32.7542 20.5223C33.866 20.1053 34.8389 19.8274 35.9508 19.6884" stroke="white" stroke-width="3" stroke-miterlimit="10" stroke-linecap="round" stroke-linejoin="round"/>
<path d="M32.8906 20.5223C34.0025 20.1053 34.9754 19.8274 36.2262 19.6884C44.4262 18.7155 52.4873 25.6647 55.8229 35.8105C55.8229 35.8105 55.8228 35.8104 55.5449 36.0884C52.9042 39.424 49.2906 42.0647 45.1211 43.8715C41.5076 45.4003 37.3381 46.3732 32.8906 46.3732" stroke="white" stroke-width="3" stroke-miterlimit="10" stroke-linecap="round" stroke-linejoin="round"/>
</svg>
