<svg width="235" height="189" viewBox="0 0 235 189" fill="none" xmlns="http://www.w3.org/2000/svg">
<rect x="0.125" y="0.109375" width="234.025" height="188.789" rx="18.9011" fill="#D5FF3C"/>
<path d="M134.364 59.7212H99.9092C90.3996 59.7212 82.6816 67.4779 82.6816 77.0433V97.8437V101.322C82.6816 110.887 90.3996 118.644 99.9092 118.644H105.077C106.008 118.644 107.248 119.27 107.834 120.035L113.002 126.957C115.276 130.018 118.997 130.018 121.271 126.957L126.44 120.035C127.094 119.166 128.128 118.644 129.196 118.644H134.364C143.874 118.644 151.592 110.887 151.592 101.322V77.0433C151.592 67.4779 143.874 59.7212 134.364 59.7212ZM129.747 103.305C129.231 103.826 128.576 104.07 127.921 104.07C127.267 104.07 126.612 103.826 126.095 103.305L123.545 100.731C121.547 102.052 119.135 102.852 116.551 102.852C109.522 102.852 103.803 97.0785 103.803 89.9827C103.803 82.8869 109.488 77.1128 116.551 77.1128C123.614 77.1128 129.299 82.8869 129.299 89.9827C129.299 92.5914 128.507 95.0262 127.198 97.0437L129.747 99.6176C130.747 100.626 130.747 102.296 129.747 103.305Z" fill="#242C07"/>
</svg>
