<svg width="164" height="169" viewBox="0 0 164 169" fill="none" xmlns="http://www.w3.org/2000/svg">
<path d="M95.378 155.379C82.0199 157.933 69.6576 157.174 58.2909 153.103C46.9242 149.031 37.2802 142.255 29.3589 132.774C21.5436 123.137 16.2964 111.312 13.6175 97.2987C10.9386 83.2858 11.4662 70.4246 15.2006 58.7151C19.0408 46.8496 25.4926 36.9283 34.5559 28.9512C43.6192 20.9741 54.8299 15.7087 68.188 13.1549C81.677 10.5761 94.1049 11.3224 105.472 15.3937C116.969 19.4401 126.56 26.2943 134.245 35.9566C142.035 45.4629 147.27 57.2225 149.948 71.2353C152.627 85.2482 152.112 98.1749 148.403 110.015C144.8 121.7 138.401 131.543 129.207 139.545C120.143 147.522 108.867 152.8 95.378 155.379ZM90.646 130.627C98.8966 129.05 105.671 125.787 110.969 120.837C116.267 115.887 119.902 109.695 121.875 102.259C123.822 94.6919 123.881 86.1284 122.054 76.5682C120.226 67.008 117.024 59.1359 112.448 52.9518C107.847 46.6367 102.172 42.1561 95.4213 39.5099C88.671 36.8637 81.1705 36.3293 72.9199 37.9066C64.8003 39.4589 58.0914 42.7099 52.7933 47.6594C47.6261 52.584 44.0034 58.8422 41.9254 66.4341C39.9533 73.8701 39.8811 82.3681 41.7088 91.9283C43.5364 101.489 46.7508 109.426 51.3518 115.741C56.0587 121.9 61.7218 126.315 68.3412 128.987C75.0915 131.633 82.5264 132.18 90.646 130.627Z" fill="#242C07"/>
</svg>
