<svg width="176" height="180" viewBox="0 0 176 180" fill="none" xmlns="http://www.w3.org/2000/svg">
<path d="M109.128 159.495C96.1223 163.471 83.7501 164.047 72.0113 161.222C60.2725 158.398 49.9554 152.698 41.0599 144.125C32.253 135.384 25.764 124.192 21.5928 110.549C17.4216 96.9058 16.5624 84.0625 19.0151 72.0192C21.5564 59.8093 26.9031 49.2514 35.0555 40.3454C43.2079 31.4394 53.7869 24.9983 66.7927 21.022C79.9259 17.0068 92.3619 16.4115 104.101 19.2362C115.967 22.0219 126.24 27.8044 134.919 36.5837C143.687 45.1966 150.157 56.3246 154.328 69.9679C158.499 83.6112 159.378 96.5182 156.964 108.689C154.639 120.693 149.336 131.168 141.056 140.113C132.904 149.019 122.261 155.48 109.128 159.495ZM101.76 135.396C109.793 132.94 116.177 128.967 120.912 123.476C125.647 117.985 128.595 111.437 129.755 103.832C130.877 96.0995 130.015 87.5793 127.169 78.2713C124.323 68.9632 120.293 61.4813 115.078 55.8255C109.824 50.0422 103.699 46.1983 96.7036 44.2938C89.7078 42.3893 82.1934 42.665 74.1604 45.1209C66.255 47.5378 59.9348 51.4918 55.2 56.9827C50.5927 62.4346 47.6645 69.0463 46.4154 76.8178C45.2548 84.4227 46.0974 92.8792 48.9431 102.187C51.7889 111.495 55.8386 119.041 61.0924 124.824C66.4347 130.441 72.54 134.221 79.4084 136.165C86.4042 138.069 93.8549 137.813 101.76 135.396Z" fill="#242C07"/>
</svg>
