<svg width="160" height="174" viewBox="0 0 160 174" fill="none" xmlns="http://www.w3.org/2000/svg">
<path d="M67.8871 173.296L0.0137832 50.8494L46.3686 25.1545C56.281 19.6599 65.3814 16.826 73.6699 16.6526C82.075 16.4145 89.4355 18.2799 95.7516 22.2488C102.12 26.0364 107.243 31.4287 111.121 38.4257C114.741 44.9562 116.561 51.9512 116.579 59.4106C116.715 66.8055 114.487 74.0621 109.896 81.1805C105.24 88.1823 97.839 94.4951 87.6934 100.119L66.0028 112.142L92.3765 159.721L67.8871 173.296ZM131.21 138.196L76.4282 98.3598L103.017 83.6216L159.197 122.682L131.21 138.196ZM56.1127 94.2999L76.5788 82.9554C83.4592 79.1415 87.5947 74.6387 88.9853 69.4469C90.4926 64.1904 89.6948 58.7634 86.592 53.1658C83.5539 47.6849 79.4972 44.2168 74.422 42.7615C69.3468 41.3062 63.2524 42.5501 56.1389 46.4932L35.8477 57.7408L56.1127 94.2999Z" fill="#D5FF3C"/>
</svg>
