<svg width="119" height="151" viewBox="0 0 119 151" fill="none" xmlns="http://www.w3.org/2000/svg">
<path d="M0.539801 140.056L15.1738 0.822595L67.8834 6.3626C79.1547 7.54726 88.2348 10.4456 95.1238 15.0576C102.145 19.6836 107.105 25.4335 110.002 32.3073C113.046 39.0625 114.15 46.4182 113.314 54.3744C112.533 61.8001 110.011 68.5736 105.748 74.6949C101.618 80.8301 95.6304 85.4965 87.7865 88.6941C79.9566 91.7591 70.2734 92.6853 58.7369 91.4728L34.0728 88.8805L28.3864 142.982L0.539801 140.056ZM72.5432 147.624L50.5179 83.5704L80.7514 86.748L104.368 150.968L72.5432 147.624ZM36.2051 68.5922L59.477 71.0382C67.3005 71.8605 73.2708 70.544 77.3879 67.0888C81.6376 63.6475 84.0969 58.7443 84.7659 52.3794C85.4209 46.147 84.0871 40.9793 80.7645 36.8762C77.4418 32.7731 71.7361 30.2964 63.6473 29.4463L40.5744 27.0212L36.2051 68.5922Z" fill="#242C07"/>
</svg>
