<svg width="58" height="59" viewBox="0 0 58 59" fill="none" xmlns="http://www.w3.org/2000/svg">
<g filter="url(#filter0_d_1213_11684)">
<rect width="53.4459" height="53.4459" rx="26.7229" transform="matrix(-1 0 0 1 55.9297 2.77734)" fill="black"/>
<g clip-path="url(#clip0_1213_11684)">
<path d="M43.5076 30.6297L32.7076 41.4297C32.4824 41.6549 32.177 41.7814 31.8586 41.7814C31.5402 41.7814 31.2348 41.6549 31.0096 41.4297C30.7844 41.2045 30.6579 40.8991 30.6579 40.5807C30.6579 40.2623 30.7844 39.9569 31.0096 39.7317L39.7621 30.9807H16.2586C15.9403 30.9807 15.6351 30.8543 15.4101 30.6292C15.185 30.4042 15.0586 30.099 15.0586 29.7807C15.0586 29.4624 15.185 29.1572 15.4101 28.9322C15.6351 28.7071 15.9403 28.5807 16.2586 28.5807H39.7621L31.0096 19.8297C30.7844 19.6045 30.6579 19.2991 30.6579 18.9807C30.6579 18.6623 30.7844 18.3569 31.0096 18.1317C31.2348 17.9065 31.5402 17.78 31.8586 17.78C32.177 17.78 32.4824 17.9065 32.7076 18.1317L43.5076 28.9317C43.6192 29.0431 43.7077 29.1755 43.7681 29.3212C43.8285 29.4668 43.8595 29.623 43.8595 29.7807C43.8595 29.9384 43.8285 30.0945 43.7681 30.2402C43.7077 30.3859 43.6192 30.5182 43.5076 30.6297Z" fill="#D5FF3C"/>
</g>
</g>
<defs>
<filter id="filter0_d_1213_11684" x="0.575594" y="0.868563" width="57.2629" height="57.2635" filterUnits="userSpaceOnUse" color-interpolation-filters="sRGB">
<feFlood flood-opacity="0" result="BackgroundImageFix"/>
<feColorMatrix in="SourceAlpha" type="matrix" values="0 0 0 0 0 0 0 0 0 0 0 0 0 0 0 0 0 0 127 0" result="hardAlpha"/>
<feOffset/>
<feGaussianBlur stdDeviation="0.954391"/>
<feComposite in2="hardAlpha" operator="out"/>
<feColorMatrix type="matrix" values="0 0 0 0 0 0 0 0 0 0 0 0 0 0 0 0 0 0 0.08 0"/>
<feBlend mode="normal" in2="BackgroundImageFix" result="effect1_dropShadow_1213_11684"/>
<feBlend mode="normal" in="SourceGraphic" in2="effect1_dropShadow_1213_11684" result="shape"/>
</filter>
<clipPath id="clip0_1213_11684">
<rect width="27.6" height="30" fill="white" transform="matrix(-1.19249e-08 -1 -1 1.19249e-08 45.875 43.2998)"/>
</clipPath>
</defs>
</svg>
