<svg width="447" height="305" viewBox="0 0 447 305" fill="none" xmlns="http://www.w3.org/2000/svg">
<rect x="0.910495" y="101.01" width="180.357" height="80.355" rx="40.1775" transform="rotate(-6.51565 0.910495 101.01)" fill="white"/>
<rect x="0.910495" y="101.01" width="180.357" height="80.355" rx="40.1775" transform="rotate(-6.51565 0.910495 101.01)" stroke="#AADA18" stroke-width="1.64495"/>
<path d="M38.3803 143.724L36.8711 130.51L45.4036 129.535L45.6128 131.367L39.3455 132.082L39.7789 135.877L45.4798 135.226L45.6846 137.019L39.9837 137.67L40.4365 141.634L46.7037 140.918L46.9129 142.75L38.3803 143.724ZM51.8233 142.189L47.2255 133.076L49.604 132.804L52.9556 139.879L54.6254 132.23L56.9662 131.963L54.5416 141.878L51.8233 142.189ZM63.6908 141.063C62.747 141.171 61.8934 141.064 61.13 140.743C60.3653 140.41 59.7391 139.895 59.2516 139.198C58.7641 138.502 58.465 137.669 58.3543 136.7C58.2393 135.693 58.3338 134.79 58.6377 133.99C58.9541 133.189 59.4466 132.534 60.1151 132.024C60.7961 131.513 61.6149 131.203 62.5713 131.093C63.5026 130.987 64.3381 131.102 65.0777 131.438C65.8173 131.774 66.4161 132.273 66.8741 132.935C67.3307 133.584 67.6086 134.343 67.7078 135.211C67.7221 135.337 67.738 135.475 67.7552 135.626C67.7725 135.777 67.7778 135.936 67.7713 136.103L60.0317 136.987L59.8657 135.533L65.3589 134.906C65.2547 134.216 64.9601 133.702 64.4751 133.362C63.9886 133.01 63.4182 132.871 62.7637 132.946C62.2981 132.999 61.8824 133.155 61.5167 133.413C61.151 133.672 60.8794 134.028 60.7017 134.481C60.5226 134.923 60.4697 135.464 60.543 136.106L60.6056 136.653C60.6731 137.245 60.8383 137.742 61.1011 138.146C61.3765 138.548 61.7159 138.841 62.1193 139.024C62.5339 139.193 62.9803 139.251 63.4585 139.196C63.9871 139.136 64.4083 138.973 64.7222 138.708C65.0487 138.441 65.2722 138.109 65.3927 137.713L67.6957 137.45C67.5871 138.062 67.3587 138.629 67.0106 139.154C66.6611 139.665 66.2064 140.093 65.6465 140.438C65.0852 140.77 64.4333 140.978 63.6908 141.063ZM70.3814 140.069L69.2948 130.555L71.2958 130.326L71.6468 131.893C71.873 131.306 72.238 130.818 72.7418 130.429C73.2456 130.04 73.8687 129.803 74.6112 129.718C75.3789 129.631 76.052 129.719 76.6305 129.985C77.2076 130.238 77.6761 130.656 78.0359 131.239C78.4084 131.822 78.6471 132.572 78.752 133.491L79.3859 139.041L77.1206 139.299L76.5105 133.957C76.4199 133.164 76.174 132.574 75.7728 132.186C75.3715 131.799 74.8248 131.644 74.1327 131.724C73.6796 131.775 73.2828 131.929 72.9423 132.185C72.6143 132.439 72.3671 132.786 72.2006 133.225C72.0452 133.651 72.0006 134.154 72.0667 134.732L72.6467 139.81L70.3814 140.069ZM85.9083 138.296C85.2665 138.369 84.6949 138.332 84.1937 138.186C83.7051 138.037 83.302 137.746 82.9846 137.31C82.6671 136.875 82.4631 136.261 82.3725 135.468L81.868 131.05L80.2446 131.236L80.0268 129.329L81.6503 129.144L81.6278 126.603L83.6288 126.374L83.9156 128.885L86.5017 128.59L86.7195 130.496L84.1333 130.792L84.6378 135.209C84.6924 135.687 84.8312 136.009 85.0541 136.175C85.2882 136.327 85.6506 136.375 86.1414 136.319L87.3118 136.185L87.5317 138.11L85.9083 138.296ZM98.8658 137.045C97.9094 137.155 97.0405 137.082 96.2592 136.827C95.4779 136.572 94.8436 136.153 94.3565 135.572C93.8693 134.99 93.5698 134.265 93.4581 133.398L95.8555 133.125C95.9058 133.565 96.0518 133.95 96.2934 134.279C96.5461 134.595 96.8665 134.832 97.2544 134.992C97.655 135.15 98.1195 135.199 98.6481 135.139C99.1011 135.087 99.4834 134.973 99.7948 134.797C100.117 134.608 100.352 134.37 100.498 134.086C100.655 133.788 100.712 133.456 100.671 133.091C100.623 132.676 100.484 132.347 100.252 132.106C100.032 131.851 99.741 131.648 99.3797 131.498C99.0183 131.348 98.6095 131.229 98.1532 131.141C97.6955 131.04 97.2119 130.936 96.7024 130.829C95.6176 130.596 94.7801 130.239 94.1897 129.758C93.5979 129.265 93.2495 128.558 93.1446 127.64C93.0569 126.872 93.1639 126.191 93.4657 125.595C93.7674 125 94.2282 124.514 94.8481 124.137C95.4792 123.746 96.2289 123.501 97.0972 123.402C97.9782 123.301 98.7638 123.371 99.4542 123.611C100.157 123.849 100.73 124.23 101.172 124.753C101.625 125.262 101.903 125.906 102.005 126.685L99.5882 126.961C99.5383 126.635 99.4157 126.343 99.2204 126.085C99.0238 125.815 98.7581 125.609 98.4233 125.469C98.0997 125.314 97.7177 125.263 97.2772 125.313C96.8983 125.343 96.5656 125.445 96.2794 125.618C96.0043 125.777 95.7931 125.992 95.6456 126.264C95.5093 126.522 95.462 126.833 95.5037 127.198C95.544 127.551 95.6533 127.838 95.8316 128.06C96.0211 128.267 96.2762 128.436 96.5969 128.565C96.9162 128.682 97.2851 128.786 97.7036 128.878C98.1221 128.971 98.5798 129.072 99.0768 129.181C99.7556 129.32 100.377 129.517 100.942 129.771C101.517 130.011 101.991 130.359 102.361 130.813C102.732 131.268 102.962 131.886 103.051 132.666C103.129 133.346 103.025 134.001 102.74 134.633C102.454 135.252 101.992 135.783 101.354 136.226C100.715 136.656 99.8852 136.929 98.8658 137.045ZM109.726 135.575C109.084 135.649 108.513 135.612 108.012 135.465C107.523 135.317 107.12 135.025 106.802 134.59C106.485 134.154 106.281 133.54 106.19 132.747L105.686 128.33L104.062 128.516L103.845 126.609L105.468 126.424L105.446 123.883L107.447 123.654L107.733 126.165L110.32 125.869L110.537 127.776L107.951 128.071L108.456 132.489C108.51 132.967 108.649 133.289 108.872 133.455C109.106 133.606 109.468 133.654 109.959 133.598L111.13 133.465L111.35 135.39L109.726 135.575ZM115.163 139.162L116.89 133.686L116.324 133.751L111.564 125.727L114.036 125.445L117.605 131.578L119.549 124.815L121.946 124.542L117.561 138.888L115.163 139.162ZM124.672 133.868L123.12 120.277L125.385 120.018L126.937 133.61L124.672 133.868ZM129.559 133.31L128.473 123.796L130.738 123.537L131.825 133.052L129.559 133.31ZM129.433 122.157C129.018 122.204 128.657 122.118 128.352 121.898C128.057 121.664 127.888 121.358 127.845 120.98C127.801 120.59 127.897 120.26 128.134 119.991C128.382 119.708 128.714 119.542 129.129 119.495C129.544 119.447 129.898 119.534 130.192 119.756C130.496 119.963 130.67 120.262 130.715 120.652C130.758 121.03 130.656 121.367 130.409 121.663C130.174 121.944 129.848 122.109 129.433 122.157ZM134.443 132.753L133.356 123.238L135.357 123.01L135.708 124.576C135.934 123.989 136.299 123.501 136.803 123.112C137.307 122.723 137.93 122.487 138.672 122.402C139.44 122.314 140.113 122.403 140.692 122.668C141.269 122.921 141.737 123.339 142.097 123.923C142.469 124.505 142.708 125.256 142.813 126.174L143.447 131.724L141.182 131.983L140.572 126.641C140.481 125.848 140.235 125.257 139.834 124.87C139.433 124.482 138.886 124.328 138.194 124.407C137.741 124.459 137.344 124.612 137.003 124.868C136.675 125.122 136.428 125.469 136.262 125.909C136.106 126.335 136.062 126.837 136.128 127.416L136.708 132.494L134.443 132.753ZM150.337 135.374C149.444 135.476 148.644 135.452 147.939 135.304C147.248 135.166 146.687 134.892 146.258 134.482C145.843 134.083 145.597 133.55 145.521 132.883C145.476 132.493 145.527 132.099 145.672 131.699C145.832 131.311 146.089 130.938 146.443 130.579C146.808 130.206 147.286 129.864 147.875 129.555L149.001 130.535C148.421 130.818 148.029 131.124 147.824 131.454C147.62 131.783 147.535 132.105 147.571 132.42C147.609 132.747 147.74 133.006 147.966 133.197C148.206 133.399 148.508 133.536 148.874 133.61C149.252 133.681 149.667 133.691 150.12 133.639C150.561 133.589 150.937 133.482 151.25 133.319C151.564 133.168 151.797 132.976 151.949 132.742C152.114 132.506 152.178 132.238 152.144 131.936C152.101 131.558 151.933 131.265 151.642 131.056C151.352 130.86 150.814 130.781 150.028 130.82C149.355 130.845 148.762 130.843 148.248 130.812C147.733 130.769 147.286 130.706 146.907 130.621C146.54 130.536 146.222 130.432 145.953 130.31C145.683 130.175 145.457 130.035 145.274 129.89L145.225 129.456L146.97 127.153L148.712 127.508L146.733 129.934L147.193 128.772C147.329 128.846 147.464 128.913 147.599 128.974C147.746 129.034 147.923 129.084 148.132 129.124C148.352 129.15 148.634 129.168 148.98 129.18C149.325 129.191 149.772 129.191 150.318 129.18C151.169 129.147 151.872 129.219 152.428 129.398C152.984 129.577 153.41 129.853 153.708 130.227C154.006 130.601 154.187 131.071 154.252 131.638C154.315 132.191 154.217 132.731 153.959 133.258C153.713 133.784 153.293 134.239 152.7 134.626C152.107 135.012 151.319 135.262 150.337 135.374ZM149.512 128.144C148.719 128.234 148.016 128.162 147.402 127.926C146.8 127.676 146.318 127.31 145.957 126.829C145.595 126.335 145.378 125.773 145.306 125.144C145.233 124.502 145.318 123.906 145.561 123.355C145.804 122.805 146.191 122.34 146.721 121.961C147.264 121.58 147.932 121.344 148.725 121.254C149.518 121.163 150.215 121.243 150.817 121.493C151.42 121.743 151.901 122.108 152.262 122.59C152.623 123.071 152.84 123.633 152.914 124.275C152.985 124.904 152.901 125.5 152.659 126.063C152.416 126.614 152.029 127.079 151.499 127.458C150.967 127.825 150.305 128.053 149.512 128.144ZM149.311 126.388C149.852 126.326 150.27 126.132 150.564 125.805C150.858 125.478 150.974 125.044 150.913 124.503C150.851 123.962 150.64 123.572 150.282 123.332C149.921 123.08 149.471 122.985 148.93 123.047C148.388 123.109 147.964 123.304 147.658 123.632C147.35 123.948 147.226 124.376 147.288 124.917C147.35 125.458 147.567 125.854 147.94 126.105C148.313 126.356 148.77 126.45 149.311 126.388ZM150.507 122.962L149.883 121.351L153.791 120.904L153.953 122.32L150.507 122.962Z" fill="#232C07"/>
<rect x="17.6799" y="223.688" width="180.357" height="80.355" rx="40.1775" fill="white"/>
<rect x="17.6799" y="223.688" width="180.357" height="80.355" rx="40.1775" stroke="#AADA18" stroke-width="1.64495"/>
<path d="M72.4091 260.877L72.4091 247.577H80.9021V249.42H74.6891V253.315H79.7621V255.12H74.6891L74.6891 260.877H72.4091ZM85.1921 261.105C84.4067 261.105 83.7544 260.972 83.2351 260.706C82.7157 260.44 82.3294 260.086 82.0761 259.642C81.8227 259.199 81.6961 258.718 81.6961 258.198C81.6961 257.59 81.8481 257.065 82.1521 256.621C82.4687 256.178 82.9311 255.836 83.5391 255.595C84.1471 255.342 84.8944 255.215 85.7811 255.215H88.1941C88.1941 254.709 88.1244 254.291 87.9851 253.961C87.8457 253.619 87.6304 253.366 87.3391 253.201C87.0477 253.037 86.6741 252.954 86.2181 252.954C85.6987 252.954 85.2554 253.075 84.8881 253.315C84.5207 253.543 84.2927 253.898 84.2041 254.379H81.9621C82.0381 253.695 82.2661 253.113 82.6461 252.631C83.0261 252.137 83.5264 251.757 84.1471 251.491C84.7804 251.213 85.4707 251.073 86.2181 251.073C87.1174 251.073 87.8837 251.232 88.5171 251.548C89.1504 251.852 89.6317 252.296 89.9611 252.878C90.3031 253.448 90.4741 254.139 90.4741 254.949V260.877H88.5361L88.3081 259.338C88.1814 259.592 88.0167 259.826 87.8141 260.041C87.6241 260.257 87.4024 260.447 87.1491 260.611C86.8957 260.763 86.6044 260.884 86.2751 260.972C85.9584 261.061 85.5974 261.105 85.1921 261.105ZM85.7051 259.3C86.0724 259.3 86.3954 259.237 86.6741 259.11C86.9654 258.971 87.2124 258.781 87.4151 258.54C87.6304 258.287 87.7951 258.008 87.9091 257.704C88.0231 257.4 88.0991 257.077 88.1371 256.735V256.697H86.0281C85.5847 256.697 85.2174 256.754 84.9261 256.868C84.6347 256.97 84.4257 257.122 84.2991 257.324C84.1724 257.527 84.1091 257.761 84.1091 258.027C84.1091 258.293 84.1724 258.521 84.2991 258.711C84.4257 258.901 84.6094 259.047 84.8501 259.148C85.0907 259.25 85.3757 259.3 85.7051 259.3ZM96.7292 261.105C95.8805 261.105 95.1395 260.972 94.5062 260.706C93.8855 260.428 93.3915 260.048 93.0242 259.566C92.6695 259.072 92.4605 258.509 92.3972 257.875H94.6772C94.7405 258.141 94.8545 258.388 95.0192 258.616C95.1839 258.832 95.4055 259.003 95.6842 259.129C95.9755 259.256 96.3175 259.319 96.7102 259.319C97.0902 259.319 97.4005 259.269 97.6412 259.167C97.8819 259.053 98.0592 258.908 98.1732 258.73C98.2872 258.553 98.3442 258.363 98.3442 258.16C98.3442 257.856 98.2619 257.622 98.0972 257.457C97.9325 257.293 97.6919 257.166 97.3752 257.077C97.0712 256.976 96.7039 256.881 96.2732 256.792C95.8172 256.704 95.3739 256.596 94.9432 256.469C94.5252 256.33 94.1452 256.159 93.8032 255.956C93.4739 255.754 93.2079 255.494 93.0052 255.177C92.8152 254.861 92.7202 254.474 92.7202 254.018C92.7202 253.461 92.8659 252.961 93.1572 252.517C93.4612 252.074 93.8919 251.726 94.4492 251.472C95.0192 251.206 95.6969 251.073 96.4822 251.073C97.5969 251.073 98.4835 251.333 99.1422 251.852C99.8135 252.359 100.206 253.075 100.32 253.999H98.1542C98.0909 253.645 97.9135 253.372 97.6222 253.182C97.3309 252.98 96.9445 252.878 96.4632 252.878C95.9692 252.878 95.5892 252.973 95.3232 253.163C95.0699 253.341 94.9432 253.581 94.9432 253.885C94.9432 254.075 95.0192 254.253 95.1712 254.417C95.3359 254.569 95.5702 254.702 95.8742 254.816C96.1782 254.918 96.5519 255.019 96.9952 255.12C97.7045 255.26 98.3315 255.424 98.8762 255.614C99.4209 255.804 99.8515 256.083 100.168 256.45C100.485 256.818 100.643 257.337 100.643 258.008C100.656 258.616 100.498 259.155 100.168 259.623C99.8515 260.092 99.4019 260.459 98.8192 260.725C98.2365 260.979 97.5399 261.105 96.7292 261.105ZM102.856 260.877V247.197H105.136V252.783C105.452 252.264 105.883 251.852 106.428 251.548C106.972 251.232 107.587 251.073 108.271 251.073C109.056 251.073 109.721 251.238 110.266 251.567C110.81 251.884 111.222 252.359 111.501 252.992C111.792 253.613 111.938 254.392 111.938 255.329V260.877H109.677V255.538C109.677 254.715 109.499 254.088 109.145 253.657C108.803 253.227 108.277 253.011 107.568 253.011C107.112 253.011 106.7 253.125 106.333 253.353C105.965 253.569 105.674 253.885 105.459 254.303C105.243 254.709 105.136 255.209 105.136 255.804V260.877H102.856ZM114.454 260.877V251.301H116.734V260.877H114.454ZM115.594 249.781C115.176 249.781 114.828 249.655 114.549 249.401C114.283 249.135 114.15 248.812 114.15 248.432C114.15 248.04 114.283 247.723 114.549 247.482C114.828 247.229 115.176 247.102 115.594 247.102C116.012 247.102 116.354 247.229 116.62 247.482C116.899 247.723 117.038 248.04 117.038 248.432C117.038 248.812 116.899 249.135 116.62 249.401C116.354 249.655 116.012 249.781 115.594 249.781ZM123.834 261.105C122.922 261.105 122.099 260.896 121.364 260.478C120.642 260.048 120.072 259.459 119.654 258.711C119.249 257.951 119.046 257.084 119.046 256.108C119.046 255.108 119.255 254.234 119.673 253.486C120.091 252.726 120.661 252.137 121.383 251.719C122.118 251.289 122.941 251.073 123.853 251.073C124.765 251.073 125.582 251.289 126.304 251.719C127.039 252.137 127.609 252.72 128.014 253.467C128.432 254.215 128.641 255.089 128.641 256.089C128.641 257.09 128.432 257.964 128.014 258.711C127.596 259.459 127.02 260.048 126.285 260.478C125.563 260.896 124.746 261.105 123.834 261.105ZM123.834 259.148C124.29 259.148 124.702 259.034 125.069 258.806C125.449 258.578 125.753 258.236 125.981 257.78C126.209 257.324 126.323 256.761 126.323 256.089C126.323 255.418 126.209 254.861 125.981 254.417C125.766 253.961 125.468 253.619 125.088 253.391C124.721 253.163 124.309 253.049 123.853 253.049C123.41 253.049 122.998 253.163 122.618 253.391C122.238 253.619 121.934 253.961 121.706 254.417C121.478 254.861 121.364 255.418 121.364 256.089C121.364 256.761 121.478 257.324 121.706 257.78C121.934 258.236 122.232 258.578 122.599 258.806C122.979 259.034 123.391 259.148 123.834 259.148ZM130.873 260.877V251.301H132.887L133.058 252.897C133.349 252.34 133.767 251.897 134.312 251.567C134.857 251.238 135.503 251.073 136.25 251.073C137.023 251.073 137.681 251.238 138.226 251.567C138.771 251.884 139.189 252.353 139.48 252.973C139.784 253.594 139.936 254.367 139.936 255.291V260.877H137.656V255.5C137.656 254.702 137.479 254.088 137.124 253.657C136.769 253.227 136.244 253.011 135.547 253.011C135.091 253.011 134.679 253.119 134.312 253.334C133.957 253.55 133.672 253.866 133.457 254.284C133.254 254.69 133.153 255.184 133.153 255.766V260.877H130.873ZM64.3099 279.877V266.577H68.6039C70.1493 266.577 71.4223 266.85 72.4229 267.394C73.4363 267.939 74.1836 268.712 74.6649 269.712C75.1589 270.7 75.4059 271.878 75.4059 273.246C75.4059 274.589 75.1589 275.761 74.6649 276.761C74.1836 277.749 73.4363 278.516 72.4229 279.06C71.4223 279.605 70.1493 279.877 68.6039 279.877H64.3099ZM66.5899 277.939H68.4899C69.6426 277.939 70.5483 277.756 71.2069 277.388C71.8783 277.008 72.3533 276.47 72.6319 275.773C72.9233 275.064 73.0689 274.222 73.0689 273.246C73.0689 272.258 72.9233 271.416 72.6319 270.719C72.3533 270.01 71.8783 269.465 71.2069 269.085C70.5483 268.693 69.6426 268.496 68.4899 268.496H66.5899V277.939ZM82.0402 280.105C81.0902 280.105 80.2542 279.903 79.5322 279.497C78.8102 279.079 78.2465 278.497 77.8412 277.749C77.4359 277.002 77.2332 276.141 77.2332 275.165C77.2332 274.152 77.4295 273.265 77.8222 272.505C78.2275 271.745 78.7912 271.15 79.5132 270.719C80.2479 270.289 81.0965 270.073 82.0592 270.073C82.9965 270.073 83.8135 270.282 84.5102 270.7C85.2069 271.118 85.7452 271.682 86.1252 272.391C86.5052 273.088 86.6952 273.873 86.6952 274.747C86.6952 274.874 86.6952 275.013 86.6952 275.165C86.6952 275.317 86.6825 275.476 86.6572 275.64H78.8672V274.177H84.3962C84.3709 273.481 84.1365 272.936 83.6932 272.543C83.2499 272.138 82.6989 271.935 82.0402 271.935C81.5715 271.935 81.1409 272.043 80.7482 272.258C80.3555 272.474 80.0452 272.797 79.8172 273.227C79.5892 273.645 79.4752 274.177 79.4752 274.823V275.374C79.4752 275.97 79.5829 276.483 79.7982 276.913C80.0262 277.344 80.3302 277.673 80.7102 277.901C81.1029 278.117 81.5399 278.224 82.0212 278.224C82.5532 278.224 82.9902 278.11 83.3322 277.882C83.6869 277.654 83.9465 277.35 84.1112 276.97H86.4292C86.2519 277.566 85.9605 278.104 85.5552 278.585C85.1499 279.054 84.6495 279.428 84.0542 279.706C83.4589 279.972 82.7875 280.105 82.0402 280.105ZM92.6193 280.105C91.7707 280.105 91.0297 279.972 90.3963 279.706C89.7757 279.428 89.2817 279.048 88.9143 278.566C88.5597 278.072 88.3507 277.509 88.2873 276.875H90.5673C90.6307 277.141 90.7447 277.388 90.9093 277.616C91.074 277.832 91.2957 278.003 91.5743 278.129C91.8657 278.256 92.2077 278.319 92.6003 278.319C92.9803 278.319 93.2907 278.269 93.5313 278.167C93.772 278.053 93.9493 277.908 94.0633 277.73C94.1773 277.553 94.2343 277.363 94.2343 277.16C94.2343 276.856 94.152 276.622 93.9873 276.457C93.8227 276.293 93.582 276.166 93.2653 276.077C92.9613 275.976 92.594 275.881 92.1633 275.792C91.7073 275.704 91.264 275.596 90.8333 275.469C90.4153 275.33 90.0353 275.159 89.6933 274.956C89.364 274.754 89.098 274.494 88.8953 274.177C88.7053 273.861 88.6103 273.474 88.6103 273.018C88.6103 272.461 88.756 271.961 89.0473 271.517C89.3513 271.074 89.782 270.726 90.3393 270.472C90.9093 270.206 91.587 270.073 92.3723 270.073C93.487 270.073 94.3737 270.333 95.0323 270.852C95.7037 271.359 96.0963 272.075 96.2103 272.999H94.0443C93.981 272.645 93.8037 272.372 93.5123 272.182C93.221 271.98 92.8347 271.878 92.3533 271.878C91.8593 271.878 91.4793 271.973 91.2133 272.163C90.96 272.341 90.8333 272.581 90.8333 272.885C90.8333 273.075 90.9093 273.253 91.0613 273.417C91.226 273.569 91.4603 273.702 91.7643 273.816C92.0683 273.918 92.442 274.019 92.8853 274.12C93.5947 274.26 94.2217 274.424 94.7663 274.614C95.311 274.804 95.7417 275.083 96.0583 275.45C96.375 275.818 96.5333 276.337 96.5333 277.008C96.546 277.616 96.3877 278.155 96.0583 278.623C95.7417 279.092 95.292 279.459 94.7093 279.725C94.1267 279.979 93.43 280.105 92.6193 280.105ZM98.8407 279.877L98.8407 270.301H101.121L101.121 279.877H98.8407ZM99.9807 268.781C99.5627 268.781 99.2143 268.655 98.9357 268.401C98.6697 268.135 98.5367 267.812 98.5367 267.432C98.5367 267.04 98.6697 266.723 98.9357 266.482C99.2143 266.229 99.5627 266.102 99.9807 266.102C100.399 266.102 100.741 266.229 101.007 266.482C101.285 266.723 101.425 267.04 101.425 267.432C101.425 267.812 101.285 268.135 101.007 268.401C100.741 268.655 100.399 268.781 99.9807 268.781ZM107.783 284.285C106.884 284.285 106.092 284.171 105.408 283.943C104.737 283.728 104.211 283.392 103.831 282.936C103.464 282.493 103.28 281.936 103.28 281.264C103.28 280.872 103.375 280.485 103.565 280.105C103.768 279.738 104.066 279.396 104.458 279.079C104.864 278.75 105.377 278.465 105.997 278.224L107.004 279.326C106.396 279.542 105.972 279.801 105.731 280.105C105.491 280.409 105.37 280.72 105.37 281.036C105.37 281.366 105.472 281.638 105.674 281.853C105.89 282.081 106.175 282.252 106.529 282.366C106.897 282.48 107.308 282.537 107.764 282.537C108.208 282.537 108.594 282.474 108.923 282.347C109.253 282.233 109.506 282.069 109.683 281.853C109.873 281.638 109.968 281.378 109.968 281.074C109.968 280.694 109.835 280.384 109.569 280.143C109.303 279.915 108.778 279.776 107.992 279.725C107.321 279.675 106.732 279.605 106.225 279.516C105.719 279.415 105.282 279.301 104.914 279.174C104.56 279.048 104.256 278.908 104.002 278.756C103.749 278.592 103.54 278.427 103.375 278.262V277.825L105.37 275.735L107.061 276.286L104.819 278.471L105.408 277.369C105.535 277.458 105.662 277.54 105.788 277.616C105.928 277.692 106.099 277.762 106.301 277.825C106.517 277.876 106.795 277.927 107.137 277.977C107.479 278.028 107.923 278.079 108.467 278.129C109.316 278.193 110.006 278.345 110.538 278.585C111.07 278.826 111.463 279.149 111.716 279.554C111.97 279.96 112.096 280.447 112.096 281.017C112.096 281.575 111.938 282.1 111.621 282.594C111.317 283.088 110.849 283.494 110.215 283.81C109.582 284.127 108.771 284.285 107.783 284.285ZM107.783 277.008C106.985 277.008 106.295 276.856 105.712 276.552C105.142 276.236 104.705 275.818 104.401 275.298C104.097 274.766 103.945 274.184 103.945 273.55C103.945 272.904 104.097 272.322 104.401 271.802C104.705 271.283 105.142 270.865 105.712 270.548C106.295 270.232 106.985 270.073 107.783 270.073C108.581 270.073 109.265 270.232 109.835 270.548C110.405 270.865 110.842 271.283 111.146 271.802C111.45 272.322 111.602 272.904 111.602 273.55C111.602 274.184 111.45 274.766 111.146 275.298C110.842 275.818 110.405 276.236 109.835 276.552C109.265 276.856 108.581 277.008 107.783 277.008ZM107.783 275.241C108.328 275.241 108.765 275.096 109.094 274.804C109.424 274.513 109.588 274.095 109.588 273.55C109.588 273.006 109.424 272.594 109.094 272.315C108.765 272.024 108.328 271.878 107.783 271.878C107.239 271.878 106.795 272.024 106.453 272.315C106.111 272.594 105.94 273.006 105.94 273.55C105.94 274.095 106.111 274.513 106.453 274.804C106.795 275.096 107.239 275.241 107.783 275.241ZM109.36 271.973L108.923 270.301H112.856V271.726L109.36 271.973ZM114.87 279.877L114.87 270.301H116.884L117.055 271.897C117.346 271.34 117.764 270.897 118.309 270.567C118.853 270.238 119.499 270.073 120.247 270.073C121.019 270.073 121.678 270.238 122.223 270.567C122.767 270.884 123.185 271.353 123.477 271.973C123.781 272.594 123.933 273.367 123.933 274.291L123.933 279.877H121.653L121.653 274.5C121.653 273.702 121.475 273.088 121.121 272.657C120.766 272.227 120.24 272.011 119.544 272.011C119.088 272.011 118.676 272.119 118.309 272.334C117.954 272.55 117.669 272.866 117.454 273.284C117.251 273.69 117.15 274.184 117.15 274.766L117.15 279.877L114.87 279.877ZM130.82 280.105C129.87 280.105 129.034 279.903 128.312 279.497C127.59 279.079 127.027 278.497 126.621 277.749C126.216 277.002 126.013 276.141 126.013 275.165C126.013 274.152 126.21 273.265 126.602 272.505C127.008 271.745 127.571 271.15 128.293 270.719C129.028 270.289 129.877 270.073 130.839 270.073C131.777 270.073 132.594 270.282 133.29 270.7C133.987 271.118 134.525 271.682 134.905 272.391C135.285 273.088 135.475 273.873 135.475 274.747C135.475 274.874 135.475 275.013 135.475 275.165C135.475 275.317 135.463 275.476 135.437 275.64H127.647V274.177H133.176C133.151 273.481 132.917 272.936 132.473 272.543C132.03 272.138 131.479 271.935 130.82 271.935C130.352 271.935 129.921 272.043 129.528 272.258C129.136 272.474 128.825 272.797 128.597 273.227C128.369 273.645 128.255 274.177 128.255 274.823V275.374C128.255 275.97 128.363 276.483 128.578 276.913C128.806 277.344 129.11 277.673 129.49 277.901C129.883 278.117 130.32 278.224 130.801 278.224C131.333 278.224 131.77 278.11 132.112 277.882C132.467 277.654 132.727 277.35 132.891 276.97H135.209C135.032 277.566 134.741 278.104 134.335 278.585C133.93 279.054 133.43 279.428 132.834 279.706C132.239 279.972 131.568 280.105 130.82 280.105ZM137.581 279.877V270.301H139.614L139.823 272.087C140.051 271.669 140.336 271.315 140.678 271.023C141.02 270.719 141.419 270.485 141.875 270.32C142.343 270.156 142.856 270.073 143.414 270.073V272.486H142.616C142.236 272.486 141.875 272.537 141.533 272.638C141.191 272.727 140.893 272.879 140.64 273.094C140.399 273.297 140.209 273.582 140.07 273.949C139.93 274.304 139.861 274.754 139.861 275.298V279.877H137.581ZM148.951 280.105C148.103 280.105 147.362 279.972 146.728 279.706C146.108 279.428 145.614 279.048 145.246 278.566C144.892 278.072 144.683 277.509 144.619 276.875H146.899C146.963 277.141 147.077 277.388 147.241 277.616C147.406 277.832 147.628 278.003 147.906 278.129C148.198 278.256 148.54 278.319 148.932 278.319C149.312 278.319 149.623 278.269 149.863 278.167C150.104 278.053 150.281 277.908 150.395 277.73C150.509 277.553 150.566 277.363 150.566 277.16C150.566 276.856 150.484 276.622 150.319 276.457C150.155 276.293 149.914 276.166 149.597 276.077C149.293 275.976 148.926 275.881 148.495 275.792C148.039 275.704 147.596 275.596 147.165 275.469C146.747 275.33 146.367 275.159 146.025 274.956C145.696 274.754 145.43 274.494 145.227 274.177C145.037 273.861 144.942 273.474 144.942 273.018C144.942 272.461 145.088 271.961 145.379 271.517C145.683 271.074 146.114 270.726 146.671 270.472C147.241 270.206 147.919 270.073 148.704 270.073C149.819 270.073 150.706 270.333 151.364 270.852C152.036 271.359 152.428 272.075 152.542 272.999H150.376C150.313 272.645 150.136 272.372 149.844 272.182C149.553 271.98 149.167 271.878 148.685 271.878C148.191 271.878 147.811 271.973 147.545 272.163C147.292 272.341 147.165 272.581 147.165 272.885C147.165 273.075 147.241 273.253 147.393 273.417C147.558 273.569 147.792 273.702 148.096 273.816C148.4 273.918 148.774 274.019 149.217 274.12C149.927 274.26 150.554 274.424 151.098 274.614C151.643 274.804 152.074 275.083 152.39 275.45C152.707 275.818 152.865 276.337 152.865 277.008C152.878 277.616 152.72 278.155 152.39 278.623C152.074 279.092 151.624 279.459 151.041 279.725C150.459 279.979 149.762 280.105 148.951 280.105Z" fill="#232C07"/>
<rect x="203.182" y="223.688" width="242.758" height="80.355" rx="40.1775" fill="white"/>
<rect x="203.182" y="223.688" width="242.758" height="80.355" rx="40.1775" stroke="#AADA18" stroke-width="1.64495"/>
<path d="M262.072 270.377V257.077H264.77L269.026 265.665L273.244 257.077H275.961V270.377H273.681V260.991L269.919 268.515H268.133L264.352 261.01V270.377H262.072ZM281.776 270.605C280.99 270.605 280.338 270.472 279.819 270.206C279.299 269.94 278.913 269.586 278.66 269.142C278.406 268.699 278.28 268.218 278.28 267.698C278.28 267.09 278.432 266.565 278.736 266.121C279.052 265.678 279.515 265.336 280.123 265.095C280.731 264.842 281.478 264.715 282.365 264.715H284.778C284.778 264.209 284.708 263.791 284.569 263.461C284.429 263.119 284.214 262.866 283.923 262.701C283.631 262.537 283.258 262.454 282.802 262.454C282.282 262.454 281.839 262.575 281.472 262.815C281.104 263.043 280.876 263.398 280.788 263.879H278.546C278.622 263.195 278.85 262.613 279.23 262.131C279.61 261.637 280.11 261.257 280.731 260.991C281.364 260.713 282.054 260.573 282.802 260.573C283.701 260.573 284.467 260.732 285.101 261.048C285.734 261.352 286.215 261.796 286.545 262.378C286.887 262.948 287.058 263.639 287.058 264.449V270.377H285.12L284.892 268.838C284.765 269.092 284.6 269.326 284.398 269.541C284.208 269.757 283.986 269.947 283.733 270.111C283.479 270.263 283.188 270.384 282.859 270.472C282.542 270.561 282.181 270.605 281.776 270.605ZM282.289 268.8C282.656 268.8 282.979 268.737 283.258 268.61C283.549 268.471 283.796 268.281 283.999 268.04C284.214 267.787 284.379 267.508 284.493 267.204C284.607 266.9 284.683 266.577 284.721 266.235V266.197H282.612C282.168 266.197 281.801 266.254 281.51 266.368C281.218 266.47 281.009 266.622 280.883 266.824C280.756 267.027 280.693 267.261 280.693 267.527C280.693 267.793 280.756 268.021 280.883 268.211C281.009 268.401 281.193 268.547 281.434 268.648C281.674 268.75 281.959 268.8 282.289 268.8ZM295.669 270.377L291.432 265.133L295.232 260.801H297.949L293.218 266.064V264.297L298.519 270.377H295.669ZM289.494 270.377V256.697H291.774V270.377H289.494ZM303.775 270.605C302.825 270.605 301.989 270.403 301.267 269.997C300.545 269.579 299.981 268.997 299.576 268.249C299.17 267.502 298.968 266.641 298.968 265.665C298.968 264.652 299.164 263.765 299.557 263.005C299.962 262.245 300.526 261.65 301.248 261.219C301.982 260.789 302.831 260.573 303.794 260.573C304.731 260.573 305.548 260.782 306.245 261.2C306.941 261.618 307.48 262.182 307.86 262.891C308.24 263.588 308.43 264.373 308.43 265.247C308.43 265.374 308.43 265.513 308.43 265.665C308.43 265.817 308.417 265.976 308.392 266.14H300.602V264.677H306.131C306.105 263.981 305.871 263.436 305.428 263.043C304.984 262.638 304.433 262.435 303.775 262.435C303.306 262.435 302.875 262.543 302.483 262.758C302.09 262.974 301.78 263.297 301.552 263.727C301.324 264.145 301.21 264.677 301.21 265.323V265.874C301.21 266.47 301.317 266.983 301.533 267.413C301.761 267.844 302.065 268.173 302.445 268.401C302.837 268.617 303.274 268.724 303.756 268.724C304.288 268.724 304.725 268.61 305.067 268.382C305.421 268.154 305.681 267.85 305.846 267.47H308.164C307.986 268.066 307.695 268.604 307.29 269.085C306.884 269.554 306.384 269.928 305.789 270.206C305.193 270.472 304.522 270.605 303.775 270.605ZM314.088 270.605C313.315 270.605 312.65 270.453 312.093 270.149C311.548 269.833 311.13 269.364 310.839 268.743C310.547 268.11 310.402 267.331 310.402 266.406V260.801L312.682 260.801V266.178C312.682 267.002 312.853 267.629 313.195 268.059C313.549 268.477 314.081 268.686 314.791 268.686C315.247 268.686 315.652 268.579 316.007 268.363C316.374 268.148 316.659 267.838 316.862 267.432C317.077 267.014 317.185 266.508 317.185 265.912V260.801H319.465V270.377H317.451L317.28 268.781C316.988 269.339 316.564 269.782 316.007 270.111C315.462 270.441 314.822 270.605 314.088 270.605ZM322.002 274.557V260.801H324.035L324.282 262.188C324.484 261.91 324.725 261.65 325.004 261.409C325.295 261.156 325.643 260.953 326.049 260.801C326.467 260.649 326.942 260.573 327.474 260.573C328.373 260.573 329.165 260.795 329.849 261.238C330.545 261.682 331.09 262.283 331.483 263.043C331.875 263.791 332.072 264.646 332.072 265.608C332.072 266.571 331.869 267.432 331.464 268.192C331.071 268.94 330.526 269.529 329.83 269.959C329.146 270.39 328.36 270.605 327.474 270.605C326.752 270.605 326.118 270.472 325.574 270.206C325.042 269.928 324.611 269.535 324.282 269.028V274.557H322.002ZM326.999 268.629C327.531 268.629 328.006 268.503 328.424 268.249C328.842 267.996 329.165 267.641 329.393 267.185C329.633 266.729 329.754 266.204 329.754 265.608C329.754 265 329.633 264.468 329.393 264.012C329.165 263.556 328.842 263.202 328.424 262.948C328.006 262.695 327.531 262.568 326.999 262.568C326.454 262.568 325.973 262.695 325.555 262.948C325.149 263.202 324.826 263.556 324.586 264.012C324.358 264.468 324.244 264.994 324.244 265.589C324.244 266.197 324.358 266.729 324.586 267.185C324.826 267.629 325.149 267.983 325.555 268.249C325.973 268.503 326.454 268.629 326.999 268.629ZM338.125 270.377L342.989 257.077H345.535L350.399 270.377H347.986L344.243 259.737L340.5 270.377H338.125ZM340.291 267.242L340.899 265.437H347.454L348.062 267.242H340.291ZM352.153 270.377V260.801H354.186L354.395 262.587C354.623 262.169 354.908 261.815 355.25 261.523C355.592 261.219 355.991 260.985 356.447 260.82C356.916 260.656 357.429 260.573 357.986 260.573V262.986H357.188C356.808 262.986 356.447 263.037 356.105 263.138C355.763 263.227 355.465 263.379 355.212 263.594C354.971 263.797 354.781 264.082 354.642 264.449C354.503 264.804 354.433 265.254 354.433 265.798V270.377H352.153ZM363.866 270.377C363.22 270.377 362.656 270.276 362.175 270.073C361.706 269.871 361.339 269.535 361.073 269.066C360.807 268.598 360.674 267.964 360.674 267.166V262.72H359.04V260.801H360.674L360.94 258.274H362.954V260.801H365.557V262.72H362.954V267.166C362.954 267.648 363.055 267.983 363.258 268.173C363.473 268.351 363.828 268.439 364.322 268.439H365.5V270.377H363.866ZM367.797 270.377V260.801H370.077V270.377H367.797ZM368.937 259.281C368.519 259.281 368.17 259.155 367.892 258.901C367.626 258.635 367.493 258.312 367.493 257.932C367.493 257.54 367.626 257.223 367.892 256.982C368.17 256.729 368.519 256.602 368.937 256.602C369.355 256.602 369.697 256.729 369.963 256.982C370.241 257.223 370.381 257.54 370.381 257.932C370.381 258.312 370.241 258.635 369.963 258.901C369.697 259.155 369.355 259.281 368.937 259.281ZM376.53 270.605C375.682 270.605 374.941 270.472 374.307 270.206C373.687 269.928 373.193 269.548 372.825 269.066C372.471 268.572 372.262 268.009 372.198 267.375H374.478C374.542 267.641 374.656 267.888 374.82 268.116C374.985 268.332 375.207 268.503 375.485 268.629C375.777 268.756 376.119 268.819 376.511 268.819C376.891 268.819 377.202 268.769 377.442 268.667C377.683 268.553 377.86 268.408 377.974 268.23C378.088 268.053 378.145 267.863 378.145 267.66C378.145 267.356 378.063 267.122 377.898 266.957C377.734 266.793 377.493 266.666 377.176 266.577C376.872 266.476 376.505 266.381 376.074 266.292C375.618 266.204 375.175 266.096 374.744 265.969C374.326 265.83 373.946 265.659 373.604 265.456C373.275 265.254 373.009 264.994 372.806 264.677C372.616 264.361 372.521 263.974 372.521 263.518C372.521 262.961 372.667 262.461 372.958 262.017C373.262 261.574 373.693 261.226 374.25 260.972C374.82 260.706 375.498 260.573 376.283 260.573C377.398 260.573 378.285 260.833 378.943 261.352C379.615 261.859 380.007 262.575 380.121 263.499H377.955C377.892 263.145 377.715 262.872 377.423 262.682C377.132 262.48 376.746 262.378 376.264 262.378C375.77 262.378 375.39 262.473 375.124 262.663C374.871 262.841 374.744 263.081 374.744 263.385C374.744 263.575 374.82 263.753 374.972 263.917C375.137 264.069 375.371 264.202 375.675 264.316C375.979 264.418 376.353 264.519 376.796 264.62C377.506 264.76 378.133 264.924 378.677 265.114C379.222 265.304 379.653 265.583 379.969 265.95C380.286 266.318 380.444 266.837 380.444 267.508C380.457 268.116 380.299 268.655 379.969 269.123C379.653 269.592 379.203 269.959 378.62 270.225C378.038 270.479 377.341 270.605 376.53 270.605ZM386.484 270.377C385.838 270.377 385.274 270.276 384.793 270.073C384.324 269.871 383.957 269.535 383.691 269.066C383.425 268.598 383.292 267.964 383.292 267.166V262.72H381.658V260.801H383.292L383.558 258.274H385.572V260.801H388.175V262.72H385.572V267.166C385.572 267.648 385.673 267.983 385.876 268.173C386.091 268.351 386.446 268.439 386.94 268.439H388.118V270.377H386.484Z" fill="#232C07"/>
<rect x="86.9564" y="147.426" width="251.342" height="80.355" rx="40.1775" transform="rotate(4.63824 86.9564 147.426)" fill="#A5D80A"/>
<rect x="86.9564" y="147.426" width="251.342" height="80.355" rx="40.1775" transform="rotate(4.63824 86.9564 147.426)" stroke="#AADA18" stroke-width="1.64495"/>
<path d="M169.343 202.723C168.232 202.632 167.261 202.355 166.431 201.89C165.6 201.426 164.974 200.808 164.55 200.038C164.127 199.268 163.949 198.378 164.017 197.368L166.801 197.594C166.76 198.106 166.84 198.576 167.04 199.004C167.257 199.419 167.567 199.761 167.972 200.029C168.392 200.298 168.909 200.458 169.523 200.508C170.049 200.551 170.509 200.507 170.902 200.377C171.311 200.234 171.63 200.017 171.86 199.726C172.105 199.422 172.245 199.059 172.279 198.635C172.318 198.152 172.233 197.748 172.024 197.422C171.831 197.083 171.546 196.787 171.169 196.536C170.792 196.285 170.355 196.058 169.856 195.856C169.359 195.639 168.833 195.412 168.278 195.176C167.098 194.668 166.226 194.075 165.663 193.396C165.101 192.703 164.864 191.823 164.95 190.756C165.023 189.864 165.297 189.114 165.773 188.505C166.249 187.897 166.882 187.448 167.67 187.158C168.475 186.856 169.381 186.745 170.39 186.827C171.413 186.91 172.29 187.165 173.021 187.592C173.766 188.021 174.331 188.582 174.716 189.275C175.117 189.955 175.288 190.749 175.229 191.656L172.422 191.429C172.439 191.047 172.365 190.688 172.201 190.351C172.038 190 171.782 189.707 171.433 189.472C171.1 189.224 170.678 189.08 170.166 189.038C169.729 188.988 169.328 189.029 168.964 189.162C168.616 189.28 168.328 189.478 168.1 189.754C167.887 190.016 167.764 190.359 167.729 190.783C167.696 191.192 167.756 191.543 167.909 191.835C168.078 192.113 168.33 192.362 168.665 192.581C169.002 192.784 169.397 192.986 169.852 193.184C170.307 193.383 170.804 193.6 171.344 193.835C172.084 194.145 172.746 194.508 173.331 194.923C173.931 195.325 174.391 195.826 174.71 196.426C175.029 197.026 175.152 197.779 175.078 198.685C175.014 199.475 174.75 200.196 174.285 200.85C173.821 201.489 173.177 201.989 172.353 202.349C171.531 202.694 170.527 202.819 169.343 202.723ZM184.334 203.674L179.935 197.225L184.726 192.581L187.862 192.836L181.909 198.467L182.075 196.427L187.623 203.941L184.334 203.674ZM177.208 203.096L178.489 187.308L181.12 187.521L179.839 203.309L177.208 203.096ZM189.502 204.093L190.398 193.041L193.03 193.255L192.133 204.307L189.502 204.093ZM191.856 191.394C191.374 191.355 190.984 191.176 190.686 190.858C190.404 190.526 190.281 190.14 190.316 189.702C190.353 189.249 190.536 188.896 190.866 188.643C191.211 188.377 191.625 188.263 192.107 188.302C192.59 188.341 192.973 188.52 193.256 188.837C193.555 189.141 193.686 189.519 193.649 189.972C193.614 190.411 193.423 190.771 193.076 191.052C192.745 191.319 192.339 191.433 191.856 191.394ZM195.174 204.553L196.071 193.502L198.395 193.69L198.443 195.548C198.831 194.932 199.355 194.46 200.015 194.131C200.674 193.802 201.435 193.672 202.298 193.742C203.189 193.814 203.934 194.066 204.532 194.497C205.131 194.914 205.569 195.494 205.847 196.237C206.14 196.982 206.243 197.888 206.157 198.955L205.634 205.402L203.002 205.188L203.506 198.983C203.58 198.062 203.433 197.336 203.064 196.806C202.695 196.276 202.109 195.978 201.305 195.913C200.779 195.87 200.293 195.956 199.849 196.17C199.42 196.385 199.061 196.724 198.774 197.186C198.502 197.635 198.338 198.196 198.284 198.868L197.805 204.767L195.174 204.553ZM213.627 206.315C212.546 206.228 211.593 205.908 210.77 205.355C209.962 204.789 209.352 204.056 208.94 203.154C208.543 202.239 208.39 201.226 208.48 200.115C208.574 198.96 208.889 197.97 209.427 197.146C209.981 196.308 210.701 195.675 211.59 195.246C212.493 194.819 213.492 194.65 214.589 194.739C215.963 194.851 217.088 195.31 217.964 196.117C218.842 196.909 219.361 197.944 219.522 199.223L216.759 198.999C216.658 198.431 216.387 197.968 215.945 197.608C215.518 197.25 214.99 197.045 214.361 196.994C213.821 196.95 213.312 197.049 212.837 197.29C212.375 197.532 211.992 197.906 211.686 198.41C211.395 198.917 211.219 199.542 211.159 200.288C211.112 200.858 211.145 201.368 211.255 201.819C211.366 202.269 211.54 202.659 211.778 202.987C212.032 203.302 212.328 203.554 212.666 203.743C213.004 203.932 213.377 204.044 213.787 204.077C214.211 204.111 214.596 204.076 214.943 203.972C215.306 203.854 215.615 203.666 215.872 203.407C216.143 203.15 216.345 202.835 216.478 202.463L219.241 202.687C218.878 203.894 218.199 204.832 217.203 205.502C216.208 206.157 215.016 206.428 213.627 206.315ZM225.133 207.249C224.227 207.175 223.486 206.961 222.912 206.605C222.337 206.249 221.925 205.804 221.674 205.269C221.423 204.733 221.322 204.166 221.37 203.566C221.427 202.865 221.652 202.272 222.044 201.789C222.451 201.307 223.017 200.956 223.741 200.735C224.467 200.499 225.341 200.423 226.364 200.506L229.149 200.732C229.196 200.147 229.155 199.659 229.025 199.265C228.896 198.858 228.672 198.545 228.351 198.328C228.03 198.11 227.607 197.98 227.08 197.938C226.481 197.889 225.958 197.987 225.511 198.23C225.066 198.459 224.77 198.847 224.622 199.394L222.035 199.184C222.187 198.402 222.504 197.75 222.988 197.231C223.473 196.696 224.086 196.304 224.827 196.055C225.584 195.793 226.394 195.697 227.256 195.767C228.294 195.851 229.164 196.106 229.865 196.53C230.568 196.941 231.082 197.497 231.407 198.201C231.749 198.89 231.881 199.703 231.805 200.639L231.25 207.48L229.014 207.299L228.895 205.501C228.725 205.782 228.513 206.037 228.259 206.266C228.019 206.497 227.746 206.696 227.438 206.862C227.131 207.014 226.784 207.125 226.395 207.197C226.022 207.269 225.601 207.287 225.133 207.249ZM225.894 205.214C226.318 205.248 226.697 205.205 227.03 205.085C227.379 204.952 227.682 204.755 227.939 204.497C228.211 204.224 228.427 203.918 228.587 203.578C228.747 203.238 228.865 202.872 228.941 202.481L228.945 202.437L226.511 202.24C225.999 202.198 225.57 202.23 225.223 202.334C224.877 202.424 224.622 202.579 224.456 202.802C224.291 203.024 224.196 203.288 224.171 203.595C224.146 203.902 224.198 204.171 224.326 204.402C224.455 204.633 224.653 204.819 224.921 204.958C225.19 205.098 225.514 205.183 225.894 205.214ZM234.062 207.708L234.958 196.657L237.305 196.847L237.379 198.928C237.681 198.467 238.043 198.084 238.465 197.78C238.888 197.461 239.371 197.228 239.912 197.081C240.469 196.934 241.068 196.887 241.712 196.94L241.486 199.725L240.565 199.65C240.126 199.614 239.705 199.639 239.301 199.724C238.898 199.794 238.54 199.942 238.227 200.166C237.931 200.378 237.685 200.689 237.489 201.1C237.295 201.496 237.173 202.009 237.122 202.637L236.693 207.922L234.062 207.708ZM247.695 209.079C246.599 208.99 245.653 208.678 244.858 208.143C244.064 207.593 243.468 206.868 243.07 205.967C242.672 205.067 242.519 204.054 242.61 202.928C242.705 201.758 243.015 200.754 243.539 199.913C244.078 199.074 244.784 198.44 245.658 198.01C246.546 197.582 247.546 197.413 248.657 197.503C249.738 197.591 250.662 197.909 251.427 198.456C252.192 199.004 252.76 199.705 253.132 200.559C253.506 201.399 253.651 202.323 253.569 203.331C253.558 203.478 253.545 203.638 253.53 203.814C253.516 203.989 253.487 204.171 253.442 204.359L244.452 203.629L244.589 201.941L250.97 202.458C251.006 201.652 250.786 201.001 250.311 200.507C249.838 199.997 249.221 199.712 248.46 199.65C247.92 199.606 247.412 199.69 246.939 199.902C246.466 200.114 246.077 200.458 245.774 200.933C245.472 201.394 245.29 201.998 245.23 202.743L245.178 203.379C245.122 204.066 245.199 204.668 245.407 205.185C245.63 205.704 245.95 206.112 246.367 206.411C246.8 206.696 247.294 206.862 247.85 206.907C248.464 206.956 248.979 206.866 249.395 206.635C249.825 206.405 250.154 206.078 250.379 205.655L253.054 205.872C252.794 206.543 252.407 207.137 251.894 207.654C251.383 208.157 250.77 208.542 250.057 208.807C249.345 209.059 248.558 209.149 247.695 209.079Z" fill="#232C07"/>
<rect x="74.2815" y="0.99267" width="254.672" height="80.355" rx="40.1775" transform="rotate(2.52437 74.2815 0.99267)" fill="white"/>
<rect x="74.2815" y="0.99267" width="254.672" height="80.355" rx="40.1775" transform="rotate(2.52437 74.2815 0.99267)" stroke="#AADA18" stroke-width="1.64495"/>
<path d="M166.209 53.2818L166.887 37.8968L169.524 38.013L168.846 53.3981L166.209 53.2818ZM156.494 52.8535L157.172 37.4685L159.81 37.5848L159.131 52.9698L156.494 52.8535ZM159.034 46.1829L159.129 44.029L167.107 44.3808L167.013 46.5347L159.034 46.1829ZM175.562 53.9584C174.654 53.9184 173.906 53.7313 173.319 53.3971C172.731 53.0629 172.303 52.6329 172.032 52.1072C171.762 51.5814 171.64 51.0182 171.666 50.4174C171.697 49.7141 171.9 49.1138 172.274 48.6164C172.663 48.1198 173.215 47.7477 173.931 47.5003C174.647 47.2383 175.518 47.1299 176.544 47.1751L179.335 47.2982C179.361 46.7121 179.302 46.225 179.157 45.8369C179.014 45.4342 178.777 45.1302 178.449 44.9248C178.12 44.7195 177.692 44.6052 177.165 44.5819C176.564 44.5554 176.045 44.672 175.608 44.9317C175.171 45.1767 174.889 45.5753 174.762 46.1276L172.169 46.0133C172.292 45.2259 172.585 44.5635 173.049 44.0261C173.514 43.4741 174.112 43.06 174.844 42.784C175.59 42.4939 176.396 42.3679 177.261 42.406C178.301 42.4519 179.179 42.6741 179.896 43.0728C180.613 43.4567 181.147 43.9941 181.498 44.6849C181.865 45.3617 182.027 46.169 181.986 47.1067L181.684 53.9641L179.442 53.8652L179.257 52.0733C179.097 52.3599 178.895 52.6226 178.649 52.8614C178.419 53.1008 178.153 53.3092 177.851 53.4868C177.55 53.6497 177.207 53.7741 176.822 53.8598C176.451 53.9462 176.031 53.9791 175.562 53.9584ZM176.248 51.8966C176.672 51.9154 177.049 51.8586 177.378 51.7263C177.722 51.5799 178.018 51.3728 178.264 51.1047C178.526 50.8226 178.731 50.5087 178.878 50.1628C179.026 49.817 179.13 49.4472 179.192 49.0535L179.194 49.0096L176.754 48.902C176.241 48.8794 175.813 48.9266 175.47 49.0436C175.128 49.146 174.879 49.3112 174.722 49.5392C174.565 49.7671 174.48 50.035 174.466 50.3427C174.453 50.6504 174.514 50.9173 174.651 51.1436C174.788 51.3698 174.993 51.5477 175.266 51.6772C175.539 51.8067 175.867 51.8798 176.248 51.8966ZM184.612 54.0932L185.1 43.0159L187.738 43.1322L187.249 54.2094L184.612 54.0932ZM186.496 41.3158C186.013 41.2945 185.616 41.1302 185.307 40.8229C185.013 40.5016 184.875 40.1212 184.895 39.6816C184.915 39.2274 185.085 38.8679 185.405 38.6031C185.74 38.3242 186.149 38.1955 186.633 38.2168C187.116 38.2381 187.506 38.4021 187.8 38.7087C188.111 39.0013 188.256 39.3747 188.236 39.8289C188.216 40.2685 188.038 40.635 187.703 40.9285C187.382 41.208 186.98 41.3371 186.496 41.3158ZM190.297 54.3438L190.785 43.2666L193.137 43.3703L193.288 45.4469C193.573 44.975 193.921 44.5793 194.331 44.2597C194.742 43.9255 195.216 43.6748 195.752 43.5075C196.302 43.341 196.9 43.2719 197.544 43.3003L197.421 46.0916L196.498 46.0509C196.059 46.0315 195.639 46.0717 195.238 46.1715C194.838 46.2566 194.486 46.4173 194.181 46.6534C193.893 46.8756 193.658 47.1956 193.479 47.6134C193.299 48.0166 193.196 48.5332 193.168 49.1632L192.934 54.4601L190.297 54.3438ZM204.038 55.2139C202.954 55.1661 201.99 54.8813 201.147 54.3597C200.319 53.824 199.682 53.1133 199.237 52.2275C198.807 51.3277 198.616 50.321 198.665 49.2074C198.716 48.0499 198.995 47.0492 199.502 46.2053C200.024 45.3475 200.722 44.6882 201.593 44.2275C202.48 43.7675 203.472 43.5617 204.571 43.6101C205.949 43.6708 207.09 44.0882 207.996 44.8621C208.902 45.6214 209.459 46.637 209.667 47.9087L206.898 47.7866C206.776 47.2234 206.487 46.7702 206.033 46.4272C205.593 46.0848 205.058 45.8997 204.428 45.872C203.886 45.8481 203.381 45.9653 202.915 46.2237C202.463 46.4827 202.093 46.8701 201.806 47.386C201.534 47.9025 201.381 48.5344 201.348 49.2817C201.323 49.8531 201.374 50.3618 201.501 50.8079C201.629 51.2539 201.817 51.6366 202.067 51.9559C202.333 52.2612 202.638 52.5022 202.982 52.6789C203.327 52.8556 203.704 52.953 204.115 52.9711C204.54 52.9898 204.923 52.9407 205.266 52.8236C205.624 52.6926 205.927 52.4931 206.174 52.225C206.435 51.9576 206.625 51.6357 206.745 51.2592L209.514 51.3813C209.196 52.6005 208.552 53.5631 207.581 54.269C206.611 54.9603 205.43 55.2752 204.038 55.2139ZM215.57 55.7223C214.662 55.6822 213.914 55.4951 213.327 55.1609C212.739 54.8267 212.311 54.3968 212.04 53.871C211.77 53.3453 211.648 52.782 211.674 52.1813C211.705 51.4779 211.908 50.8776 212.282 50.3803C212.671 49.8836 213.223 49.5116 213.939 49.2642C214.655 49.0021 215.526 48.8937 216.552 48.9389L219.343 49.062C219.369 48.4759 219.31 47.9888 219.165 47.6008C219.022 47.198 218.785 46.894 218.457 46.6887C218.128 46.4833 217.7 46.369 217.173 46.3458C216.572 46.3193 216.053 46.4359 215.616 46.6955C215.179 46.9405 214.897 47.3392 214.77 47.8915L212.177 47.7771C212.3 46.9898 212.593 46.3274 213.057 45.79C213.522 45.2379 214.12 44.8238 214.852 44.5478C215.598 44.2577 216.404 44.1318 217.269 44.1699C218.309 44.2157 219.187 44.438 219.904 44.8366C220.621 45.2206 221.155 45.7579 221.506 46.4487C221.873 47.1255 222.035 47.9328 221.994 48.8706L221.692 55.7279L219.45 55.6291L219.265 53.8372C219.105 54.1238 218.903 54.3864 218.657 54.6252C218.427 54.8646 218.161 55.0731 217.859 55.2506C217.558 55.4136 217.215 55.5379 216.83 55.6237C216.459 55.7101 216.039 55.743 215.57 55.7223ZM216.256 53.6605C216.68 53.6792 217.057 53.6224 217.386 53.4901C217.73 53.3438 218.026 53.1366 218.272 52.8685C218.534 52.5865 218.739 52.2725 218.886 51.9267C219.034 51.5808 219.138 51.2111 219.2 50.8174L219.202 50.7734L216.762 50.6659C216.249 50.6433 215.821 50.6905 215.478 50.8075C215.136 50.9098 214.887 51.075 214.73 51.303C214.573 51.531 214.488 51.7988 214.474 52.1065C214.461 52.4142 214.522 52.6812 214.659 52.9074C214.796 53.1337 215.001 53.3115 215.274 53.441C215.548 53.5705 215.875 53.6437 216.256 53.6605ZM224.51 55.8522L224.998 44.7749L227.35 44.8786L227.501 46.9552C227.786 46.4833 228.133 46.0876 228.544 45.768C228.955 45.4338 229.429 45.1831 229.964 45.0159C230.515 44.8493 231.113 44.7802 231.757 44.8086L231.634 47.5999L230.711 47.5592C230.272 47.5399 229.851 47.5801 229.451 47.6798C229.05 47.765 228.698 47.9256 228.394 48.1618C228.106 48.3839 227.871 48.7039 227.691 49.1218C227.512 49.5249 227.409 50.0415 227.381 50.6716L227.147 55.9684L224.51 55.8522ZM238.185 56.7193C237.086 56.6709 236.129 56.3938 235.315 55.8881C234.501 55.3677 233.878 54.665 233.448 53.7798C233.017 52.8946 232.826 51.8879 232.876 50.7597C232.928 49.5875 233.2 48.5718 233.693 47.7127C234.201 46.8543 234.883 46.1943 235.74 45.733C236.612 45.2723 237.605 45.0664 238.718 45.1155C239.803 45.1633 240.737 45.4468 241.522 45.9658C242.306 46.4849 242.9 47.1644 243.304 48.0043C243.708 48.8296 243.887 49.7477 243.843 50.7587C243.836 50.9052 243.829 51.0664 243.821 51.2422C243.814 51.4181 243.791 51.6006 243.753 51.7898L234.742 51.3925L234.817 49.7001L241.212 49.9821C241.219 49.1749 240.975 48.5329 240.483 48.0561C239.99 47.5646 239.363 47.3021 238.601 47.2685C238.059 47.2446 237.556 47.3472 237.09 47.5762C236.625 47.8053 236.25 48.1631 235.964 48.6497C235.679 49.1216 235.52 49.7311 235.487 50.4784L235.459 51.1158C235.429 51.8045 235.527 52.4034 235.754 52.9125C235.996 53.4224 236.331 53.8188 236.759 54.1019C237.202 54.3711 237.702 54.5179 238.259 54.5424C238.874 54.5696 239.385 54.46 239.793 54.2137C240.215 53.968 240.53 53.6296 240.74 53.1984L243.422 53.3167C243.186 53.9963 242.822 54.6041 242.328 55.1403C241.836 55.6617 241.238 56.0685 240.535 56.3605C239.833 56.6378 239.049 56.7574 238.185 56.7193Z" fill="#232C07"/>
<rect x="182.129" y="78.4398" width="215.356" height="80.355" rx="40.1775" transform="rotate(1.07698 182.129 78.4398)" fill="white"/>
<rect x="182.129" y="78.4398" width="215.356" height="80.355" rx="40.1775" transform="rotate(1.07698 182.129 78.4398)" stroke="#AADA18" stroke-width="1.64495"/>
<path d="M207.312 125.611L207.562 112.313L209.842 112.356L209.625 123.868L215.552 123.98L215.519 125.765L207.312 125.611ZM217.757 125.807L217.937 116.233L220.217 116.276L220.037 125.85L217.757 125.807ZM219.105 114.735C218.688 114.727 218.342 114.594 218.068 114.335C217.807 114.064 217.68 113.739 217.687 113.359C217.694 112.966 217.833 112.652 218.104 112.417C218.387 112.168 218.738 112.048 219.156 112.056C219.574 112.064 219.913 112.197 220.174 112.455C220.449 112.701 220.582 113.021 220.575 113.413C220.567 113.793 220.422 114.113 220.138 114.374C219.868 114.622 219.523 114.743 219.105 114.735ZM223.146 125.909L223.346 115.29C223.359 114.555 223.491 113.968 223.74 113.53C224.002 113.078 224.369 112.756 224.841 112.562C225.313 112.368 225.873 112.278 226.518 112.29L227.658 112.311L227.622 114.249L226.824 114.234C226.406 114.226 226.1 114.309 225.907 114.483C225.727 114.644 225.633 114.933 225.625 115.351L225.425 125.952L223.146 125.909ZM221.922 118.227L221.958 116.309L227.771 116.418L227.735 118.337L221.922 118.227ZM233.661 126.334C232.712 126.317 231.88 126.098 231.165 125.679C230.451 125.248 229.899 124.655 229.507 123.9C229.116 123.145 228.93 122.28 228.948 121.305C228.967 120.292 229.18 119.409 229.587 118.656C230.007 117.904 230.581 117.32 231.311 116.903C232.054 116.486 232.907 116.286 233.869 116.305C234.806 116.322 235.619 116.546 236.308 116.977C236.996 117.409 237.524 117.982 237.891 118.699C238.258 119.402 238.433 120.191 238.416 121.065C238.414 121.191 238.411 121.331 238.408 121.483C238.406 121.635 238.39 121.793 238.362 121.957L230.573 121.811L230.6 120.348L236.128 120.452C236.116 119.755 235.892 119.206 235.456 118.805C235.021 118.391 234.474 118.178 233.815 118.166C233.346 118.157 232.914 118.257 232.517 118.464C232.121 118.672 231.804 118.99 231.568 119.416C231.332 119.829 231.208 120.359 231.196 121.005L231.186 121.556C231.175 122.151 231.273 122.666 231.48 123.101C231.7 123.536 231.997 123.871 232.373 124.106C232.762 124.328 233.197 124.444 233.678 124.453C234.21 124.463 234.649 124.358 234.995 124.136C235.354 123.915 235.619 123.616 235.791 123.239L238.109 123.282C237.92 123.874 237.619 124.407 237.204 124.881C236.79 125.342 236.283 125.706 235.683 125.973C235.082 126.228 234.409 126.348 233.661 126.334ZM244.239 126.533C243.39 126.517 242.652 126.37 242.024 126.093C241.408 125.802 240.922 125.413 240.563 124.925C240.218 124.424 240.02 123.857 239.968 123.222L242.248 123.265C242.306 123.532 242.415 123.781 242.576 124.013C242.736 124.231 242.955 124.406 243.231 124.538C243.52 124.67 243.861 124.74 244.253 124.747C244.633 124.754 244.944 124.71 245.187 124.613C245.43 124.503 245.61 124.361 245.727 124.186C245.844 124.011 245.905 123.822 245.909 123.619C245.914 123.315 245.837 123.079 245.675 122.912C245.513 122.744 245.275 122.613 244.96 122.518C244.658 122.411 244.293 122.309 243.864 122.212C243.41 122.115 242.968 121.999 242.54 121.864C242.125 121.717 241.748 121.539 241.41 121.33C241.085 121.121 240.823 120.857 240.627 120.536C240.443 120.216 240.355 119.828 240.364 119.372C240.374 118.815 240.529 118.317 240.829 117.88C241.141 117.442 241.578 117.102 242.14 116.859C242.715 116.604 243.395 116.484 244.18 116.498C245.295 116.519 246.176 116.796 246.825 117.327C247.487 117.846 247.866 118.569 247.963 119.496L245.797 119.455C245.74 119.099 245.568 118.824 245.28 118.628C244.993 118.42 244.609 118.312 244.127 118.303C243.633 118.293 243.252 118.381 242.982 118.566C242.726 118.739 242.594 118.977 242.589 119.281C242.585 119.471 242.658 119.65 242.807 119.817C242.968 119.972 243.2 120.11 243.502 120.229C243.804 120.336 244.176 120.445 244.617 120.554C245.324 120.707 245.948 120.883 246.489 121.084C247.03 121.284 247.455 121.57 247.765 121.944C248.074 122.317 248.223 122.839 248.21 123.51C248.211 124.118 248.043 124.654 247.705 125.116C247.38 125.579 246.923 125.938 246.335 126.193C245.748 126.435 245.049 126.548 244.239 126.533ZM254.195 126.492C253.549 126.48 252.987 126.368 252.51 126.157C252.045 125.945 251.684 125.603 251.427 125.129C251.17 124.656 251.048 124.02 251.063 123.222L251.147 118.777L249.513 118.746L249.549 116.827L251.183 116.858L251.497 114.336L253.51 114.374L253.463 116.901L256.065 116.95L256.029 118.868L253.427 118.82L253.343 123.265C253.334 123.746 253.429 124.084 253.628 124.277C253.84 124.459 254.193 124.554 254.687 124.563L255.865 124.585L255.828 126.523L254.195 126.492ZM259.11 130.766L261.545 125.566L260.975 125.556L257.317 116.973L259.806 117.02L262.533 123.571L265.353 117.124L267.765 117.17L261.523 130.811L259.11 130.766ZM269.235 126.775L269.492 113.098L271.772 113.14L271.515 126.818L269.235 126.775ZM278.537 127.178C277.587 127.16 276.755 126.942 276.041 126.523C275.327 126.091 274.775 125.498 274.383 124.744C273.992 123.989 273.806 123.124 273.824 122.149C273.843 121.135 274.056 120.253 274.463 119.5C274.882 118.748 275.457 118.163 276.187 117.746C276.93 117.329 277.782 117.13 278.745 117.148C279.682 117.166 280.495 117.39 281.184 117.821C281.872 118.252 282.4 118.826 282.767 119.542C283.133 120.246 283.309 121.035 283.292 121.908C283.29 122.035 283.287 122.174 283.284 122.326C283.281 122.478 283.266 122.636 283.237 122.801L275.449 122.654L275.476 121.191L281.004 121.295C280.992 120.598 280.768 120.049 280.332 119.648C279.897 119.235 279.349 119.022 278.691 119.009C278.222 119.001 277.79 119.1 277.393 119.308C276.996 119.516 276.68 119.833 276.444 120.259C276.208 120.673 276.084 121.203 276.072 121.849L276.062 122.4C276.05 122.995 276.148 123.51 276.356 123.944C276.576 124.379 276.873 124.714 277.249 124.949C277.638 125.172 278.072 125.288 278.554 125.297C279.086 125.307 279.525 125.201 279.871 124.98C280.23 124.758 280.495 124.459 280.667 124.082L282.984 124.126C282.796 124.718 282.495 125.251 282.08 125.724C281.666 126.185 281.159 126.55 280.558 126.817C279.958 127.072 279.285 127.192 278.537 127.178ZM300.026 127.354L292.943 119.981C292.371 119.387 291.963 118.847 291.719 118.361C291.488 117.875 291.377 117.367 291.387 116.835C291.398 116.227 291.554 115.691 291.854 115.228C292.167 114.753 292.605 114.381 293.167 114.113C293.742 113.845 294.429 113.718 295.227 113.733C296.025 113.748 296.693 113.907 297.232 114.208C297.771 114.51 298.182 114.904 298.464 115.39C298.746 115.877 298.875 116.424 298.851 117.032L296.648 116.991C296.657 116.509 296.518 116.146 296.231 115.9C295.945 115.641 295.592 115.508 295.175 115.5C294.693 115.491 294.311 115.61 294.028 115.858C293.744 116.106 293.599 116.439 293.591 116.857C293.585 117.186 293.679 117.53 293.875 117.889C294.072 118.234 294.362 118.626 294.746 119.064L302.78 127.406L300.026 127.354ZM294.132 127.471C293.183 127.453 292.356 127.273 291.653 126.93C290.963 126.575 290.427 126.09 290.046 125.475C289.678 124.847 289.501 124.122 289.517 123.299C289.529 122.665 289.667 122.079 289.93 121.539C290.206 121 290.608 120.526 291.135 120.118C291.675 119.71 292.34 119.386 293.13 119.148L293.99 118.879L295.008 120.323L294.167 120.593C293.364 120.844 292.762 121.193 292.361 121.642C291.959 122.09 291.753 122.619 291.742 123.227C291.734 123.657 291.828 124.052 292.024 124.41C292.232 124.756 292.531 125.034 292.92 125.244C293.309 125.454 293.763 125.564 294.282 125.574C294.979 125.587 295.608 125.447 296.171 125.153C296.734 124.847 297.282 124.357 297.814 123.683C298.061 123.383 298.308 123.04 298.556 122.651C298.817 122.251 299.078 121.806 299.341 121.317L299.813 120.452L302.15 120.496L301.421 121.85C301.08 122.49 300.739 123.079 300.4 123.617C300.061 124.143 299.71 124.612 299.347 125.023C298.609 125.896 297.818 126.527 296.974 126.917C296.131 127.306 295.184 127.491 294.132 127.471ZM309.215 127.527L309.465 114.229L317.957 114.389L317.922 116.231L311.71 116.115L311.637 120.009L316.709 120.104L316.675 121.909L311.603 121.814L311.495 127.57L309.215 127.527ZM319.679 127.723L319.859 118.149L322.138 118.192L321.958 127.766L319.679 127.723ZM321.027 116.651C320.609 116.643 320.263 116.51 319.989 116.251C319.728 115.98 319.601 115.655 319.608 115.275C319.616 114.882 319.755 114.568 320.025 114.333C320.309 114.084 320.659 113.964 321.077 113.972C321.495 113.98 321.835 114.113 322.096 114.371C322.37 114.617 322.503 114.937 322.496 115.329C322.489 115.709 322.343 116.029 322.06 116.29C321.789 116.538 321.445 116.659 321.027 116.651ZM328.753 127.894C328.107 127.882 327.545 127.77 327.068 127.558C326.603 127.347 326.242 127.004 325.985 126.531C325.728 126.057 325.607 125.421 325.622 124.624L325.705 120.178L324.071 120.148L324.108 118.229L325.741 118.26L326.055 115.738L328.068 115.776L328.021 118.303L330.623 118.351L330.587 120.27L327.985 120.221L327.901 124.666C327.892 125.148 327.987 125.485 328.186 125.679C328.398 125.86 328.751 125.956 329.245 125.965L330.423 125.987L330.386 127.925L328.753 127.894ZM332.588 127.966L332.768 118.392L334.782 118.43L334.923 120.029C335.224 119.477 335.651 119.041 336.201 118.722C336.752 118.403 337.401 118.251 338.148 118.265C338.921 118.279 339.576 118.456 340.115 118.796C340.653 119.123 341.063 119.599 341.342 120.225C341.634 120.852 341.772 121.627 341.754 122.551L341.649 128.136L339.37 128.094L339.471 122.718C339.486 121.92 339.32 121.302 338.974 120.865C338.627 120.428 338.106 120.202 337.409 120.189C336.953 120.181 336.54 120.281 336.168 120.489C335.81 120.698 335.519 121.009 335.296 121.423C335.085 121.824 334.975 122.316 334.964 122.899L334.868 128.009L332.588 127.966ZM348.532 128.494C347.582 128.476 346.75 128.258 346.036 127.839C345.322 127.407 344.769 126.814 344.378 126.059C343.987 125.305 343.8 124.44 343.818 123.464C343.838 122.451 344.05 121.568 344.457 120.816C344.877 120.064 345.452 119.479 346.182 119.062C346.924 118.645 347.777 118.446 348.739 118.464C349.676 118.482 350.489 118.706 351.178 119.137C351.867 119.568 352.394 120.142 352.761 120.858C353.128 121.562 353.303 122.35 353.287 123.224C353.284 123.351 353.282 123.49 353.279 123.642C353.276 123.794 353.26 123.952 353.232 124.116L345.443 123.97L345.471 122.507L350.999 122.611C350.987 121.914 350.762 121.365 350.327 120.964C349.891 120.551 349.344 120.338 348.685 120.325C348.217 120.316 347.784 120.416 347.387 120.624C346.991 120.832 346.674 121.149 346.438 121.575C346.203 121.989 346.079 122.519 346.067 123.165L346.056 123.715C346.045 124.311 346.143 124.826 346.35 125.26C346.57 125.695 346.868 126.03 347.243 126.265C347.632 126.488 348.067 126.604 348.548 126.613C349.08 126.623 349.519 126.517 349.865 126.296C350.224 126.074 350.49 125.775 350.661 125.398L352.979 125.442C352.79 126.034 352.489 126.567 352.075 127.04C351.661 127.501 351.153 127.865 350.553 128.133C349.953 128.388 349.279 128.508 348.532 128.494ZM359.109 128.693C358.261 128.677 357.522 128.53 356.894 128.252C356.279 127.962 355.792 127.572 355.434 127.084C355.088 126.584 354.89 126.016 354.839 125.382L357.118 125.425C357.176 125.692 357.286 125.941 357.446 126.172C357.607 126.39 357.825 126.566 358.101 126.697C358.39 126.83 358.731 126.899 359.124 126.907C359.504 126.914 359.815 126.869 360.057 126.772C360.3 126.663 360.48 126.52 360.597 126.345C360.715 126.17 360.775 125.981 360.779 125.779C360.785 125.475 360.707 125.239 360.545 125.071C360.384 124.903 360.146 124.772 359.831 124.678C359.529 124.571 359.163 124.469 358.734 124.372C358.28 124.275 357.839 124.159 357.41 124.024C356.995 123.877 356.618 123.699 356.28 123.49C355.955 123.281 355.694 123.016 355.497 122.696C355.313 122.376 355.225 121.988 355.234 121.532C355.244 120.974 355.399 120.477 355.699 120.039C356.011 119.602 356.449 119.261 357.011 119.019C357.585 118.763 358.265 118.643 359.051 118.658C360.165 118.679 361.047 118.955 361.696 119.487C362.357 120.006 362.736 120.729 362.833 121.655L360.667 121.615C360.611 121.259 360.439 120.983 360.151 120.788C359.863 120.58 359.479 120.471 358.998 120.462C358.504 120.453 358.122 120.541 357.853 120.726C357.596 120.898 357.465 121.136 357.459 121.44C357.455 121.63 357.528 121.809 357.677 121.977C357.839 122.132 358.071 122.269 358.372 122.389C358.674 122.496 359.046 122.604 359.487 122.714C360.194 122.866 360.818 123.043 361.359 123.243C361.9 123.443 362.325 123.73 362.635 124.103C362.945 124.476 363.093 124.999 363.081 125.67C363.082 126.278 362.913 126.813 362.575 127.276C362.25 127.738 361.793 128.097 361.206 128.352C360.618 128.594 359.92 128.708 359.109 128.693ZM369.053 128.88C368.204 128.864 367.466 128.717 366.837 128.439C366.222 128.149 365.735 127.759 365.377 127.271C365.032 126.771 364.833 126.203 364.782 125.569L367.062 125.612C367.12 125.879 367.229 126.128 367.39 126.359C367.55 126.577 367.769 126.752 368.045 126.884C368.334 127.016 368.675 127.086 369.067 127.094C369.447 127.101 369.758 127.056 370.001 126.959C370.244 126.85 370.424 126.707 370.541 126.532C370.658 126.357 370.719 126.168 370.723 125.965C370.728 125.662 370.65 125.426 370.489 125.258C370.327 125.09 370.089 124.959 369.774 124.864C369.472 124.757 369.107 124.656 368.678 124.559C368.223 124.462 367.782 124.346 367.354 124.211C366.939 124.064 366.562 123.886 366.224 123.677C365.898 123.468 365.637 123.203 365.441 122.883C365.257 122.562 365.169 122.174 365.178 121.719C365.188 121.161 365.343 120.664 365.643 120.226C365.955 119.788 366.392 119.448 366.954 119.205C367.529 118.95 368.209 118.83 368.994 118.845C370.109 118.866 370.99 119.142 371.639 119.674C372.301 120.193 372.68 120.916 372.777 121.842L370.611 121.802C370.554 121.446 370.382 121.17 370.094 120.975C369.807 120.767 369.423 120.658 368.941 120.649C368.447 120.64 368.066 120.728 367.796 120.913C367.539 121.085 367.408 121.323 367.403 121.627C367.399 121.817 367.472 121.996 367.621 122.164C367.782 122.319 368.014 122.456 368.316 122.576C368.618 122.683 368.99 122.791 369.431 122.901C370.138 123.053 370.761 123.23 371.302 123.43C371.843 123.63 372.269 123.917 372.578 124.29C372.888 124.663 373.037 125.186 373.024 125.857C373.025 126.465 372.857 127 372.519 127.463C372.193 127.925 371.737 128.284 371.149 128.539C370.562 128.781 369.863 128.895 369.053 128.88Z" fill="#232C07"/>
</svg>
